<?xml version="1.0" encoding="utf-8"?>
<svg width="40px" height="33px" viewBox="0 0 40 33" version="1.1" xmlns:xlink="http://www.w3.org/1999/xlink" xmlns="http://www.w3.org/2000/svg">
  <g id="Character" transform="translate(0.5 0.5)">
    <path d="M39 5.33306C39 2.38797 36.5621 0.000278416 33.555 0.000278416C30.5469 0.000278416 28.1084 2.38797 28.1084 5.33306C28.1084 8.27869 30.5469 10.6658 33.555 10.6658C36.5621 10.6658 39 8.27869 39 5.33306" id="Fill-1" fill="#9C8480" fill-rule="evenodd" stroke="none" />
    <path d="M39 5.33306C39 2.38797 36.5621 0.000278416 33.555 0.000278416C30.5469 0.000278416 28.1084 2.38797 28.1084 5.33306C28.1084 8.27869 30.5469 10.6658 33.555 10.6658C36.5621 10.6658 39 8.27869 39 5.33306Z" id="Stroke-3" fill="none" fill-rule="evenodd" stroke="#000000" stroke-width="1" />
    <path d="M0.996775 5.33306C0.996775 2.38797 3.43413 0.000278416 6.44174 0.000278416C9.44935 0.000278416 11.8878 2.38797 11.8878 5.33306C11.8878 8.27869 9.44935 10.6658 6.44174 10.6658C3.43413 10.6658 0.996775 8.27869 0.996775 5.33306" id="Fill-5" fill="#9C8480" fill-rule="evenodd" stroke="none" />
    <path d="M0.996775 5.33306C0.996775 2.38797 3.43413 0.000278416 6.44174 0.000278416C9.44935 0.000278416 11.8878 2.38797 11.8878 5.33306C11.8878 8.27869 9.44935 10.6658 6.44174 10.6658C3.43413 10.6658 0.996775 8.27869 0.996775 5.33306Z" id="Stroke-7" fill="none" fill-rule="evenodd" stroke="#000000" stroke-width="1" />
    <path d="M37.8269 16.3825C37.8269 25.4299 30.3977 32 19.9984 32C9.59916 32 2.1694 25.4299 2.1694 16.3825C2.1694 7.33514 9.59916 0 19.9984 0C30.3977 0 37.8269 7.33514 37.8269 16.3825" id="Fill-9" fill="#9C8480" fill-rule="evenodd" stroke="none" />
    <path d="M37.8269 16.3825C37.8269 25.4299 30.3977 32 19.9984 32C9.59916 32 2.1694 25.4299 2.1694 16.3825C2.1694 7.33514 9.59916 0 19.9984 0C30.3977 0 37.8269 7.33514 37.8269 16.3825Z" id="Stroke-11" fill="none" fill-rule="evenodd" stroke="#000000" stroke-width="1" />
    <path d="M27.4624 14.7226C27.4624 13.9286 26.8069 13.2866 25.9944 13.2866C25.1826 13.2866 24.5259 13.9286 24.5259 14.7226C24.5259 15.5178 25.1826 16.1626 25.9944 16.1626C26.8069 16.1626 27.4624 15.5178 27.4624 14.7226" id="Fill-13" fill="#231F20" fill-rule="evenodd" stroke="none" />
    <path d="M15.47 14.7226C15.47 13.9286 14.8145 13.2866 14.0026 13.2866C13.1913 13.2866 12.5341 13.9286 12.5341 14.7226C12.5341 15.5178 13.1913 16.1626 14.0026 16.1626C14.8145 16.1626 15.47 15.5178 15.47 14.7226" id="Fill-15" fill="#231F20" fill-rule="evenodd" stroke="none" />
    <path d="M13.4912 20.5004C13.4912 17.6895 16.4044 16.1627 19.9976 16.1627C23.592 16.1627 26.5052 17.6895 26.5052 20.5004C26.5052 24.2362 22.7034 27.404 19.9976 27.404C17.2931 27.404 13.4912 24.2362 13.4912 20.5004" id="Fill-17" fill="#FFCA05" fill-rule="evenodd" stroke="none" />
    <path d="M17.6958 18.1869C17.6958 17.5371 18.8169 17.2648 19.9984 17.2648C21.1798 17.2648 22.301 17.5371 22.301 18.1869C22.301 19.05 20.8882 19.8167 19.9984 19.8167C19.1092 19.8167 17.6958 19.05 17.6958 18.1869" id="Fill-19" fill="#231F20" fill-rule="evenodd" stroke="none" />
    <path d="M19.9984 19.3031L19.9984 20.8878" id="Stroke-21" fill="none" fill-rule="evenodd" stroke="#000000" stroke-width="1" stroke-linecap="round" stroke-linejoin="round" />
    <path d="M16.8529 21.3977C17.1008 21.8677 17.683 22.1979 18.3607 22.1979C19.2652 22.1979 19.9981 21.6115 19.9981 20.8882" id="Stroke-23" fill="none" fill-rule="evenodd" stroke="#000000" stroke-width="1" stroke-linecap="round" stroke-linejoin="round" />
    <path d="M23.1439 21.3977C22.896 21.8677 22.3138 22.1979 21.6355 22.1979C20.731 22.1979 19.9981 21.6115 19.9981 20.8882" id="Stroke-25" fill="none" fill-rule="evenodd" stroke="#000000" stroke-width="1" stroke-linecap="round" stroke-linejoin="round" />
    <path d="M18.81 11.1826L19.142 12.5686" id="Stroke-27" fill="none" fill-rule="evenodd" stroke="#000000" stroke-width="1" stroke-linecap="round" stroke-linejoin="round" />
    <path d="M21.1868 11.1826L20.8548 12.5686" id="Stroke-29" fill="none" fill-rule="evenodd" stroke="#000000" stroke-width="1" stroke-linecap="round" stroke-linejoin="round" />
    <path d="M5.92255 9.20955C5.68546 12.8791 3.16965 15.8086 0.018762 16.0853C-0.00625401 16.0875 -0.00625401 16.1254 0.018762 16.1282C3.16965 16.4049 5.68546 19.3339 5.92255 23.0034C5.92425 23.0329 5.95723 23.0329 5.95893 23.0034C6.19715 19.3339 8.71183 16.4049 11.8633 16.1282C11.8877 16.1254 11.8877 16.0875 11.8633 16.0853C8.71183 15.8086 6.19715 12.8791 5.95893 9.20955C5.95723 9.18004 5.92425 9.18004 5.92255 9.20955" id="Fill-31" fill="#FFCA05" fill-rule="evenodd" stroke="none" />
    <path d="M5.92255 9.20955C5.68546 12.8791 3.16965 15.8086 0.018762 16.0853C-0.00625401 16.0875 -0.00625401 16.1254 0.018762 16.1282C3.16965 16.4049 5.68546 19.3339 5.92255 23.0034C5.92425 23.0329 5.95723 23.0329 5.95893 23.0034C6.19715 19.3339 8.71183 16.4049 11.8633 16.1282C11.8877 16.1254 11.8877 16.0875 11.8633 16.0853C8.71183 15.8086 6.19715 12.8791 5.95893 9.20955C5.95723 9.18004 5.92425 9.18004 5.92255 9.20955Z" id="Stroke-33" fill="none" fill-rule="evenodd" stroke="#000000" stroke-width="1" stroke-linecap="round" stroke-linejoin="round" />
  </g>
</svg>