<?xml version="1.0" encoding="utf-8"?>
<svg width="40px" height="40px" viewBox="0 0 40 40" version="1.1" xmlns:xlink="http://www.w3.org/1999/xlink" xmlns="http://www.w3.org/2000/svg">
  <defs>
    <filter id="filter_1">
      <feColorMatrix in="SourceGraphic" type="matrix" values="0 0 0 0 1 0 0 0 0 1 0 0 0 0 1 0 0 0 1 0" />
    </filter>
  </defs>
  <g id="Ic--Like">
    <g id="Fill">
      <path d="M34.1421 5.85787C41.9526 13.6684 41.9526 26.3317 34.1421 34.1421C26.3316 41.9526 13.6683 41.9526 5.85787 34.1421C-1.95262 26.3316 -1.95262 13.6683 5.85787 5.85787C13.6684 -1.95262 26.3317 -1.95262 34.1421 5.85787" id="Path" fill="#FFBC00" fill-rule="evenodd" stroke="none" />
    </g>
    <g id="star-checkmark" transform="translate(8 8)" filter="url(#filter_1)">
      <path d="M0 0L24 0L24 24L0 24L0 0Z" id="Path" fill="none" fill-rule="evenodd" stroke="none" />
      <path d="M7.458 19.86L7.458 19.86C6.87397 20.1733 6.14657 19.9538 5.8333 19.3697C5.707 19.1343 5.6629 18.8634 5.708 18.6L6.57599 13.577L2.9 10.018L2.9 10.018C2.42746 9.55331 2.42111 8.79353 2.8858 8.321C3.06937 8.13434 3.30894 8.01283 3.56799 7.975L8.64999 7.242L10.92 2.668L10.92 2.668C11.2191 2.07043 11.9461 1.8285 12.5436 2.12764C12.7774 2.24466 12.967 2.43424 13.084 2.668L15.354 7.242L20.436 7.975L20.436 7.975C21.0918 8.07076 21.5458 8.68002 21.45 9.33581C21.4122 9.59486 21.2907 9.83443 21.104 10.018L17.426 13.575L18.294 18.598L18.294 18.598C18.4071 19.251 17.9693 19.8721 17.3163 19.9851C17.0521 20.0309 16.7802 19.9868 16.544 19.86L12 17.491L7.458 19.86Z" id="Path" fill="#000000" fill-rule="evenodd" stroke="none" />
    </g>
  </g>
</svg>