<?xml version="1.0" encoding="utf-8"?>
<svg width="72px" height="72px" viewBox="0 0 72 72" version="1.1" xmlns:xlink="http://www.w3.org/1999/xlink" xmlns="http://www.w3.org/2000/svg">
  <defs>
    <filter filterUnits="userSpaceOnUse" color-interpolation-filters="sRGB" id="filter_1">
      <feFlood flood-opacity="0" result="BackgroundImageFix" />
      <feBlend mode="normal" in="SourceGraphic" in2="BackgroundImageFix" result="shape" />
      <feGaussianBlur stdDeviation="8" result="effect0_gaussianBlur" />
    </filter>
    <path d="M12 24C18.6274 24 24 18.6274 24 12C24 5.37258 18.6274 0 12 0C5.37258 0 0 5.37258 0 12C0 18.6274 5.37258 24 12 24Z" id="path_1" />
    <clipPath id="mask_1">
      <use xlink:href="#path_1" />
    </clipPath>
  </defs>
  <g id="Ic--Close" transform="translate(24 24)">
    <g id="Group">
      <use xlink:href="#Group" filter="url(#filter_1)" clip-path="url(#mask_1)" />
      <path d="M12.8485 12L15.3948 9.45371Q15.4365 9.41199 15.4693 9.36294Q15.5021 9.31388 15.5247 9.25938Q15.5472 9.20487 15.5588 9.14701Q15.5703 9.08915 15.5703 9.03015Q15.5703 8.97116 15.5588 8.91329Q15.5472 8.85543 15.5247 8.80092Q15.5021 8.74642 15.4693 8.69737Q15.4365 8.64831 15.3948 8.6066L15.3934 8.60518Q15.3517 8.56346 15.3026 8.53069Q15.2536 8.49791 15.1991 8.47533Q15.1446 8.45276 15.0867 8.44125Q15.0288 8.42974 14.9698 8.42974Q14.9109 8.42974 14.853 8.44125Q14.7951 8.45276 14.7406 8.47533Q14.6861 8.49791 14.6371 8.53069Q14.588 8.56346 14.5463 8.60518L12 11.1515L9.45371 8.60518Q9.41199 8.56346 9.36294 8.53069Q9.31388 8.49791 9.25938 8.47533Q9.20487 8.45276 9.14701 8.44125Q9.08915 8.42974 9.03015 8.42974Q8.97116 8.42974 8.91329 8.44125Q8.85543 8.45276 8.80092 8.47533Q8.74642 8.49791 8.69736 8.53069Q8.64831 8.56346 8.60659 8.60518L8.60518 8.6066Q8.56346 8.64831 8.53069 8.69737Q8.49791 8.74642 8.47533 8.80093Q8.45275 8.85543 8.44125 8.91329Q8.42974 8.97116 8.42974 9.03015Q8.42974 9.08915 8.44125 9.14701Q8.45275 9.20487 8.47533 9.25938Q8.49791 9.31388 8.53069 9.36294Q8.56346 9.41199 8.60518 9.45371L11.1515 12L8.60518 14.5463Q8.56346 14.588 8.53069 14.6371Q8.49791 14.6861 8.47533 14.7406Q8.45275 14.7951 8.44125 14.853Q8.42974 14.9109 8.42974 14.9698Q8.42974 15.0288 8.44125 15.0867Q8.45275 15.1446 8.47533 15.1991Q8.49791 15.2536 8.53069 15.3026Q8.56346 15.3517 8.60518 15.3934L8.60659 15.3948Q8.64831 15.4365 8.69736 15.4693Q8.74642 15.5021 8.80092 15.5247Q8.85543 15.5472 8.91329 15.5588Q8.97116 15.5703 9.03015 15.5703Q9.08915 15.5703 9.14701 15.5588Q9.20487 15.5472 9.25938 15.5247Q9.31388 15.5021 9.36294 15.4693Q9.41199 15.4365 9.45371 15.3948L12 12.8485L14.5463 15.3948Q14.588 15.4365 14.6371 15.4693Q14.6861 15.5021 14.7406 15.5247Q14.7951 15.5472 14.853 15.5588Q14.9108 15.5703 14.9698 15.5703Q15.0288 15.5703 15.0867 15.5588Q15.1446 15.5472 15.1991 15.5247Q15.2536 15.5021 15.3026 15.4693Q15.3517 15.4365 15.3934 15.3948L15.3948 15.3934Q15.4365 15.3517 15.4693 15.3026Q15.5021 15.2536 15.5247 15.1991Q15.5472 15.1446 15.5587 15.0867Q15.5703 15.0288 15.5703 14.9698Q15.5703 14.9108 15.5587 14.853Q15.5472 14.7951 15.5247 14.7406Q15.5021 14.6861 15.4693 14.6371Q15.4365 14.588 15.3948 14.5463L12.8485 12Z" id="Combined-Shape" fill="#FFFFFF" fill-rule="evenodd" stroke="#FFFFFF" stroke-width="1" />
    </g>
  </g>
</svg>