<?xml version="1.0" encoding="utf-8"?>
<svg width="25px" height="25px" viewBox="0 0 25 25" version="1.1" xmlns:xlink="http://www.w3.org/1999/xlink" xmlns="http://www.w3.org/2000/svg">
  <defs>
    <filter id="filter_1">
      <feColorMatrix in="SourceGraphic" type="matrix" values="0 0 0 0 0.08235294 0 0 0 0 0.08235294 0 0 0 0 0.08235294 0 0 0 1 0" />
    </filter>
    <rect width="24" height="24" id="artboard_1" />
    <clipPath id="clip_1">
      <use xlink:href="#artboard_1" clip-rule="evenodd" />
    </clipPath>
  </defs>
  <g id="Ic--Arrow" clip-path="url(#clip_1)" transform="matrix(-4.371139E-08 -1 1 -4.371139E-08 0.5 24.5)">
    <g id="Ic--Arrow" filter="url(#filter_1)">
      <path d="M24 0L0 0L0 24L24 24L24 0Z" id="Path" fill="none" fill-rule="evenodd" stroke="none" />
      <path d="M17 20L8 20L7.99998 4.00001L17 4L17 20Z" id="button-area" fill="#FFFFFF" fill-opacity="0.011764706" fill-rule="evenodd" stroke="none" />
      <path d="M13.9272 12.0002L8.26361 17.5939C7.91214 17.941 7.91214 18.5039 8.26361 18.851C8.61508 19.1981 9.18493 19.1981 9.5364 18.851L15.8364 12.6288C16.1879 12.2816 16.1879 11.7188 15.8364 11.3717L9.53639 5.14946C9.18491 4.80233 8.61507 4.80233 8.26359 5.14946C7.91212 5.4966 7.91212 6.05941 8.2636 6.40654L13.9272 12.0002Z" id="Path" fill="#000000" stroke="#000000" stroke-width="1" />
    </g>
  </g>
</svg>