<?xml version="1.0" encoding="utf-8"?>
<svg width="40px" height="40px" viewBox="0 0 40 40" version="1.1" xmlns:xlink="http://www.w3.org/1999/xlink" xmlns="http://www.w3.org/2000/svg">
  <g id="Group">
    <path d="M12.999 19L27.001 19Q27.0994 19 27.1959 19.0192Q27.2924 19.0384 27.3833 19.076Q27.4742 19.1137 27.556 19.1684Q27.6378 19.223 27.7074 19.2926Q27.777 19.3622 27.8316 19.444Q27.8863 19.5258 27.924 19.6167Q27.9616 19.7076 27.9808 19.8041Q28 19.9006 28 19.999L28 20.001Q28 20.0994 27.9808 20.1959Q27.9616 20.2924 27.924 20.3833Q27.8863 20.4742 27.8316 20.556Q27.777 20.6378 27.7074 20.7074Q27.6378 20.777 27.556 20.8316Q27.4742 20.8863 27.3833 20.924Q27.2924 20.9616 27.1959 20.9808Q27.0994 21 27.001 21L12.999 21Q12.9006 21 12.8041 20.9808Q12.7076 20.9616 12.6167 20.924Q12.5258 20.8863 12.444 20.8316Q12.3622 20.777 12.2926 20.7074Q12.223 20.6378 12.1684 20.556Q12.1137 20.4742 12.076 20.3833Q12.0384 20.2924 12.0192 20.1959Q12 20.0994 12 20.001L12 19.999Q12 19.9006 12.0192 19.8041Q12.0384 19.7076 12.076 19.6167Q12.1137 19.5258 12.1684 19.444Q12.223 19.3622 12.2926 19.2926Q12.3622 19.223 12.444 19.1684Q12.5258 19.1137 12.6167 19.076Q12.7076 19.0384 12.8041 19.0192Q12.9006 19 12.999 19Z" id="Rectangle" fill="#151515" fill-rule="evenodd" stroke="none" />
  </g>
</svg>