<?xml version="1.0" encoding="utf-8"?>
<svg width="40px" height="40px" viewBox="0 0 40 40" version="1.1" xmlns:xlink="http://www.w3.org/1999/xlink" xmlns="http://www.w3.org/2000/svg">
  <defs>
    <filter id="filter_1">
      <feColorMatrix in="SourceGraphic" type="matrix" values="0 0 0 0 1 0 0 0 0 1 0 0 0 0 1 0 0 0 1 0" />
    </filter>
  </defs>
  <g id="Group-2">
    <g id="Fill" filter="url(#filter_1)">
      <path d="M20 40C31.0457 40 40 31.0457 40 20C40 8.9543 31.0457 0 20 0C8.9543 0 0 8.9543 0 20C0 31.0457 8.9543 40 20 40Z" id="Oval" fill="#FFFFFF" fill-rule="evenodd" stroke="none" />
    </g>
    <g id="Group" transform="translate(12 12)">
      <path d="M9 7L9 0.999Q9 0.900607 8.9808 0.804105Q8.96161 0.707602 8.92395 0.616699Q8.8863 0.525796 8.83164 0.443985Q8.77697 0.362175 8.7074 0.2926Q8.63783 0.223026 8.55601 0.168362Q8.4742 0.113698 8.3833 0.0760443Q8.2924 0.038391 8.1959 0.0191955Q8.09939 0 8.001 0L7.999 0Q7.90061 0 7.8041 0.0191955Q7.7076 0.038391 7.6167 0.0760443Q7.52579 0.113698 7.44398 0.168362Q7.36217 0.223026 7.2926 0.2926Q7.22303 0.362175 7.16836 0.443985Q7.1137 0.525796 7.07604 0.616699Q7.03839 0.707602 7.01919 0.804105Q7 0.900607 7 0.999L7 7L0.999 7Q0.900607 7 0.804105 7.0192Q0.707602 7.03839 0.616699 7.07604Q0.525796 7.1137 0.443985 7.16836Q0.362175 7.22303 0.2926 7.2926Q0.223026 7.36217 0.168362 7.44398Q0.113698 7.52579 0.0760443 7.6167Q0.038391 7.7076 0.0191955 7.8041Q0 7.90061 0 7.999L0 8.001Q0 8.09939 0.0191955 8.19589Q0.038391 8.2924 0.0760443 8.3833Q0.113698 8.4742 0.168362 8.55601Q0.223026 8.63783 0.2926 8.7074Q0.362175 8.77697 0.443985 8.83164Q0.525796 8.8863 0.616699 8.92395Q0.707602 8.96161 0.804105 8.9808Q0.900607 9 0.999 9L7 9L7 15.001Q7 15.0994 7.01919 15.1959Q7.03839 15.2924 7.07604 15.3833Q7.1137 15.4742 7.16836 15.556Q7.22302 15.6378 7.2926 15.7074Q7.36217 15.777 7.44398 15.8316Q7.52579 15.8863 7.6167 15.924Q7.7076 15.9616 7.8041 15.9808Q7.90061 16 7.999 16L8.001 16Q8.09939 16 8.19589 15.9808Q8.2924 15.9616 8.3833 15.924Q8.4742 15.8863 8.55601 15.8316Q8.63783 15.777 8.7074 15.7074Q8.77697 15.6378 8.83164 15.556Q8.8863 15.4742 8.92395 15.3833Q8.96161 15.2924 8.9808 15.1959Q9 15.0994 9 15.001L9 9L15.001 9Q15.0994 9 15.1959 8.9808Q15.2924 8.96161 15.3833 8.92395Q15.4742 8.8863 15.556 8.83164Q15.6378 8.77697 15.7074 8.7074Q15.777 8.63783 15.8316 8.55601Q15.8863 8.4742 15.924 8.3833Q15.9616 8.2924 15.9808 8.19589Q16 8.09939 16 8.001L16 7.999Q16 7.90061 15.9808 7.8041Q15.9616 7.7076 15.924 7.6167Q15.8863 7.52579 15.8316 7.44398Q15.777 7.36217 15.7074 7.2926Q15.6378 7.22303 15.556 7.16836Q15.4742 7.1137 15.3833 7.07604Q15.2924 7.03839 15.1959 7.0192Q15.0994 7 15.001 7L9 7Z" id="Combined-Shape" fill="#151515" fill-rule="evenodd" stroke="none" />
    </g>
  </g>
</svg>