<?xml version="1.0" encoding="utf-8"?>
<svg width="124px" height="48px" viewBox="0 0 124 48" version="1.1" xmlns:xlink="http://www.w3.org/1999/xlink" xmlns="http://www.w3.org/2000/svg">
  <defs>
    <filter id="filter_1">
      <feColorMatrix in="SourceGraphic" type="matrix" values="0 0 0 0 0.32941177 0 0 0 0 0.3137255 0 0 0 0 0.27058825 0 0 0 1 0" />
    </filter>
  </defs>
  <g id="Btn--Ic-Text">
    <path d="M15.999 0L108.001 0Q108.394 0 108.786 0.0192715Q109.178 0.038543 109.569 0.0770395Q109.96 0.115536 110.349 0.173165Q110.737 0.230794 111.122 0.307416Q111.507 0.384039 111.888 0.47947Q112.269 0.574901 112.645 0.688911Q113.021 0.802922 113.391 0.935236Q113.761 1.06755 114.124 1.21785Q114.486 1.36815 114.841 1.53607Q115.196 1.704 115.543 1.88914Q115.889 2.07428 116.226 2.2762Q116.563 2.47812 116.89 2.69632Q117.216 2.91452 117.532 3.14848Q117.847 3.38245 118.151 3.63161Q118.454 3.88077 118.745 4.14452Q119.036 4.40828 119.314 4.686Q119.592 4.96372 119.855 5.25473Q120.119 5.54574 120.368 5.84934Q120.618 6.15294 120.852 6.46841Q121.085 6.78387 121.304 7.11043Q121.522 7.43699 121.724 7.77387Q121.926 8.11075 122.111 8.45712Q122.296 8.8035 122.464 9.15855Q122.632 9.51359 122.782 9.87645Q122.932 10.2393 123.065 10.6091Q123.197 10.9789 123.311 11.3547Q123.425 11.7306 123.521 12.1116Q123.616 12.4925 123.693 12.8777Q123.769 13.263 123.827 13.6515Q123.884 14.04 123.923 14.4308Q123.961 14.8217 123.981 15.214Q124 15.6062 124 15.999L124 32.001Q124 32.3938 123.981 32.786Q123.961 33.1783 123.923 33.5692Q123.884 33.96 123.827 34.3485Q123.769 34.737 123.693 35.1222Q123.616 35.5075 123.521 35.8884Q123.425 36.2694 123.311 36.6453Q123.197 37.0211 123.065 37.3909Q122.932 37.7607 122.782 38.1235Q122.632 38.4864 122.464 38.8415Q122.296 39.1965 122.111 39.5429Q121.926 39.8893 121.724 40.2261Q121.522 40.563 121.304 40.8896Q121.085 41.2161 120.852 41.5316Q120.618 41.8471 120.368 42.1507Q120.119 42.4543 119.855 42.7453Q119.592 43.0363 119.314 43.314Q119.036 43.5917 118.745 43.8555Q118.454 44.1192 118.151 44.3684Q117.847 44.6175 117.532 44.8515Q117.216 45.0855 116.89 45.3037Q116.563 45.5219 116.226 45.7238Q115.889 45.9257 115.543 46.1109Q115.196 46.296 114.841 46.4639Q114.486 46.6318 114.124 46.7821Q113.761 46.9324 113.391 47.0648Q113.021 47.1971 112.645 47.3111Q112.269 47.4251 111.888 47.5205Q111.507 47.616 111.122 47.6926Q110.737 47.7692 110.349 47.8268Q109.96 47.8845 109.569 47.923Q109.178 47.9615 108.786 47.9807Q108.394 48 108.001 48L15.999 48Q15.6062 48 15.214 47.9807Q14.8217 47.9615 14.4308 47.923Q14.04 47.8845 13.6515 47.8268Q13.263 47.7692 12.8777 47.6926Q12.4925 47.616 12.1116 47.5205Q11.7306 47.4251 11.3547 47.3111Q10.9789 47.1971 10.6091 47.0648Q10.2393 46.9324 9.87645 46.7821Q9.51359 46.6318 9.15855 46.4639Q8.8035 46.296 8.45712 46.1109Q8.11075 45.9257 7.77387 45.7238Q7.43699 45.5219 7.11043 45.3037Q6.78387 45.0855 6.46841 44.8515Q6.15294 44.6175 5.84934 44.3684Q5.54574 44.1192 5.25473 43.8555Q4.96372 43.5917 4.686 43.314Q4.40828 43.0363 4.14452 42.7453Q3.88077 42.4543 3.63161 42.1507Q3.38245 41.8471 3.14848 41.5316Q2.91452 41.2161 2.69632 40.8896Q2.47812 40.563 2.2762 40.2261Q2.07428 39.8892 1.88914 39.5429Q1.704 39.1965 1.53607 38.8415Q1.36815 38.4864 1.21785 38.1235Q1.06755 37.7607 0.935236 37.3909Q0.802922 37.0211 0.688911 36.6453Q0.574901 36.2694 0.47947 35.8884Q0.384039 35.5075 0.307416 35.1222Q0.230794 34.737 0.173165 34.3485Q0.115536 33.96 0.0770395 33.5692Q0.038543 33.1783 0.0192715 32.786Q0 32.3938 0 32.001L0 15.999Q0 15.6062 0.0192715 15.214Q0.038543 14.8217 0.0770395 14.4308Q0.115536 14.04 0.173165 13.6515Q0.230794 13.263 0.307416 12.8777Q0.384039 12.4925 0.47947 12.1116Q0.574901 11.7306 0.688911 11.3547Q0.802922 10.9789 0.935236 10.6091Q1.06755 10.2393 1.21785 9.87645Q1.36815 9.51359 1.53607 9.15855Q1.704 8.8035 1.88914 8.45712Q2.07428 8.11075 2.2762 7.77387Q2.47812 7.43699 2.69632 7.11043Q2.91452 6.78387 3.14848 6.46841Q3.38245 6.15294 3.63161 5.84934Q3.88077 5.54574 4.14452 5.25473Q4.40828 4.96372 4.686 4.686Q4.96372 4.40828 5.25473 4.14452Q5.54574 3.88077 5.84934 3.63161Q6.15294 3.38245 6.46841 3.14848Q6.78387 2.91452 7.11043 2.69632Q7.43699 2.47812 7.77387 2.2762Q8.11075 2.07428 8.45712 1.88914Q8.8035 1.704 9.15855 1.53607Q9.51359 1.36815 9.87645 1.21785Q10.2393 1.06755 10.6091 0.935236Q10.9789 0.802922 11.3547 0.688911Q11.7306 0.574901 12.1116 0.47947Q12.4925 0.384039 12.8777 0.307416Q13.263 0.230794 13.6515 0.173165Q14.04 0.115536 14.4308 0.0770395Q14.8217 0.038543 15.214 0.0192715Q15.6062 0 15.999 0Z" id="Area" fill="#F7F4F0" fill-rule="evenodd" stroke="none" />
    <g id="Ic--팔로우" transform="translate(12 9)" filter="url(#filter_1)">
      <path d="M0 0L32 0L32 32L0 32L0 0Z" id="Area" fill="none" fill-rule="evenodd" stroke="none" />
      <path d="M18.3666 8.13781L8.28623 18.2182C7.92938 18.5751 7.69835 19.0371 7.62624 19.5373L7.01001 23.8588C6.91704 24.5109 7.46888 25.0732 8.12256 24.9925L12.3226 24.4738C12.8364 24.411 13.3164 24.1768 13.6849 23.8107L23.8618 13.6338C25.2952 12.2004 25.3826 9.9096 24.0775 8.3724L23.8901 8.16776C22.3447 6.62111 19.8851 6.62111 18.3666 8.13781ZM22.4476 9.55244L22.5798 9.69717C23.1854 10.4118 23.1429 11.5242 22.4476 12.2196L12.2729 22.3942L12.2156 22.4397C12.1742 22.4657 12.127 22.4828 12.0787 22.4887L9.17333 22.8467L9.60599 19.8212C9.61632 19.7495 9.64928 19.6836 9.70044 19.6324L19.7804 9.55244C20.5175 8.81623 21.7113 8.81623 22.4476 9.55244Z" id="Path" fill="#000000" stroke="none" />
    </g>
    <g id="그룹신청" fill="#545045" transform="translate(48 14)">
      <path d="M51.072 10.664Q51.584 10.936 51.968 11.08L52.88 9.832Q52.32 9.576 51.696 9.232Q51.072 8.888 50.544 8.424Q50.016 7.96 49.672 7.368Q49.328 6.776 49.328 6.024L49.328 5.864L52.384 5.864L52.384 4.344L49.328 4.344L49.328 2.376L47.488 2.376L47.488 4.344L44.368 4.344L44.368 5.864L47.488 5.864L47.488 6.04Q47.488 6.792 47.168 7.408Q46.848 8.024 46.32 8.528Q45.792 9.032 45.104 9.448Q44.416 9.864 43.696 10.248L44.832 11.448Q45.28 11.208 45.808 10.88Q46.336 10.552 46.832 10.176Q47.328 9.8 47.752 9.408Q48.176 9.016 48.432 8.648Q48.672 9 49.112 9.368Q49.552 9.736 50.056 10.064Q50.56 10.392 51.072 10.664ZM41.376 13.496L39.536 13.496L39.536 2.968L41.376 2.968L41.376 13.496ZM51.76 6.712L51.76 8.232L54.256 8.232L54.256 11.416L56.096 11.416L56.096 2.968L54.256 2.968L54.256 6.712L51.76 6.712ZM18.624 6.872L26.416 6.872L26.416 3.544Q26.416 3.16 26.032 3.16L16.784 3.16L16.784 4.648L24.576 4.648L24.576 5.416L16.784 5.416L16.784 7.56Q16.784 8.368 17.188 8.772Q17.592 9.176 18.4 9.176L26.736 9.176L26.736 7.688L18.992 7.688Q18.624 7.688 18.624 7.32L18.624 6.872ZM37.488 11.384Q37.104 11.224 36.592 10.888Q36.08 10.552 35.576 10.144Q35.072 9.736 34.632 9.296Q34.192 8.856 33.952 8.472Q33.696 8.872 33.272 9.328Q32.848 9.784 32.352 10.216Q31.856 10.648 31.328 11.008Q30.8 11.368 30.352 11.592L29.216 10.392Q29.936 10.008 30.624 9.528Q31.312 9.048 31.84 8.48Q32.368 7.912 32.688 7.256Q33.008 6.6 33.008 5.864L33.008 3.384L34.848 3.384L34.848 5.848Q34.848 6.584 35.192 7.232Q35.536 7.88 36.064 8.424Q36.592 8.968 37.216 9.4Q37.84 9.832 38.4 10.136L37.488 11.384ZM12.024 8.496Q12.08 7.88 12.08 7.416L12.08 4.552Q12.08 4.008 11.536 4.008L2.24 4.008L2.24 5.592L10.24 5.592L10.24 7.608Q10.24 8.072 10.2 8.632Q10.16 9.192 10.096 9.736Q10.032 10.28 9.952 10.76Q9.872 11.24 9.792 11.56L11.424 11.768Q11.536 11.432 11.656 10.888Q11.776 10.344 11.872 9.728Q11.968 9.112 12.024 8.496ZM20.688 11.416L20.688 13.064L22.528 13.064L22.528 11.416L28.32 11.416L28.32 9.96L14.88 9.96L14.88 11.416L20.688 11.416ZM49.8 18Q50.608 18.232 51.584 18.232Q52.56 18.232 53.368 18Q54.176 17.768 54.76 17.328Q55.344 16.888 55.672 16.256Q56 15.624 56 14.84Q56 14.056 55.672 13.424Q55.344 12.792 54.76 12.352Q54.176 11.912 53.368 11.68Q52.56 11.448 51.584 11.448Q50.608 11.448 49.8 11.68Q48.992 11.912 48.408 12.352Q47.824 12.792 47.496 13.424Q47.168 14.056 47.168 14.84Q47.168 15.624 47.496 16.256Q47.824 16.888 48.408 17.328Q48.992 17.768 49.8 18ZM26.56 17.368L26.56 12.168L24.752 12.168L24.752 13.768L18.464 13.768L18.464 12.168L16.656 12.168L16.656 16.136Q16.656 17.752 18.272 17.752L26.176 17.752Q26.56 17.752 26.56 17.368ZM41.776 17.576L33.44 17.576Q31.824 17.576 31.824 15.96L31.824 12.632L33.664 12.632L33.664 15.624Q33.664 15.992 34.032 15.992L41.776 15.992L41.776 17.576ZM49.656 13.488Q50.336 13 51.584 13Q52.832 13 53.512 13.488Q54.192 13.976 54.192 14.84Q54.192 15.704 53.512 16.192Q52.832 16.68 51.584 16.68Q50.336 16.68 49.656 16.192Q48.976 15.704 48.976 14.84Q48.976 13.976 49.656 13.488ZM0.48 14.872L13.92 14.872L13.92 13.288L0.48 13.288L0.48 14.872ZM24.752 15.176L24.752 16.264L18.832 16.264Q18.464 16.264 18.464 15.896L18.464 15.176L24.752 15.176Z" />
    </g>
  </g>
</svg>