<?xml version="1.0" encoding="UTF-8"?>
<svg width="32px" height="32px" viewBox="0 0 32 32" version="1.1" xmlns="http://www.w3.org/2000/svg" xmlns:xlink="http://www.w3.org/1999/xlink">
    <title>담기완료(FULL_별)_32</title>
    <g id="담기완료(FULL_별)_32" stroke="none" stroke-width="1" fill="none" fill-rule="evenodd">
        <g id="Ic-/-Like-Copy">
            <polygon id="Path" points="0 0 32 0 32 32 0 32"></polygon>
            <g id="star-checkmark" transform="translate(2.388529, 2.998947)" fill="#FFBC00">
                <path d="M11.2772494,1.44407723 C11.923328,0.153453546 13.4933353,-0.369055339 14.7839571,0.277024423 C15.2888277,0.529758853 15.6982742,0.93920543 15.9525496,1.44716752 L18.7460003,7.07521871 L25.0039634,7.97821126 C26.3701862,8.17772717 27.3321562,9.40586503 27.2196651,10.76319 L27.2009659,10.9266315 C27.1189994,11.4879108 26.8557275,12.0069872 26.4453079,12.4105505 L21.9210003,16.7842187 L22.9887978,22.9611182 C23.2243473,24.3215861 22.3565564,25.6179715 21.0316194,25.9334724 L20.8704741,25.9665655 C20.2980684,26.0656711 19.7089605,25.9702247 19.2078316,25.7011141 L13.6110003,22.7832187 L8.02814804,25.6956222 C6.81336388,26.3472079 5.31230609,25.9349727 4.59364798,24.781402 L4.50796802,24.6333678 C4.2343164,24.1231839 4.13877063,23.5362606 4.23673548,22.9641051 L5.30400033,16.7882187 L0.776962273,12.4047152 C-0.202343087,11.4416538 -0.25751764,9.89363721 0.620673456,8.86485101 L0.746212979,8.72788405 C1.14393882,8.32345022 1.66301472,8.0601787 2.22604002,7.97795813 L8.48200033,7.07521871 Z" id="Combined-Shape"></path>
            </g>
        </g>
    </g>
</svg>