<?xml version="1.0" encoding="utf-8"?>
<svg width="38px" height="39px" viewBox="0 0 38 39" version="1.1" xmlns:xlink="http://www.w3.org/1999/xlink" xmlns="http://www.w3.org/2000/svg">
  <g id="📣" fill="#FFFFFF">
    <path d="M28.3832 10.9058Q29.6603 10.9058 30.6318 11.4629Q31.6033 12.02 32.3098 12.9439Q33.0163 13.8678 33.4783 15.0499Q33.9402 16.2319 34.2188 17.4819Q34.4973 18.7319 34.6128 19.9412Q34.7283 21.1504 34.7283 22.1287Q34.7283 23.1069 34.6128 24.323Q34.4973 25.539 34.2188 26.7822Q33.9402 28.0254 33.4783 29.2143Q33.0163 30.4031 32.3098 31.3202Q31.6033 32.2374 30.6318 32.8012Q29.6603 33.3651 28.3832 33.3651Q27.8125 33.3651 27.3234 33.3447Q26.8342 33.3243 26.3791 33.2292Q25.9239 33.1341 25.4823 32.9371Q25.0408 32.7401 24.5652 32.3732Q24.3207 32.3053 24.0557 32.2442Q23.7908 32.183 23.5598 32.0879Q23.4918 32.0607 23.4375 32.0268Q23.3832 31.9928 23.3152 31.9656L19.9049 30.9738Q19.0761 32.1151 17.8329 32.7401Q16.5897 33.3651 15.1902 33.3651Q14.0217 33.3651 12.9959 32.9439Q11.9701 32.5227 11.1889 31.7822Q10.4076 31.0417 9.91848 30.0431Q9.42935 29.0444 9.34783 27.8895Q8.57337 27.6586 7.8125 27.4208Q7.05163 27.183 6.27717 26.9928Q6.00543 26.9384 5.86277 26.9045Q5.72011 26.8705 5.47554 26.7346Q4.87772 26.4086 4.49728 25.8855Q4.11685 25.3624 3.88587 24.7306Q3.65489 24.0988 3.56658 23.4194Q3.47826 22.7401 3.47826 22.1287Q3.47826 21.5308 3.57337 20.8515Q3.66848 20.1721 3.89946 19.5336Q4.13043 18.895 4.51087 18.3651Q4.8913 17.8352 5.47554 17.5227Q5.67935 17.414 5.86957 17.38Q6.05978 17.3461 6.27717 17.2781L23.3152 12.2917Q23.3832 12.2645 23.4375 12.2306Q23.4918 12.1966 23.5598 12.1694Q23.7908 12.0743 24.0557 12.02Q24.3207 11.9656 24.5652 11.8977Q25.0408 11.5308 25.4823 11.327Q25.9239 11.1232 26.3791 11.0349Q26.8342 10.9466 27.3234 10.9262Q27.8125 10.9058 28.3832 10.9058ZM24.0761 30.1586Q23.5734 29.8325 23.1929 29.2618Q22.8125 28.6912 22.5272 27.9846Q22.2418 27.2781 22.0584 26.4833Q21.875 25.6884 21.7595 24.9072Q21.644 24.1259 21.5965 23.4058Q21.5489 22.6857 21.5489 22.1287Q21.5489 21.5716 21.5965 20.8515Q21.644 20.1314 21.7595 19.3501Q21.875 18.5689 22.0584 17.7808Q22.2418 16.9928 22.5272 16.2863Q22.8125 15.5798 23.1929 15.0091Q23.5734 14.4384 24.0761 14.1124L6.63043 19.1939Q6.48098 19.2346 6.42663 19.2346Q6.37228 19.2346 6.25 19.3433Q6.00543 19.5743 5.84239 19.914Q5.67935 20.2537 5.59103 20.6409Q5.50272 21.0281 5.46875 21.4153Q5.43478 21.8026 5.43478 22.1287Q5.43478 22.4548 5.46875 22.842Q5.50272 23.2292 5.59103 23.6164Q5.67935 24.0037 5.84239 24.3433Q6.00543 24.683 6.25 24.914Q6.37228 25.0227 6.42663 25.0227Q6.48098 25.0227 6.63043 25.0634L11.4266 26.4629Q11.2908 26.952 11.2908 27.4955Q11.2908 28.2971 11.6033 29.0037Q11.9158 29.7102 12.4457 30.2469Q12.9755 30.7836 13.6821 31.0961Q14.3886 31.4086 15.1902 31.4086Q15.8288 31.4086 16.4266 31.2047Q17.0245 31.0009 17.5136 30.6409Q18.0027 30.2808 18.3696 29.7713Q18.7364 29.2618 18.9266 28.6504L24.0761 30.1586ZM28.3832 31.4086Q29.2799 31.4086 29.9524 30.9058Q30.625 30.4031 31.1141 29.5879Q31.6033 28.7727 31.9226 27.7537Q32.2418 26.7346 32.4321 25.702Q32.6223 24.6694 32.697 23.7251Q32.7717 22.7808 32.7717 22.1287Q32.7717 21.4765 32.697 20.5322Q32.6223 19.5879 32.4321 18.5553Q32.2418 17.5227 31.9226 16.5037Q31.6033 15.4846 31.1141 14.6694Q30.625 13.8542 29.9524 13.3515Q29.2799 12.8488 28.3832 12.8488L27.4049 12.8488Q26.4946 12.8488 25.8152 13.3515Q25.1359 13.8542 24.6467 14.6626Q24.1576 15.4711 23.8383 16.4901Q23.519 17.5091 23.3356 18.5417Q23.1522 19.5743 23.0774 20.5186Q23.0027 21.4629 23.0027 22.1287Q23.0027 22.7944 23.0774 23.7387Q23.1522 24.683 23.3356 25.7156Q23.519 26.7482 23.8383 27.7673Q24.1576 28.7863 24.6467 29.5947Q25.1359 30.4031 25.8152 30.9058Q26.4946 31.4086 27.4049 31.4086L28.3832 31.4086ZM28.3832 13.827Q28.8451 13.827 29.2391 14.0852Q29.6332 14.3433 29.9592 14.7645Q30.2853 15.1857 30.5435 15.7156Q30.8016 16.2455 30.9918 16.7822Q31.1821 17.3189 31.3043 17.8216Q31.4266 18.3243 31.4946 18.6912Q31.644 19.5471 31.7187 20.4031Q31.7935 21.2591 31.7935 22.1287Q31.7935 22.9982 31.7187 23.8542Q31.644 24.7102 31.4946 25.5662Q31.4266 25.933 31.3043 26.4357Q31.1821 26.9384 30.9918 27.4751Q30.8016 28.0118 30.5435 28.5417Q30.2853 29.0716 29.9592 29.4928Q29.6332 29.914 29.2391 30.1721Q28.8451 30.4303 28.3832 30.4303Q27.894 30.4303 27.4864 30.1586Q27.0788 29.8868 26.7527 29.452Q26.4266 29.0173 26.1753 28.4602Q25.9239 27.9031 25.7337 27.3461Q25.5435 26.789 25.4212 26.2659Q25.2989 25.7428 25.231 25.3624Q25.0815 24.5471 25.0204 23.7455Q24.9592 22.9439 24.9592 22.1287Q24.9592 21.3134 25.0204 20.5118Q25.0815 19.7102 25.231 18.895Q25.2989 18.5145 25.4212 17.9914Q25.5435 17.4683 25.7337 16.9113Q25.9239 16.3542 26.1753 15.7971Q26.4266 15.2401 26.7527 14.8053Q27.0788 14.3705 27.4864 14.0988Q27.894 13.827 28.3832 13.827ZM15.1902 30.4303Q14.5924 30.4303 14.0557 30.1993Q13.519 29.9683 13.1182 29.5675Q12.7174 29.1667 12.4864 28.63Q12.2554 28.0933 12.2554 27.4955Q12.2554 27.1287 12.3641 26.7346L17.9891 28.3787Q17.8397 28.8406 17.5679 29.2211Q17.2962 29.6015 16.9293 29.8664Q16.5625 30.1314 16.1209 30.2808Q15.6793 30.4303 15.1902 30.4303Z" />
  </g>
</svg>