<?xml version="1.0" encoding="utf-8"?>
<svg width="32px" height="32px" viewBox="0 0 32 32" version="1.1" xmlns:xlink="http://www.w3.org/1999/xlink" xmlns="http://www.w3.org/2000/svg">
  <g id="Group">
    <path d="M17 15L17 0.999Q17 0.900607 16.9808 0.804105Q16.9616 0.707602 16.924 0.616699Q16.8863 0.525796 16.8316 0.443985Q16.777 0.362175 16.7074 0.2926Q16.6378 0.223026 16.556 0.168362Q16.4742 0.113698 16.3833 0.0760443Q16.2924 0.038391 16.1959 0.0191955Q16.0994 0 16.001 0L15.999 0Q15.9006 0 15.8041 0.0191955Q15.7076 0.038391 15.6167 0.0760443Q15.5258 0.113698 15.444 0.168362Q15.3622 0.223026 15.2926 0.2926Q15.223 0.362175 15.1684 0.443985Q15.1137 0.525796 15.076 0.616699Q15.0384 0.707602 15.0192 0.804105Q15 0.900607 15 0.999L15 15L0.999 15Q0.900607 15 0.804105 15.0192Q0.707602 15.0384 0.616699 15.076Q0.525796 15.1137 0.443985 15.1684Q0.362175 15.223 0.2926 15.2926Q0.223026 15.3622 0.168362 15.444Q0.113698 15.5258 0.0760443 15.6167Q0.038391 15.7076 0.0191955 15.8041Q0 15.9006 0 15.999L0 16.001Q0 16.0994 0.0191955 16.1959Q0.038391 16.2924 0.0760443 16.3833Q0.113698 16.4742 0.168362 16.556Q0.223026 16.6378 0.2926 16.7074Q0.362175 16.777 0.443985 16.8316Q0.525796 16.8863 0.616699 16.924Q0.707602 16.9616 0.804105 16.9808Q0.900607 17 0.999 17L15 17L15 31.001Q15 31.0994 15.0192 31.1959Q15.0384 31.2924 15.076 31.3833Q15.1137 31.4742 15.1684 31.556Q15.223 31.6378 15.2926 31.7074Q15.3622 31.777 15.444 31.8316Q15.5258 31.8863 15.6167 31.924Q15.7076 31.9616 15.8041 31.9808Q15.9006 32 15.999 32L16.001 32Q16.0994 32 16.1959 31.9808Q16.2924 31.9616 16.3833 31.924Q16.4742 31.8863 16.556 31.8316Q16.6378 31.777 16.7074 31.7074Q16.777 31.6378 16.8316 31.556Q16.8863 31.4742 16.924 31.3833Q16.9616 31.2924 16.9808 31.1959Q17 31.0994 17 31.001L17 17L31.001 17Q31.0994 17 31.1959 16.9808Q31.2924 16.9616 31.3833 16.924Q31.4742 16.8863 31.556 16.8316Q31.6378 16.777 31.7074 16.7074Q31.777 16.6378 31.8316 16.556Q31.8863 16.4742 31.924 16.3833Q31.9616 16.2924 31.9808 16.1959Q32 16.0994 32 16.001L32 15.999Q32 15.9006 31.9808 15.8041Q31.9616 15.7076 31.924 15.6167Q31.8863 15.5258 31.8316 15.444Q31.777 15.3622 31.7074 15.2926Q31.6378 15.223 31.556 15.1684Q31.4742 15.1137 31.3833 15.076Q31.2924 15.0384 31.1959 15.0192Q31.0994 15 31.001 15L17 15Z" id="Combined-Shape" fill="#151515" fill-rule="evenodd" stroke="none" />
  </g>
</svg>