<?xml version="1.0" encoding="utf-8"?>
<svg width="40px" height="40px" viewBox="0 0 40 40" version="1.1" xmlns:xlink="http://www.w3.org/1999/xlink" xmlns="http://www.w3.org/2000/svg">
  <g id="Ic_Alarm">
    <path d="M0 0L40 0L40 40L0 40L0 0Z" id="Rectangle" fill="none" fill-rule="evenodd" stroke="none" />
    <path d="M21.1393 9.90944L21.4135 9.94259L21.714 9.99138C25.4091 10.6725 27.9224 14.1509 27.3977 17.884L26.8552 21.7385L27.8711 23.0851C28.3074 23.6654 28.5207 24.38 28.4737 25.1238L28.4484 25.3727L28.4082 25.5871C28.0714 27.0591 26.6601 28.0364 25.1559 27.825L22.3545 27.4313C22.1837 28.2192 21.7354 28.923 21.0871 29.4114C20.3721 29.9499 19.4725 30.1823 18.5871 30.0575C17.7007 29.9336 16.8999 29.4626 16.361 28.748C15.872 28.0997 15.635 27.2992 15.6883 26.4944L12.8869 26.1007C12.1201 25.9929 11.4275 25.5849 10.9614 24.9665C10.4954 24.348 10.2941 23.5698 10.4075 22.7685L10.4511 22.5392C10.6125 21.8442 11.0129 21.2269 11.5844 20.7953L12.9295 19.7814L13.4721 15.9269C13.9997 12.173 17.4004 9.53039 21.1393 9.90944ZM17.2435 26.7129C17.2426 27.1055 17.3694 27.4902 17.6085 27.8071C17.8977 28.1907 18.3276 28.4436 18.8043 28.5102C19.2801 28.5772 19.7631 28.4525 20.147 28.1633C20.4639 27.9246 20.6918 27.59 20.7993 27.2127L17.2435 26.7129Z" id="Combined-Shape" fill="#575757" fill-rule="evenodd" stroke="none" />
  </g>
</svg>