<?xml version="1.0" encoding="utf-8"?>
<svg width="32px" height="32px" viewBox="0 0 32 32" version="1.1" xmlns:xlink="http://www.w3.org/1999/xlink" xmlns="http://www.w3.org/2000/svg">
  <g id="Ic--Like-Copy">
    <path d="M0 0L32 0L32 32L0 32L0 0Z" id="Path" fill="none" fill-rule="evenodd" stroke="none" />
    <g id="star-checkmark" transform="translate(3.3885295 3.9991655)">
      <path d="M6.55547 23.8142L6.55547 23.8142C5.77676 24.2319 4.8069 23.9392 4.3892 23.1605C4.2208 22.8465 4.16201 22.4853 4.22213 22.1342L5.37946 15.4368L0.478131 10.6915L0.478131 10.6915C-0.151912 10.0719 -0.160384 9.05888 0.459208 8.42883C0.703962 8.17995 1.02339 8.01794 1.3688 7.9675L8.1448 6.99016L11.1715 0.891497L11.1715 0.891497C11.5703 0.0947344 12.5396 -0.227835 13.3363 0.17102C13.648 0.327045 13.9008 0.579816 14.0568 0.891497L17.0835 6.99016L23.8595 7.9675L23.8595 7.9675C24.7338 8.09519 25.3392 8.90753 25.2115 9.78191C25.161 10.1273 24.999 10.4467 24.7501 10.6915L19.8461 15.4342L21.0035 22.1315L21.0035 22.1315C21.1542 23.0022 20.5706 23.8302 19.6999 23.981C19.3476 24.042 18.9851 23.9833 18.6701 23.8142L12.6115 20.6555L6.55547 23.8142Z" id="Path" fill="none" fill-rule="evenodd" stroke="#000000" stroke-width="2" stroke-linecap="round" stroke-linejoin="round" />
    </g>
  </g>
</svg>