<?xml version="1.0" encoding="utf-8"?>
<svg width="16px" height="16px" viewBox="0 0 16 16" version="1.1" xmlns:xlink="http://www.w3.org/1999/xlink" xmlns="http://www.w3.org/2000/svg">
  <defs>
    <filter id="filter_1">
      <feColorMatrix in="SourceGraphic" type="matrix" values="0 0 0 0 0.08235294 0 0 0 0 0.08235294 0 0 0 0 0.08235294 0 0 0 1 0" />
    </filter>
  </defs>
  <g id="Ic--Arrow" transform="matrix(-4.371139E-08 -1 1 -4.371139E-08 0 16)">
    <g id="Ic--Arrow" filter="url(#filter_1)">
      <path d="M0 0L16 0L16 16L0 16L0 0Z" transform="matrix(-1 0 0 1 16 0)" id="Path" fill="none" fill-rule="evenodd" stroke="none" />
      <path d="M0 0L6 0L6 10.6667L0 10.6667L0 0Z" transform="translate(5.3333335 2.6666667)" id="button-area" fill="#FFFFFF" fill-opacity="0.011764706" fill-rule="evenodd" stroke="none" />
      <path d="M1.44853 4.74074L5.22426 1.01162C5.45858 0.780197 5.45858 0.404988 5.22426 0.173566C4.98995 -0.0578554 4.61005 -0.0578554 4.37574 0.173566L0.175736 4.32171C-0.0585786 4.55314 -0.0585786 4.92834 0.175736 5.15977L4.37574 9.30791C4.61005 9.53934 4.98995 9.53934 5.22426 9.30791C5.45858 9.07649 5.45858 8.70128 5.22426 8.46986L1.44853 4.74074Z" transform="translate(5.3333335 3.2592592)" id="Path" fill="#000000" fill-rule="evenodd" stroke="#000000" stroke-width="0.5" />
    </g>
  </g>
</svg>