<?xml version="1.0" encoding="utf-8"?>
<svg width="34px" height="34px" viewBox="0 0 34 34" version="1.1" xmlns:xlink="http://www.w3.org/1999/xlink" xmlns="http://www.w3.org/2000/svg">
  <g id="Ic--Like-Copy-3" transform="translate(1 1)">
    <g id="question">
      <path d="M0 0L32 0L32 32L0 32L0 0Z" id="Path" fill="none" fill-rule="evenodd" stroke="none" />
      <path d="M16 28L16 28C9.372 28 4 22.628 4 16L4 16C4 9.372 9.372 4 16 4L16 4C22.628 4 28 9.372 28 16L28 16C28 22.628 22.628 28 16 28Z" id="Path" fill="none" fill-rule="evenodd" stroke="#000000" stroke-width="2" stroke-linecap="round" stroke-linejoin="round" />
      <path d="M16 17.6667L16 17.3333C16 16.244 16.6733 15.6533 17.348 15.2C18.0067 14.756 18.6667 14.1773 18.6667 13.1107C18.6667 11.6373 17.4733 10.444 16 10.444C14.5267 10.444 13.3333 11.6373 13.3333 13.1107" id="Path" fill="none" fill-rule="evenodd" stroke="#000000" stroke-width="2" stroke-linecap="round" stroke-linejoin="round" />
      <path d="M15.9987 21.3333C15.8147 21.3333 15.6653 21.4827 15.6667 21.6667C15.6667 21.8507 15.816 22 16 22C16.184 22 16.3333 21.8507 16.3333 21.6667C16.3333 21.4827 16.184 21.3333 15.9987 21.3333" id="Path" fill="none" fill-rule="evenodd" stroke="#000000" stroke-width="2" stroke-linecap="round" stroke-linejoin="round" />
    </g>
  </g>
</svg>