<?xml version="1.0" encoding="UTF-8"?>
<svg width="24px" height="24px" viewBox="0 0 24 24" version="1.1" xmlns="http://www.w3.org/2000/svg" xmlns:xlink="http://www.w3.org/1999/xlink">
    <title>Group 11 Copy</title>
    <g id="-----○-역량개발평가" stroke="none" stroke-width="1" fill="none" fill-rule="evenodd">
        <g id="R_01_1_역량개발평가-전체결과" transform="translate(-630.000000, -1399.000000)">
            <g id="Group-7" transform="translate(360.000000, 1251.000000)">
                <g id="Group-18" transform="translate(42.000000, 136.000000)">
                    <g id="Group-11-Copy" transform="translate(228.000000, 12.000000)">
                        <circle id="Oval" cx="12" cy="12" r="12"></circle>
                        <path d="M12,4 C12.5522847,4 13,4.44771525 13,5 L13,11 L19,11 C19.5522847,11 20,11.4477153 20,12 C20,12.5522847 19.5522847,13 19,13 L13,13 L13,19 C13,19.5522847 12.5522847,20 12,20 C11.4477153,20 11,19.5522847 11,19 L11,13 L5,13 C4.44771525,13 4,12.5522847 4,12 C4,11.4477153 4.44771525,11 5,11 L11,11 L11,5 C11,4.44771525 11.4477153,4 12,4 Z" id="Combined-Shape" fill="#9D2A2A" transform="translate(12.000000, 12.000000) rotate(45.000000) translate(-12.000000, -12.000000) "></path>
                    </g>
                </g>
            </g>
        </g>
    </g>
</svg>