<?xml version="1.0" encoding="UTF-8"?>
<svg width="24px" height="24px" viewBox="0 0 24 24" version="1.1" xmlns="http://www.w3.org/2000/svg" xmlns:xlink="http://www.w3.org/1999/xlink">
    <title>Ic / Eyes</title>
    <g id="자기주도학습-KB-멘토링/-KB-씀" stroke="none" stroke-width="1" fill="none" fill-rule="evenodd">
        <g id="O_06_7---자기주도학습---KB-씀(SSM)-우리의-이야기-이미지첨부" transform="translate(-217.000000, -1150.000000)">
            <g id="target-goal" transform="translate(217.000000, 1150.000000)">
                <polygon id="Path" points="0 0 24 0 24 24 0 24"></polygon>
                <path d="M18.0246914,4 C18.8519808,4 19.6030611,4.34784379 20.1457429,4.91765964 C20.6711996,5.46938919 21,6.23065322 21,7.07407407 L21,7.07407407 L21,14.8518519 C21,15.6952727 20.6711996,16.4565367 20.1457429,17.0082663 C19.6030611,17.5780821 18.8519808,17.9259259 18.0246914,17.9259259 L18.0246914,17.9259259 L14.4038801,17.9259259 L12,20.45 L9.59611993,17.9259259 L5.97530864,17.9259259 C5.14801918,17.9259259 4.39693889,17.5780821 3.85425713,17.0082663 C3.32880042,16.4565367 3,15.6952727 3,14.8518519 L3,14.8518519 L3,7.07407407 C3,6.23065322 3.32880042,5.46938919 3.85425713,4.91765964 C4.39693889,4.34784379 5.14801918,4 5.97530864,4 L5.97530864,4 Z" id="Path" stroke="#000000" stroke-width="2" stroke-linecap="round" stroke-linejoin="round"></path>
            </g>
        </g>
    </g>
</svg>