<?xml version="1.0" encoding="utf-8"?>
<svg width="24px" height="24px" viewBox="0 0 24 24" version="1.1" xmlns:xlink="http://www.w3.org/1999/xlink" xmlns="http://www.w3.org/2000/svg">
  <g id="Ic---사이버-Copy">
    <path d="M0 0L24 0L24 24L0 24L0 0Z" id="Area" fill="none" fill-rule="evenodd" stroke="none" />
    <g id="Ic---교재" transform="translate(4 3.5)">
      <path d="M16 15L3 15" id="Path" fill="none" fill-rule="evenodd" stroke="#000000" stroke-width="1.5" stroke-linecap="round" stroke-linejoin="round" />
      <path d="M3 18L15 18C15.552 18 16 17.552 16 17L16 12L3 12C1.343 12 0 13.343 0 15L0 15C0 16.657 1.343 18 3 18Z" id="Path" fill="none" fill-rule="evenodd" stroke="#000000" stroke-width="1.5" stroke-linecap="round" stroke-linejoin="round" />
      <path d="M3 0L3 12" id="Path" fill="none" fill-rule="evenodd" stroke="#000000" stroke-width="1.5" stroke-linecap="round" stroke-linejoin="round" />
      <path d="M0 15L0 3C0 1.343 1.343 0 3 0L15 0C15.552 0 16 0.448 16 1L16 12" id="Path" fill="none" fill-rule="evenodd" stroke="#000000" stroke-width="1.5" stroke-linecap="round" stroke-linejoin="round" />
    </g>
  </g>
</svg>