<?xml version="1.0" encoding="utf-8"?>
<svg width="40px" height="40px" viewBox="0 0 40 40" version="1.1" xmlns:xlink="http://www.w3.org/1999/xlink" xmlns="http://www.w3.org/2000/svg">
  <defs>
    <filter id="filter_1">
      <feColorMatrix in="SourceGraphic" type="matrix" values="0 0 0 0 0.5176471 0 0 0 0 0.53333336 0 0 0 0 0.54509807 0 0 0 1 0" />
    </filter>
  </defs>
  <g id="Ic_back-Copy-3">
    <path d="M19.999 0L20.001 0Q20.4919 0 20.9823 0.0240897Q21.4727 0.0481793 21.9612 0.0963006Q22.4498 0.144422 22.9355 0.216459Q23.4211 0.288496 23.9026 0.384275Q24.3841 0.480054 24.8604 0.599345Q25.3366 0.718635 25.8064 0.86115Q26.2762 1.00366 26.7385 1.16906Q27.2007 1.33446 27.6543 1.52233Q28.1079 1.71021 28.5517 1.92012Q28.9955 2.13003 29.4285 2.36146Q29.8614 2.59289 30.2825 2.84529Q30.7036 3.09768 31.1118 3.37044Q31.5201 3.64319 31.9144 3.93565Q32.3087 4.22811 32.6882 4.53956Q33.0677 4.85102 33.4315 5.18072Q33.7953 5.51042 34.1424 5.85757Q34.4896 6.20472 34.8193 6.56849Q35.149 6.93226 35.4604 7.31177Q35.7719 7.69128 36.0643 8.08561Q36.3568 8.47994 36.6296 8.88815Q36.9023 9.29636 37.1547 9.71746Q37.4071 10.1386 37.6385 10.5715Q37.87 11.0045 38.0799 11.4483Q38.2898 11.8921 38.4777 12.3457Q38.6655 12.7993 38.8309 13.2615Q38.9963 13.7238 39.1388 14.1936Q39.2814 14.6634 39.4006 15.1396Q39.5199 15.6159 39.6157 16.0974Q39.7115 16.5789 39.7835 17.0645Q39.8556 17.5502 39.9037 18.0388Q39.9518 18.5273 39.9759 19.0177Q40 19.5081 40 19.999L40 20.001Q40 20.4919 39.9759 20.9823Q39.9518 21.4727 39.9037 21.9612Q39.8556 22.4498 39.7835 22.9355Q39.7115 23.4211 39.6157 23.9026Q39.5199 24.3841 39.4007 24.8604Q39.2814 25.3366 39.1388 25.8064Q38.9963 26.2762 38.8309 26.7385Q38.6655 27.2007 38.4777 27.6543Q38.2898 28.1079 38.0799 28.5517Q37.87 28.9955 37.6385 29.4285Q37.4071 29.8614 37.1547 30.2825Q36.9023 30.7036 36.6296 31.1118Q36.3568 31.5201 36.0643 31.9144Q35.7719 32.3087 35.4604 32.6882Q35.149 33.0677 34.8193 33.4315Q34.4896 33.7953 34.1424 34.1424Q33.7953 34.4896 33.4315 34.8193Q33.0677 35.149 32.6882 35.4604Q32.3087 35.7719 31.9144 36.0643Q31.5201 36.3568 31.1118 36.6296Q30.7036 36.9023 30.2825 37.1547Q29.8614 37.4071 29.4285 37.6385Q28.9955 37.87 28.5517 38.0799Q28.1079 38.2898 27.6543 38.4777Q27.2007 38.6655 26.7385 38.8309Q26.2762 38.9963 25.8064 39.1388Q25.3366 39.2814 24.8604 39.4006Q24.3841 39.5199 23.9026 39.6157Q23.4211 39.7115 22.9355 39.7835Q22.4498 39.8556 21.9612 39.9037Q21.4727 39.9518 20.9823 39.9759Q20.4919 40 20.001 40L19.999 40Q19.5081 40 19.0177 39.9759Q18.5273 39.9518 18.0388 39.9037Q17.5502 39.8556 17.0645 39.7835Q16.5789 39.7115 16.0974 39.6157Q15.6159 39.5199 15.1396 39.4007Q14.6634 39.2814 14.1936 39.1388Q13.7238 38.9963 13.2615 38.8309Q12.7993 38.6655 12.3457 38.4777Q11.8921 38.2898 11.4483 38.0799Q11.0045 37.87 10.5715 37.6385Q10.1386 37.4071 9.71746 37.1547Q9.29636 36.9023 8.88815 36.6296Q8.47994 36.3568 8.08561 36.0643Q7.69128 35.7719 7.31177 35.4604Q6.93226 35.149 6.56849 34.8193Q6.20472 34.4896 5.85757 34.1424Q5.51042 33.7953 5.18072 33.4315Q4.85102 33.0677 4.53956 32.6882Q4.22811 32.3087 3.93565 31.9144Q3.64319 31.5201 3.37044 31.1118Q3.09768 30.7036 2.84529 30.2825Q2.59289 29.8614 2.36146 29.4285Q2.13003 28.9955 1.92012 28.5517Q1.71021 28.1079 1.52233 27.6543Q1.33446 27.2007 1.16906 26.7385Q1.00366 26.2762 0.86115 25.8064Q0.718635 25.3366 0.599345 24.8604Q0.480054 24.3841 0.384275 23.9026Q0.288496 23.4211 0.216459 22.9355Q0.144422 22.4498 0.0963006 21.9612Q0.0481793 21.4727 0.0240897 20.9823Q0 20.4919 0 20.001L0 19.999Q0 19.5081 0.0240897 19.0177Q0.0481793 18.5273 0.0963006 18.0388Q0.144422 17.5502 0.216459 17.0645Q0.288496 16.5789 0.384275 16.0974Q0.480054 15.6159 0.599345 15.1396Q0.718635 14.6634 0.86115 14.1936Q1.00366 13.7238 1.16906 13.2615Q1.33446 12.7993 1.52233 12.3457Q1.71021 11.8921 1.92012 11.4483Q2.13003 11.0045 2.36146 10.5715Q2.59289 10.1386 2.84529 9.71746Q3.09768 9.29636 3.37044 8.88815Q3.64319 8.47994 3.93565 8.08561Q4.22811 7.69128 4.53956 7.31177Q4.85102 6.93226 5.18072 6.56849Q5.51042 6.20472 5.85757 5.85757Q6.20472 5.51042 6.56849 5.18072Q6.93226 4.85102 7.31177 4.53956Q7.69128 4.22811 8.08561 3.93565Q8.47994 3.64319 8.88815 3.37044Q9.29636 3.09768 9.71746 2.84529Q10.1386 2.59289 10.5715 2.36146Q11.0045 2.13003 11.4483 1.92012Q11.8921 1.71021 12.3457 1.52233Q12.7993 1.33446 13.2615 1.16906Q13.7238 1.00366 14.1936 0.86115Q14.6634 0.718635 15.1396 0.599345Q15.6159 0.480054 16.0974 0.384275Q16.5789 0.288496 17.0645 0.216459Q17.5502 0.144422 18.0388 0.0963006Q18.5273 0.0481793 19.0177 0.0240897Q19.5081 0 19.999 0Z" id="Rectangle-Copy" fill="#84888B" fill-opacity="0.1" fill-rule="evenodd" stroke="none" />
    <g id="Ic--Arrow" transform="translate(12 12)">
      <g id="Ic--Arrow" filter="url(#filter_1)">
        <path d="M16 0L0 0L0 16L16 16L16 0Z" id="Path" fill="none" fill-rule="evenodd" stroke="none" />
        <path d="M5.33333 2.66667L11.3333 2.66667L11.3333 13.3333L5.33333 13.3333L5.33333 2.66667Z" id="button-area" fill="#FFFFFF" fill-opacity="0.011764706" fill-rule="evenodd" stroke="none" />
        <path d="M6.78186 8L10.5576 4.27088C10.7919 4.03946 10.7919 3.66425 10.5576 3.43283C10.3233 3.2014 9.94338 3.2014 9.70907 3.43283L5.50907 7.58097C5.27476 7.8124 5.27476 8.1876 5.50907 8.41903L9.70907 12.5672C9.94338 12.7986 10.3233 12.7986 10.5576 12.5672C10.7919 12.3358 10.7919 11.9605 10.5576 11.7291L6.78186 8Z" id="Path" fill="#000000" fill-rule="evenodd" stroke="#000000" stroke-width="1" />
      </g>
    </g>
  </g>
</svg>