<?xml version="1.0" encoding="utf-8"?>
<svg width="32px" height="32px" viewBox="0 0 32 32" version="1.1" xmlns:xlink="http://www.w3.org/1999/xlink" xmlns="http://www.w3.org/2000/svg">
  <defs>
    <filter id="filter_1">
      <feColorMatrix in="SourceGraphic" type="matrix" values="0 0 0 0 0 0 0 0 0 0 0 0 0 0 0 0 0 0 1 0" />
    </filter>
  </defs>
  <g id="Group-10">
    <g id="Ic---close" filter="url(#filter_1)">
      <path d="M0 0L32 0L32 32L0 32L0 0Z" id="Path" fill="none" fill-rule="evenodd" stroke="none" />
      <path d="M7.51472 24.4853C12.201 29.1715 19.799 29.1715 24.4853 24.4853C29.1715 19.799 29.1715 12.201 24.4853 7.51472C19.799 2.82843 12.201 2.82843 7.51472 7.51472C2.82843 12.201 2.82843 19.799 7.51472 24.4853ZM13.3872 11.6479L15.999 14.2597L18.6109 11.6479Q18.7839 11.4749 19.0099 11.3813Q19.2359 11.2877 19.4805 11.2877Q19.7251 11.2877 19.9511 11.3813Q20.1771 11.4749 20.35 11.6479L20.3515 11.6493Q20.5244 11.8223 20.618 12.0482Q20.7116 12.2742 20.7117 12.5189Q20.7117 12.7635 20.618 12.9895Q20.5244 13.2155 20.3515 13.3884L17.7396 16.0003L20.3509 18.6116Q20.3936 18.6543 20.4319 18.701Q20.4702 18.7477 20.5038 18.7979Q20.5374 18.8482 20.5658 18.9014Q20.5943 18.9547 20.6174 19.0105Q20.6406 19.0663 20.6581 19.1242Q20.6756 19.182 20.6874 19.2412Q20.6992 19.3005 20.7051 19.3606Q20.711 19.4207 20.711 19.4811Q20.711 19.5416 20.7051 19.6017Q20.6992 19.6618 20.6874 19.7211Q20.6756 19.7803 20.6581 19.8381Q20.6406 19.8959 20.6174 19.9518Q20.5943 20.0076 20.5658 20.0608Q20.5374 20.1141 20.5038 20.1644Q20.4702 20.2146 20.4319 20.2613Q20.3936 20.308 20.3509 20.3507L20.3494 20.3521Q20.3067 20.3949 20.26 20.4332Q20.2133 20.4715 20.1631 20.5051Q20.1128 20.5386 20.0596 20.5671Q20.0063 20.5956 19.9505 20.6187Q19.8947 20.6418 19.8368 20.6594Q19.779 20.6769 19.7198 20.6887Q19.6605 20.7005 19.6004 20.7064Q19.5403 20.7123 19.4799 20.7123Q19.4194 20.7123 19.3593 20.7064Q19.2992 20.7005 19.2399 20.6887Q19.1807 20.6769 19.1229 20.6594Q19.0651 20.6418 19.0092 20.6187Q18.9534 20.5956 18.9002 20.5671Q18.8469 20.5386 18.7966 20.5051Q18.7464 20.4715 18.6997 20.4332Q18.653 20.3949 18.6103 20.3521L15.999 17.7409L13.3878 20.3521Q13.2148 20.5251 12.9888 20.6187Q12.7628 20.7123 12.5182 20.7123Q12.2736 20.7123 12.0476 20.6187Q11.8216 20.5251 11.6486 20.3521L11.6472 20.3507Q11.4742 20.1778 11.3806 19.9518Q11.287 19.7258 11.287 19.4811Q11.287 19.2365 11.3806 19.0105Q11.4742 18.7845 11.6472 18.6116L14.2585 16.0003L11.6466 13.3884Q11.6039 13.3457 11.5655 13.299Q11.5272 13.2523 11.4936 13.2021Q11.4601 13.1519 11.4316 13.0986Q11.4031 13.0453 11.38 12.9895Q11.3569 12.9337 11.3393 12.8758Q11.3218 12.818 11.31 12.7588Q11.2982 12.6995 11.2923 12.6394Q11.2864 12.5793 11.2864 12.5189Q11.2864 12.4584 11.2923 12.3983Q11.2982 12.3382 11.31 12.2789Q11.3218 12.2197 11.3393 12.1619Q11.3569 12.1041 11.38 12.0482Q11.4031 11.9924 11.4316 11.9392Q11.4601 11.8859 11.4936 11.8356Q11.5272 11.7854 11.5655 11.7387Q11.6039 11.692 11.6466 11.6493L11.648 11.6479Q11.6907 11.6051 11.7374 11.5668Q11.7841 11.5285 11.8344 11.4949Q11.8846 11.4614 11.9379 11.4329Q11.9911 11.4044 12.047 11.3813Q12.1028 11.3582 12.1606 11.3406Q12.2184 11.3231 12.2777 11.3113Q12.3369 11.2995 12.397 11.2936Q12.4572 11.2877 12.5176 11.2877Q12.578 11.2877 12.6381 11.2936Q12.6982 11.2995 12.7575 11.3113Q12.8167 11.3231 12.8746 11.3406Q12.9324 11.3582 12.9882 11.3813Q13.044 11.4044 13.0973 11.4329Q13.1506 11.4614 13.2008 11.4949Q13.251 11.5285 13.2977 11.5668Q13.3444 11.6051 13.3872 11.6479Z" id="Combined-Shape" fill="#FFFFFF" fill-opacity="0.4" fill-rule="evenodd" stroke="none" />
    </g>
  </g>
</svg>