<?xml version="1.0" encoding="UTF-8"?>
<svg width="16px" height="16px" viewBox="0 0 16 16" version="1.1" xmlns="http://www.w3.org/2000/svg" xmlns:xlink="http://www.w3.org/1999/xlink">
    <title>g</title>
    <g id="Symbol" stroke="none" stroke-width="1" fill="none" fill-rule="evenodd">
        <g id="Group-2">
            <polygon id="Path" points="0 0 16 0 16 16 0 16"></polygon>
            <path d="M1.4338861,8.35753846 C1.29981575,8.1385641 1.29981575,7.8614359 1.4338861,7.64246154 C2.84495801,5.32851282 5.42266419,3.33333333 8.00037036,3.33333333 C10.5780765,3.33333333 13.155042,5.32851282 14.5661139,7.64174359 C14.7001843,7.8614359 14.7001843,8.13928205 14.5661139,8.35897436 C13.155042,10.6714872 10.5780765,12.6666667 8.00037036,12.6666667 C5.42266419,12.6666667 2.84495801,10.6714872 1.4338861,8.35753846 Z" id="Path" stroke="#FFFFFF" stroke-width="1.33333333" stroke-linecap="round" stroke-linejoin="round"></path>
            <path d="M9.57143783,6.47723077 C10.4395619,7.31866667 10.4395619,8.68205128 9.57143783,9.52348718 C8.7033138,10.3649231 7.2966862,10.3649231 6.42856217,9.52348718 C5.56043814,8.68205128 5.56043814,7.31866667 6.42856217,6.47723077 C7.2966862,5.63579487 8.70405452,5.63579487 9.57143783,6.47723077" id="Path" stroke="#FFFFFF" stroke-width="1.33333333" stroke-linecap="round" stroke-linejoin="round"></path>
        </g>
    </g>
</svg>