<?xml version="1.0" encoding="UTF-8"?>
<svg width="32px" height="32px" viewBox="0 0 32 32" version="1.1" xmlns="http://www.w3.org/2000/svg" xmlns:xlink="http://www.w3.org/1999/xlink">
    <title>ic_edit</title>
    <g id="ðŸš—-ë§ˆì´íŽ˜ì´ì§€" stroke="none" stroke-width="1" fill="none" fill-rule="evenodd">
        <g id="Z_08_1_ë§ˆì´íŽ˜ì´ì§€---ë‹´ê¸°-(í´ë¼ìš°ë“œEASY)" transform="translate(-1648.000000, -206.000000)">
            <g id="Btn-/-Ic-Text-Copy" transform="translate(1636.000000, 197.000000)">
                <g id="settings-round" transform="translate(12.000000, 9.000000)">
                    <g id="Group" transform="translate(5.333333, 5.333333)" stroke="#545045" stroke-width="2">
                        <path d="M7.56238037,19.6872592 L8.25839682,21.1769629 C8.68111489,22.0829347 9.62504327,22.6666667 10.6666667,22.6666667 L10.6666667,22.6666667 C11.7082901,22.6666667 12.6522184,22.0829347 13.0749365,21.1769629 L13.770953,19.6872592 C14.0187168,19.1586602 14.4354827,18.7179723 14.9618556,18.428 L14.9618556,18.428 C15.4915507,18.1372256 16.1043254,18.0133663 16.7124826,18.0741481 L18.4154734,18.2466666 C19.4511468,18.3509188 20.4541507,17.8647761 20.9745909,17.0062963 L20.9745909,17.0062963 C21.495706,16.1483222 21.4365769,15.0786853 20.8237432,14.2774815 L19.8154456,12.959037 C19.4564133,12.4860804 19.264579,11.9167905 19.2676304,11.3333333 L19.2676304,11.3333333 C19.267519,10.7514662 19.4611558,10.1845303 19.8207385,9.71392593 L20.8290361,8.39548149 C21.4418698,7.59427769 21.5009989,6.52464073 20.9798838,5.66666668 L20.9798838,5.66666668 C20.4594436,4.80818683 19.4564397,4.32204413 18.4207663,4.42629632 L16.7177755,4.59881483 C16.1096183,4.6595967 15.4968436,4.53573738 14.9671485,4.24496298 L14.9671485,4.24496298 C14.4397297,3.95335245 14.0228484,3.51033857 13.7762459,2.97940743 L13.0749365,1.48970373 C12.6522184,0.583731918 11.7082901,0 10.6666667,0 L10.6666667,0 C9.62504327,0 8.68111489,0.583731918 8.25839682,1.48970373 L7.56238037,2.97940743 C7.3157778,3.51033857 6.89889652,3.95335245 6.3714777,4.24496298 L6.3714777,4.24496298 C5.84178264,4.53573738 5.22900793,4.6595967 4.62085077,4.59881483 L2.91256705,4.42629632 C1.87689367,4.32204413 0.873889774,4.80818683 0.353449533,5.66666668 L0.353449533,5.66666668 C-0.16766557,6.52464073 -0.108536513,7.59427769 0.504297205,8.39548149 L1.5125948,9.71392593 C1.8721775,10.1845303 2.06581429,10.7514662 2.06570293,11.3333333 L2.06570293,11.3333333 C2.06581429,11.9152005 1.8721775,12.4821364 1.5125948,12.9527407 L0.504297205,14.2711852 C-0.108536513,15.072389 -0.16766557,16.1420259 0.353449533,17 L0.353449533,17 C0.874377363,17.8579908 1.87702259,18.3439596 2.91256705,18.2403703 L4.61555787,18.0678518 C5.22371503,18.00707 5.83648974,18.1309293 6.3661848,18.4217037 L6.3661848,18.4217037 C6.89557439,18.712488 7.31439188,19.1555901 7.56238037,19.6872592 L7.56238037,19.6872592 Z" id="Path"></path>
                        <ellipse id="Oval" stroke-linecap="round" stroke-linejoin="round" cx="10.6666667" cy="11.3333333" rx="3.50257708" ry="3.33325925"></ellipse>
                    </g>
                    <polygon id="Path" points="0 0 32 0 32 32 0 32"></polygon>
                </g>
            </g>
        </g>
    </g>
</svg>