<?xml version="1.0" encoding="UTF-8"?>
<svg width="56px" height="56px" viewBox="0 0 56 56" version="1.1" xmlns="http://www.w3.org/2000/svg" xmlns:xlink="http://www.w3.org/1999/xlink">
    <title>Ic / GNB / Alarm-enabled</title>
    <g id="Ic-/-GNB-/-Alarm-enabled" stroke="none" stroke-width="1" fill="none" fill-rule="evenodd">
        <g id="Group-2">
            <g id="GNB-/-Alarm" transform="translate(10.683413, 10.683413)">
                <g id="Active" transform="translate(24.316587, 3.316587)" fill="#FFBC00">
                    <circle cx="3.5" cy="3.5" r="3.5"></circle>
                </g>
                <g id="Alarm" transform="translate(17.316587, 17.316587) rotate(16.000000) translate(-17.316587, -17.316587) translate(3.316587, 3.316587)">
                    <polygon id="Path" points="0 0 28 0 28 28 0 28"></polygon>
                    <g id="Group" stroke-linecap="round" stroke-linejoin="round" transform="translate(5.541667, 3.500000)" stroke="#545045" stroke-width="2.625">
                        <path d="M5.78433333,18.7763333 L5.78433333,19.2021667 C5.78433333,20.678 6.98133333,21.875 8.45833333,21.875 L8.45833333,21.875 C9.93533333,21.875 11.1323333,20.678 11.1323333,19.201 L11.1323333,18.7751667" id="Path"></path>
                        <path d="" id="Path" fill="#545045"></path>
                        <path d="M2.11516667,8.386 L2.11516667,8.386 C2.11516667,5.46583333 4.48233333,3.09983333 7.40133333,3.09983333 L9.5165,3.09983333 C12.4366667,3.09983333 14.8026667,5.467 14.8026667,8.386 L14.8026667,8.386 L14.8026667,11.6491667 C14.8026667,12.2675 15.0488333,12.8613333 15.4863333,13.2988333 L16.2341667,14.0466667 C16.6716667,14.4841667 16.9178333,15.078 16.9178333,15.6963333 L16.9178333,15.6963333 C16.9178333,16.9143333 15.9308333,17.9013333 14.7128333,17.9013333 L2.205,17.9013333 C0.987,17.9013333 0,16.9143333 0,15.6963333 L0,15.6963333 C0,15.078 0.246166667,14.4841667 0.683666667,14.0466667 L1.4315,13.2988333 C1.869,12.8613333 2.11516667,12.2675 2.11516667,11.6491667 L2.11516667,8.386 Z" id="Path" fill="#545045"></path>
                    </g>
                </g>
            </g>
            <rect id="Rectangle" x="0" y="0" width="56" height="56"></rect>
        </g>
    </g>
</svg>