<?xml version="1.0" encoding="UTF-8"?>
<svg width="56px" height="56px" viewBox="0 0 56 56" version="1.1" xmlns="http://www.w3.org/2000/svg" xmlns:xlink="http://www.w3.org/1999/xlink">
    <title>Ic / GNB / Alarm Copy</title>
    <g id="Symbol" stroke="none" stroke-width="1" fill="none" fill-rule="evenodd">
        <g id="GNB-/-KB" transform="translate(-1640.000000, -8.000000)">
            <g id="Ic-/-GNB-/-Alarm-Copy" transform="translate(1640.000000, 8.000000)">
                <g id="Over" fill="#F7F4F0" fill-opacity="0">
                    <rect x="0" y="0" width="56" height="56" rx="16"></rect>
                </g>
                <g id="Ic-/-Calendar" transform="translate(14.875000, 14.875000)">
                    <polygon id="Path" points="0 0 26.25 0 26.25 26.25 0 26.25"></polygon>
                    <g id="icon_gnb_calendar" transform="translate(0.820312, 0.820312)" fill="#545045" fill-rule="nonzero">
                        <path d="M22.4560127,11.3041764 L22.4560547,20.7128874 C22.4560547,22.3556138 21.1251624,23.6865612 19.4823809,23.6865612 L5.12695723,23.6865612 C3.48423369,23.6865612 2.15332031,22.3555943 2.15332031,20.7128874 L2.1530127,11.3041764 L22.4560127,11.3041764 Z M16.4062508,2.35839528 C16.9159277,2.35839528 17.3291024,2.77157 17.3291024,3.28124684 L17.3290127,4.40839528 L19.4823809,4.40917645 C21.1251769,4.40917645 22.4560547,5.74005589 22.4560547,7.38281336 L22.4560127,9.92017645 L2.1530127,9.92017645 L2.15332031,7.38281336 C2.15332031,5.79874458 3.3908526,4.50463841 4.95218927,4.41422275 L5.12695723,4.40917645 L7.2800127,4.40839528 L7.28027385,3.28124684 C7.28027385,2.77157 7.69344857,2.35839528 8.20312541,2.35839528 C8.71280225,2.35839528 9.12597697,2.77157 9.12597697,3.28124684 L9.1250127,4.40839528 L15.4830127,4.40839528 L15.4833993,3.28124684 C15.4833993,2.77157 15.896574,2.35839528 16.4062508,2.35839528 Z" id="Combined-Shape"></path>
                    </g>
                </g>
            </g>
        </g>
    </g>
</svg>