<?xml version="1.0" encoding="utf-8"?>
<svg width="15px" height="15px" viewBox="0 0 15 15" version="1.1" xmlns:xlink="http://www.w3.org/1999/xlink" xmlns="http://www.w3.org/2000/svg">
  <defs>
    <filter id="filter_1">
      <feColorMatrix in="SourceGraphic" type="matrix" values="0 0 0 0 0.5176471 0 0 0 0 0.53333336 0 0 0 0 0.54509807 0 0 0 1 0" />
    </filter>
    <path d="M12 19.5C16.1421 19.5 19.5 16.1421 19.5 12C19.5 7.85786 16.1421 4.5 12 4.5C7.85786 4.5 4.5 7.85786 4.5 12C4.5 16.1421 7.85786 19.5 12 19.5Z" id="path_1" />
    <clipPath id="clip_1">
      <use xlink:href="#path_1" />
    </clipPath>
  </defs>
  <g id="Ic--Download" transform="translate(-4.5 -4.5)" filter="url(#filter_1)">
    <path d="M11.8115 8.0625L12.1885 8.0625Q12.2623 8.0625 12.3346 8.07689Q12.407 8.09128 12.4751 8.11951Q12.5433 8.14774 12.6046 8.18873Q12.666 8.22971 12.7181 8.28188Q12.7703 8.33404 12.8113 8.39538Q12.8523 8.45671 12.8805 8.52487Q12.9087 8.59302 12.9231 8.66538Q12.9375 8.73773 12.9375 8.8115L12.9375 12.5635Q12.9375 12.6373 12.9231 12.7096Q12.9087 12.782 12.8805 12.8501Q12.8523 12.9183 12.8113 12.9796Q12.7703 13.041 12.7181 13.0931Q12.666 13.1453 12.6046 13.1863Q12.5433 13.2273 12.4751 13.2555Q12.407 13.2837 12.3346 13.2981Q12.2623 13.3125 12.1885 13.3125L11.8115 13.3125Q11.7377 13.3125 11.6654 13.2981Q11.593 13.2837 11.5249 13.2555Q11.4567 13.2273 11.3954 13.1863Q11.334 13.1453 11.2819 13.0931Q11.2297 13.041 11.1887 12.9796Q11.1477 12.9183 11.1195 12.8501Q11.0913 12.782 11.0769 12.7096Q11.0625 12.6373 11.0625 12.5635L11.0625 8.8115Q11.0625 8.73773 11.0769 8.66538Q11.0913 8.59302 11.1195 8.52487Q11.1477 8.45671 11.1887 8.39538Q11.2297 8.33404 11.2819 8.28188Q11.334 8.22971 11.3954 8.18873Q11.4567 8.14774 11.5249 8.11951Q11.593 8.09128 11.6654 8.07689Q11.7377 8.0625 11.8115 8.0625Z" id="Rectangle" fill="#000000" fill-rule="evenodd" stroke="none" />
    <path d="M12 15.9375C12.5178 15.9375 12.9375 15.5178 12.9375 15C12.9375 14.4822 12.5178 14.0625 12 14.0625C11.4822 14.0625 11.0625 14.4822 11.0625 15C11.0625 15.5178 11.4822 15.9375 12 15.9375Z" id="Oval" fill="#000000" fill-rule="evenodd" stroke="none" />
    <g id="Oval">
      <g clip-path="url(#clip_1)">
        <use xlink:href="#path_1" fill="none" stroke="#000000" stroke-width="3" />
      </g>
    </g>
  </g>
</svg>