<?xml version="1.0" encoding="utf-8"?>
<svg width="32px" height="32px" viewBox="0 0 32 32" version="1.1" xmlns:xlink="http://www.w3.org/1999/xlink" xmlns="http://www.w3.org/2000/svg">
  <defs>
    <filter id="filter_1">
      <feColorMatrix in="SourceGraphic" type="matrix" values="0 0 0 0 0.08235294 0 0 0 0 0.08235294 0 0 0 0 0.08235294 0 0 0 1 0" color-interpolation-filters="sRGB" />
    </filter>
    <filter id="filter_2">
      <feColorMatrix in="SourceGraphic" type="matrix" values="0 0 0 0 1 0 0 0 0 1 0 0 0 0 1 0 0 0 1 0" color-interpolation-filters="sRGB" />
    </filter>
  </defs>
  <g id="Ic--Like-Copy-4" filter="url(#filter_2)">
    <path d="M0 0L32 0L32 32L0 32L0 0Z" id="Path" fill="none" fill-rule="evenodd" stroke="none" />
    <g id="Group-5" transform="translate(3 4)">
      <g id="Group" filter="url(#filter_1)">
        <path d="M18.7076 0C20.5719 0 22.0939 1.45894 22.1901 3.29608L22.1949 3.48101L22.1949 9.81013C22.1949 10.3344 21.7693 10.7595 21.2443 10.7595C20.7567 10.7595 20.3549 10.393 20.3 9.92084L20.2936 9.81013L20.2936 3.48101C20.2936 2.65275 19.6569 1.97372 18.8445 1.90454L18.7076 1.89873L3.48737 1.89873C2.65689 1.89873 1.97648 2.53417 1.90715 3.34443L1.90134 3.48101L1.90134 21.2025C1.90134 22.0308 2.53804 22.7098 3.35043 22.779L3.48737 22.7848L9.82912 22.7848C10.3542 22.7848 10.7798 23.2099 10.7798 23.7342C10.7798 24.221 10.4128 24.6223 9.93999 24.6772L9.82912 24.6835L3.48737 24.6835C1.62308 24.6835 0.101086 23.2246 0.00483272 21.3875L0 21.2025L0 3.48101C0 1.61986 1.46185 0.100885 3.30212 0.00482311L3.48737 0L18.7076 0Z" id="Path" fill="#8A8A8A" stroke="none" />
        <path d="M14.9025 5.06329C15.4276 5.06329 15.8532 5.48834 15.8532 6.01266C15.8532 6.49953 15.4862 6.9008 15.0134 6.95564L14.9025 6.96203L7.29242 6.96203C6.76738 6.96203 6.34175 6.53698 6.34175 6.01266C6.34175 5.52579 6.70875 5.12452 7.18155 5.06968L7.29242 5.06329L14.9025 5.06329Z" id="Path" fill="#8A8A8A" stroke="none" />
        <path d="M17.3234 17.6073C18.3933 16.5379 20.1021 16.4951 21.2231 17.4789L21.3577 17.6051C22.4297 18.6747 22.4725 20.3804 21.488 21.4993L21.3596 21.636C20.2453 22.7481 18.4382 22.7481 17.3239 21.636C16.2092 20.5236 16.2092 18.7192 17.3234 17.6073ZM19.9254 18.8701C19.5519 18.5799 19.0116 18.6063 18.6679 18.9498C18.2963 19.3206 18.2963 19.9222 18.6679 20.293C19.0398 20.6642 19.6437 20.6642 20.0156 20.293C20.3586 19.9507 20.385 19.4118 20.0947 19.0392L20.0154 18.9484L19.9254 18.8701Z" id="Path" fill="#8A8A8A" stroke="none" />
        <path d="M19.3418 14.2405C16.6447 14.2405 14.1863 15.6999 13.0632 17.9934L12.9629 18.217C12.7734 18.6873 12.6835 19.1514 12.6835 19.6203C12.6835 20.1836 12.8133 20.7391 13.064 21.2487L13.1799 21.4732C14.3664 23.6485 16.7473 25 19.3418 25C22.0369 25 24.4955 23.5401 25.62 21.2477L25.7206 21.0235C25.9101 20.5533 26 20.0891 26 19.6203C26 19.0569 25.8702 18.5014 25.6195 17.9918L25.5036 17.7673C24.3171 15.592 21.9362 14.2405 19.3418 14.2405ZM19.3418 16.1392C21.2535 16.1392 22.9874 17.1235 23.8242 18.6572L23.9216 18.8461C24.0358 19.0787 24.0987 19.3478 24.0987 19.6203C24.0987 19.8468 24.0552 20.0713 23.9698 20.2842L23.8978 20.4439C23.1144 22.0395 21.3262 23.1013 19.3418 23.1013C17.43 23.1013 15.6961 22.117 14.8594 20.5833L14.7619 20.3944C14.6477 20.1619 14.5848 19.8927 14.5848 19.6203C14.5848 19.3937 14.6283 19.1692 14.7138 18.9563L14.7857 18.7966C15.568 17.2004 17.3556 16.1392 19.3418 16.1392Z" id="Path" fill="#8A8A8A" stroke="none" />
      </g>
    </g>
  </g>
</svg>