<?xml version="1.0" encoding="utf-8"?>
<svg width="32px" height="32px" viewBox="0 0 32 32" version="1.1" xmlns:xlink="http://www.w3.org/1999/xlink" xmlns="http://www.w3.org/2000/svg">
  <defs>
    <filter id="filter_1">
      <feColorMatrix in="SourceGraphic" type="matrix" values="0 0 0 0 0.08235294 0 0 0 0 0.08235294 0 0 0 0 0.08235294 0 0 0 1 0" color-interpolation-filters="sRGB" />
    </filter>
  </defs>
  <g id="Ic--팔로우" filter="url(#filter_1)">
    <g id="Play">
      <path d="M0 0L32 0L32 32L0 32L0 0Z" id="Path" fill="none" fill-rule="evenodd" stroke="none" />
      <path d="M28 16L28 16C28 22.628 22.628 28 16 28L16 28C9.372 28 4 22.628 4 16L4 16C4 9.372 9.372 4 16 4L16 4C22.628 4 28 9.372 28 16Z" id="Path" fill="none" fill-rule="evenodd" stroke="#151515" stroke-width="2" stroke-linecap="round" stroke-linejoin="round" />
      <path d="M14.588 12.0773L19.764 15.1387C20.4187 15.5253 20.4187 16.4733 19.764 16.86L14.588 19.9213C13.9213 20.316 13.0787 19.8347 13.0787 19.06L13.0787 12.9387C13.0787 12.164 13.9213 11.6827 14.588 12.0773L14.588 12.0773Z" id="Path" fill="none" fill-rule="evenodd" stroke="#151515" stroke-width="2" stroke-linecap="round" stroke-linejoin="round" />
    </g>
  </g>
</svg>