<?xml version="1.0" encoding="utf-8"?>
<svg width="21.666504px" height="21.666656px" viewBox="0 0 21.666504 21.666656" version="1.1" xmlns:xlink="http://www.w3.org/1999/xlink" xmlns="http://www.w3.org/2000/svg">
  <g id="Research" transform="translate(0.83325195 0.83332825)">
    <path d="M20 20L0 20L-1.90735e-06 1.90735e-06L20 0L20 20Z" id="Path" fill="none" fill-rule="evenodd" stroke="none" />
    <g id="Group" transform="translate(2.5 2.5)">
      <path d="M4.16667 5.83333L1.66667 5.83333C0.745833 5.83333 0 5.0875 0 4.16667L0 1.66667C0 0.745833 0.745833 0 1.66667 0L4.16667 0C5.0875 0 5.83333 0.745833 5.83333 1.66667L5.83333 4.16667C5.83333 5.0875 5.0875 5.83333 4.16667 5.83333Z" id="Path" fill="#FFFFFF" fill-rule="evenodd" stroke="#FFFFFF" stroke-width="0.8333333" stroke-linecap="round" stroke-linejoin="round" />
      <path d="M13.3333 5.83333L10.8333 5.83333C9.9125 5.83333 9.16667 5.0875 9.16667 4.16667L9.16667 1.66667C9.16667 0.745833 9.9125 0 10.8333 0L13.3333 0C14.2542 0 15 0.745833 15 1.66667L15 4.16667C15 5.0875 14.2542 5.83333 13.3333 5.83333Z" id="Path" fill="#FFFFFF" fill-rule="evenodd" stroke="#FFFFFF" stroke-width="0.8333333" stroke-linecap="round" stroke-linejoin="round" />
      <path d="M4.16667 15L1.66667 15C0.745833 15 0 14.2542 0 13.3333L0 10.8333C0 9.9125 0.745833 9.16667 1.66667 9.16667L4.16667 9.16667C5.0875 9.16667 5.83333 9.9125 5.83333 10.8333L5.83333 13.3333C5.83333 14.2542 5.0875 15 4.16667 15Z" id="Path" fill="#FFFFFF" fill-rule="evenodd" stroke="#FFFFFF" stroke-width="0.8333333" stroke-linecap="round" stroke-linejoin="round" />
      <path d="M13.3333 15L10.8333 15C9.9125 15 9.16667 14.2542 9.16667 13.3333L9.16667 10.8333C9.16667 9.9125 9.9125 9.16667 10.8333 9.16667L13.3333 9.16667C14.2542 9.16667 15 9.9125 15 10.8333L15 13.3333C15 14.2542 14.2542 15 13.3333 15Z" id="Path-Copy" fill="#FFFFFF" fill-rule="evenodd" stroke="#FFFFFF" stroke-width="0.8333333" stroke-linecap="round" stroke-linejoin="round" />
    </g>
  </g>
</svg>