<?xml version="1.0" encoding="utf-8"?>
<svg width="35px" height="35px" viewBox="0 0 35 35" version="1.1" xmlns:xlink="http://www.w3.org/1999/xlink" xmlns="http://www.w3.org/2000/svg">
  <g id="Ic--팔로우" transform="translate(1.5 1.5)">
    <g id="Ic--Link">
      <path d="M10.999 0L21.001 0Q21.271 0 21.5407 0.0132488Q21.8104 0.0264976 22.0791 0.0529632Q22.3478 0.0794288 22.6149 0.119048Q22.882 0.158666 23.1468 0.211343Q23.4116 0.264019 23.6735 0.329626Q23.9355 0.395233 24.1938 0.473613Q24.4522 0.551993 24.7064 0.642957Q24.9607 0.73392 25.2101 0.837249Q25.4596 0.940577 25.7037 1.05602Q25.9478 1.17147 26.1859 1.29875Q26.424 1.42603 26.6556 1.56484Q26.8872 1.70366 27.1117 1.85367Q27.3362 2.00367 27.5531 2.16452Q27.77 2.32537 27.9787 2.49666Q28.1874 2.66795 28.3875 2.84928Q28.5875 3.03061 28.7785 3.22153Q28.9694 3.41246 29.1507 3.61252Q29.332 3.81259 29.5033 4.02131Q29.6746 4.23003 29.8355 4.4469Q29.9963 4.66378 30.1463 4.88828Q30.2963 5.11279 30.4352 5.34438Q30.574 5.57598 30.7013 5.81411Q30.8285 6.05223 30.944 6.29632Q31.0594 6.54041 31.1627 6.78986Q31.2661 7.03932 31.357 7.29355Q31.448 7.54777 31.5264 7.80616Q31.6048 8.06454 31.6704 8.32646Q31.736 8.58838 31.7887 8.8532Q31.8413 9.11802 31.8809 9.38511Q31.9206 9.6522 31.947 9.92091Q31.9735 10.1896 31.9868 10.4593Q32 10.729 32 10.999L32 21.001Q32 21.271 31.9868 21.5407Q31.9735 21.8104 31.947 22.0791Q31.9206 22.3478 31.8809 22.6149Q31.8413 22.882 31.7887 23.1468Q31.736 23.4116 31.6704 23.6735Q31.6048 23.9355 31.5264 24.1938Q31.448 24.4522 31.357 24.7064Q31.2661 24.9607 31.1627 25.2101Q31.0594 25.4596 30.944 25.7037Q30.8285 25.9478 30.7013 26.1859Q30.574 26.424 30.4352 26.6556Q30.2963 26.8872 30.1463 27.1117Q29.9963 27.3362 29.8355 27.5531Q29.6746 27.77 29.5033 27.9787Q29.332 28.1874 29.1507 28.3875Q28.9694 28.5875 28.7785 28.7785Q28.5875 28.9694 28.3875 29.1507Q28.1874 29.332 27.9787 29.5033Q27.77 29.6746 27.5531 29.8355Q27.3362 29.9963 27.1117 30.1463Q26.8872 30.2963 26.6556 30.4352Q26.424 30.574 26.1859 30.7013Q25.9478 30.8285 25.7037 30.944Q25.4596 31.0594 25.2101 31.1627Q24.9607 31.2661 24.7064 31.357Q24.4522 31.448 24.1938 31.5264Q23.9355 31.6048 23.6735 31.6704Q23.4116 31.736 23.1468 31.7887Q22.882 31.8413 22.6149 31.8809Q22.3478 31.9206 22.0791 31.947Q21.8104 31.9735 21.5407 31.9868Q21.271 32 21.001 32L10.999 32Q10.729 32 10.4593 31.9868Q10.1896 31.9735 9.92091 31.947Q9.6522 31.9206 9.38511 31.8809Q9.11802 31.8413 8.8532 31.7887Q8.58838 31.736 8.32646 31.6704Q8.06454 31.6048 7.80616 31.5264Q7.54777 31.448 7.29355 31.357Q7.03932 31.2661 6.78986 31.1627Q6.54041 31.0594 6.29632 30.944Q6.05223 30.8285 5.81411 30.7013Q5.57598 30.574 5.34438 30.4352Q5.11279 30.2963 4.88828 30.1463Q4.66378 29.9963 4.4469 29.8355Q4.23003 29.6746 4.02131 29.5033Q3.81259 29.332 3.61252 29.1507Q3.41246 28.9694 3.22153 28.7785Q3.03061 28.5875 2.84928 28.3875Q2.66795 28.1874 2.49666 27.9787Q2.32537 27.77 2.16452 27.5531Q2.00367 27.3362 1.85367 27.1117Q1.70366 26.8872 1.56484 26.6556Q1.42603 26.424 1.29875 26.1859Q1.17147 25.9478 1.05602 25.7037Q0.940577 25.4596 0.837249 25.2101Q0.73392 24.9607 0.642957 24.7064Q0.551993 24.4522 0.473613 24.1938Q0.395233 23.9355 0.329626 23.6735Q0.264019 23.4116 0.211343 23.1468Q0.158666 22.882 0.119048 22.6149Q0.0794288 22.3478 0.0529632 22.0791Q0.0264976 21.8104 0.0132488 21.5407Q0 21.271 0 21.001L0 10.999Q0 10.729 0.0132488 10.4593Q0.0264976 10.1896 0.0529632 9.92091Q0.0794288 9.6522 0.119048 9.38511Q0.158666 9.11802 0.211343 8.8532Q0.264019 8.58838 0.329626 8.32646Q0.395233 8.06454 0.473613 7.80616Q0.551993 7.54777 0.642957 7.29355Q0.73392 7.03932 0.837249 6.78986Q0.940577 6.54041 1.05602 6.29632Q1.17147 6.05223 1.29875 5.81411Q1.42603 5.57598 1.56484 5.34438Q1.70366 5.11279 1.85367 4.88828Q2.00367 4.66378 2.16452 4.4469Q2.32537 4.23003 2.49666 4.02131Q2.66795 3.81259 2.84928 3.61252Q3.03061 3.41246 3.22153 3.22153Q3.41246 3.03061 3.61252 2.84928Q3.81259 2.66795 4.02131 2.49666Q4.23003 2.32537 4.4469 2.16452Q4.66378 2.00367 4.88828 1.85367Q5.11279 1.70366 5.34438 1.56484Q5.57598 1.42603 5.81411 1.29875Q6.05223 1.17147 6.29632 1.05602Q6.54041 0.940577 6.78986 0.837249Q7.03932 0.73392 7.29355 0.642957Q7.54777 0.551993 7.80616 0.473613Q8.06454 0.395233 8.32646 0.329626Q8.58838 0.264019 8.8532 0.211343Q9.11802 0.158666 9.38511 0.119048Q9.6522 0.0794288 9.92091 0.0529632Q10.1896 0.0264976 10.4593 0.0132488Q10.729 0 10.999 0Z" id="Rectangle" fill="#84888B" fill-opacity="0.6" fill-rule="evenodd" stroke="none" />
      <path d="M20.3905 9.72386C20.9112 9.20316 21.7554 9.20316 22.2761 9.72386C22.7568 10.2045 22.7938 10.9608 22.3871 11.4839L22.2761 11.6095L11.6095 22.2761C11.0888 22.7968 10.2446 22.7968 9.72389 22.2761C9.24324 21.7955 9.20627 21.0392 9.61297 20.5161L9.72388 20.3905L20.3905 9.72386Z" id="Path" fill="#FFFFFF" fill-rule="evenodd" stroke="none" />
      <path d="M21.3333 9.33333C22.0171 9.33333 22.5807 9.84805 22.6577 10.5112L22.6666 10.6667L22.6666 21.3333C22.6666 22.0697 22.0697 22.6667 21.3333 22.6667C20.6495 22.6667 20.086 22.1519 20.0089 21.4888L20 21.3333L19.9987 12L10.6667 12C9.98289 12 9.41932 11.4853 9.3423 10.8222L9.33333 10.6667C9.33333 9.98289 9.84805 9.41932 10.5112 9.3423L10.6667 9.33333L21.3333 9.33333Z" id="Path" fill="#FFFFFF" fill-rule="evenodd" stroke="none" />
    </g>
  </g>
</svg>