<?xml version="1.0" encoding="utf-8"?>
<svg width="43.46057px" height="43.46051px" viewBox="0 0 43.46057 43.46051" version="1.1" xmlns:xlink="http://www.w3.org/1999/xlink" xmlns="http://www.w3.org/2000/svg">
  <defs>
    <path d="M12.9221 0L29.5395 0Q29.8567 0 30.1735 0.0155652Q30.4904 0.0311304 30.806 0.0622233Q31.1217 0.0933162 31.4355 0.139862Q31.7493 0.186408 32.0604 0.248294Q32.3716 0.31018 32.6793 0.387258Q32.987 0.464336 33.2905 0.55642Q33.5941 0.648504 33.8928 0.755372Q34.1914 0.86224 34.4845 0.983634Q34.7776 1.10503 35.0644 1.24066Q35.3511 1.37629 35.6309 1.52582Q35.9106 1.67536 36.1827 1.83844Q36.4548 2.00152 36.7186 2.17776Q36.9823 2.354 37.2371 2.54297Q37.4919 2.73193 37.7371 2.93318Q37.9824 3.13442 38.2174 3.34745Q38.4524 3.56048 38.6768 3.78479Q38.9011 4.0091 39.1141 4.24414Q39.3271 4.47918 39.5284 4.7244Q39.7296 4.96961 39.9186 5.2244Q40.1075 5.4792 40.2838 5.74295Q40.46 6.00671 40.6231 6.2788Q40.7862 6.55089 40.9357 6.83065Q41.0853 7.11041 41.2209 7.39718Q41.3565 7.68394 41.4779 7.97701Q41.5993 8.27008 41.7062 8.56876Q41.813 8.86744 41.9051 9.171Q41.9972 9.47456 42.0743 9.78227Q42.1514 10.09 42.2132 10.4011Q42.2751 10.7122 42.3217 11.026Q42.3682 11.3398 42.3993 11.6555Q42.4304 11.9712 42.446 12.288Q42.4615 12.6049 42.4615 12.9221L42.4615 29.5395Q42.4615 29.8567 42.446 30.1735Q42.4304 30.4904 42.3993 30.806Q42.3682 31.1217 42.3217 31.4355Q42.2751 31.7493 42.2132 32.0604Q42.1514 32.3716 42.0743 32.6793Q41.9972 32.987 41.9051 33.2905Q41.813 33.5941 41.7062 33.8928Q41.5993 34.1914 41.4779 34.4845Q41.3565 34.7776 41.2209 35.0644Q41.0853 35.3511 40.9357 35.6309Q40.7862 35.9106 40.6231 36.1827Q40.46 36.4548 40.2838 36.7186Q40.1075 36.9823 39.9186 37.2371Q39.7296 37.4919 39.5284 37.7371Q39.3271 37.9824 39.1141 38.2174Q38.9011 38.4524 38.6768 38.6768Q38.4524 38.9011 38.2174 39.1141Q37.9824 39.3271 37.7371 39.5284Q37.4919 39.7296 37.2371 39.9186Q36.9823 40.1075 36.7186 40.2838Q36.4548 40.46 36.1827 40.6231Q35.9106 40.7862 35.6309 40.9357Q35.3511 41.0853 35.0644 41.2209Q34.7776 41.3565 34.4845 41.4779Q34.1915 41.5993 33.8928 41.7062Q33.5941 41.813 33.2905 41.9051Q32.987 41.9972 32.6793 42.0743Q32.3716 42.1514 32.0604 42.2132Q31.7493 42.2751 31.4355 42.3217Q31.1217 42.3682 30.806 42.3993Q30.4904 42.4304 30.1735 42.446Q29.8567 42.4615 29.5395 42.4615L12.9221 42.4615Q12.6049 42.4615 12.288 42.446Q11.9712 42.4304 11.6555 42.3993Q11.3398 42.3682 11.026 42.3217Q10.7122 42.2751 10.4011 42.2132Q10.09 42.1514 9.78227 42.0743Q9.47456 41.9972 9.171 41.9051Q8.86744 41.813 8.56876 41.7062Q8.27008 41.5993 7.97701 41.4779Q7.68394 41.3565 7.39718 41.2209Q7.11041 41.0853 6.83065 40.9357Q6.55089 40.7862 6.2788 40.6231Q6.00671 40.46 5.74295 40.2838Q5.4792 40.1075 5.2244 39.9186Q4.96961 39.7296 4.7244 39.5284Q4.47918 39.3271 4.24414 39.1141Q4.0091 38.9011 3.78479 38.6768Q3.56048 38.4524 3.34745 38.2174Q3.13442 37.9824 2.93318 37.7371Q2.73193 37.4919 2.54297 37.2371Q2.354 36.9823 2.17776 36.7186Q2.00152 36.4548 1.83844 36.1827Q1.67536 35.9106 1.52582 35.6309Q1.37629 35.3511 1.24066 35.0644Q1.10503 34.7776 0.983634 34.4845Q0.86224 34.1915 0.755372 33.8928Q0.648504 33.5941 0.55642 33.2905Q0.464336 32.987 0.387258 32.6793Q0.31018 32.3716 0.248294 32.0604Q0.186408 31.7493 0.139862 31.4355Q0.0933162 31.1217 0.0622233 30.806Q0.0311304 30.4904 0.0155652 30.1735Q0 29.8567 0 29.5395L0 12.9221Q0 12.6049 0.0155652 12.288Q0.0311304 11.9712 0.0622233 11.6555Q0.0933162 11.3398 0.139862 11.026Q0.186408 10.7122 0.248294 10.4011Q0.31018 10.09 0.387258 9.78227Q0.464336 9.47456 0.55642 9.171Q0.648504 8.86744 0.755372 8.56876Q0.86224 8.27008 0.983634 7.97701Q1.10503 7.68394 1.24066 7.39718Q1.37629 7.11041 1.52582 6.83065Q1.67536 6.55089 1.83844 6.2788Q2.00152 6.00671 2.17776 5.74295Q2.354 5.4792 2.54297 5.2244Q2.73193 4.96961 2.93318 4.7244Q3.13442 4.47918 3.34745 4.24414Q3.56048 4.0091 3.78479 3.78479Q4.0091 3.56048 4.24414 3.34745Q4.47918 3.13442 4.7244 2.93318Q4.96961 2.73193 5.2244 2.54297Q5.4792 2.354 5.74295 2.17776Q6.00671 2.00152 6.2788 1.83844Q6.55089 1.67536 6.83065 1.52582Q7.11041 1.37629 7.39718 1.24066Q7.68394 1.10503 7.97701 0.983634Q8.27008 0.86224 8.56876 0.755372Q8.86744 0.648504 9.171 0.55642Q9.47456 0.464336 9.78227 0.387258Q10.09 0.31018 10.4011 0.248294Q10.7122 0.186408 11.026 0.139862Q11.3398 0.0933162 11.6555 0.0622233Q11.9712 0.0311304 12.288 0.0155652Q12.6049 0 12.9221 0L12.9221 0Z" id="path_1" />
    <clipPath id="mask_1">
      <use xlink:href="#path_1" />
    </clipPath>
  </defs>
  <g id="Group" transform="translate(0.49951172 0.4994812)">
    <path d="M12.9221 0L29.5395 0Q29.8567 0 30.1735 0.0155652Q30.4904 0.0311304 30.806 0.0622233Q31.1217 0.0933162 31.4355 0.139862Q31.7493 0.186408 32.0604 0.248294Q32.3716 0.31018 32.6793 0.387258Q32.987 0.464336 33.2905 0.55642Q33.5941 0.648504 33.8928 0.755372Q34.1914 0.86224 34.4845 0.983634Q34.7776 1.10503 35.0644 1.24066Q35.3511 1.37629 35.6309 1.52582Q35.9106 1.67536 36.1827 1.83844Q36.4548 2.00152 36.7186 2.17776Q36.9823 2.354 37.2371 2.54297Q37.4919 2.73193 37.7371 2.93318Q37.9824 3.13442 38.2174 3.34745Q38.4524 3.56048 38.6768 3.78479Q38.9011 4.0091 39.1141 4.24414Q39.3271 4.47918 39.5284 4.7244Q39.7296 4.96961 39.9186 5.2244Q40.1075 5.4792 40.2838 5.74295Q40.46 6.00671 40.6231 6.2788Q40.7862 6.55089 40.9357 6.83065Q41.0853 7.11041 41.2209 7.39718Q41.3565 7.68394 41.4779 7.97701Q41.5993 8.27008 41.7062 8.56876Q41.813 8.86744 41.9051 9.171Q41.9972 9.47456 42.0743 9.78227Q42.1514 10.09 42.2132 10.4011Q42.2751 10.7122 42.3217 11.026Q42.3682 11.3398 42.3993 11.6555Q42.4304 11.9712 42.446 12.288Q42.4615 12.6049 42.4615 12.9221L42.4615 29.5395Q42.4615 29.8567 42.446 30.1735Q42.4304 30.4904 42.3993 30.806Q42.3682 31.1217 42.3217 31.4355Q42.2751 31.7493 42.2132 32.0604Q42.1514 32.3716 42.0743 32.6793Q41.9972 32.987 41.9051 33.2905Q41.813 33.5941 41.7062 33.8928Q41.5993 34.1914 41.4779 34.4845Q41.3565 34.7776 41.2209 35.0644Q41.0853 35.3511 40.9357 35.6309Q40.7862 35.9106 40.6231 36.1827Q40.46 36.4548 40.2838 36.7186Q40.1075 36.9823 39.9186 37.2371Q39.7296 37.4919 39.5284 37.7371Q39.3271 37.9824 39.1141 38.2174Q38.9011 38.4524 38.6768 38.6768Q38.4524 38.9011 38.2174 39.1141Q37.9824 39.3271 37.7371 39.5284Q37.4919 39.7296 37.2371 39.9186Q36.9823 40.1075 36.7186 40.2838Q36.4548 40.46 36.1827 40.6231Q35.9106 40.7862 35.6309 40.9357Q35.3511 41.0853 35.0644 41.2209Q34.7776 41.3565 34.4845 41.4779Q34.1915 41.5993 33.8928 41.7062Q33.5941 41.813 33.2905 41.9051Q32.987 41.9972 32.6793 42.0743Q32.3716 42.1514 32.0604 42.2132Q31.7493 42.2751 31.4355 42.3217Q31.1217 42.3682 30.806 42.3993Q30.4904 42.4304 30.1735 42.446Q29.8567 42.4615 29.5395 42.4615L12.9221 42.4615Q12.6049 42.4615 12.288 42.446Q11.9712 42.4304 11.6555 42.3993Q11.3398 42.3682 11.026 42.3217Q10.7122 42.2751 10.4011 42.2132Q10.09 42.1514 9.78227 42.0743Q9.47456 41.9972 9.171 41.9051Q8.86744 41.813 8.56876 41.7062Q8.27008 41.5993 7.97701 41.4779Q7.68394 41.3565 7.39718 41.2209Q7.11041 41.0853 6.83065 40.9357Q6.55089 40.7862 6.2788 40.6231Q6.00671 40.46 5.74295 40.2838Q5.4792 40.1075 5.2244 39.9186Q4.96961 39.7296 4.7244 39.5284Q4.47918 39.3271 4.24414 39.1141Q4.0091 38.9011 3.78479 38.6768Q3.56048 38.4524 3.34745 38.2174Q3.13442 37.9824 2.93318 37.7371Q2.73193 37.4919 2.54297 37.2371Q2.354 36.9823 2.17776 36.7186Q2.00152 36.4548 1.83844 36.1827Q1.67536 35.9106 1.52582 35.6309Q1.37629 35.3511 1.24066 35.0644Q1.10503 34.7776 0.983634 34.4845Q0.86224 34.1915 0.755372 33.8928Q0.648504 33.5941 0.55642 33.2905Q0.464336 32.987 0.387258 32.6793Q0.31018 32.3716 0.248294 32.0604Q0.186408 31.7493 0.139862 31.4355Q0.0933162 31.1217 0.0622233 30.806Q0.0311304 30.4904 0.0155652 30.1735Q0 29.8567 0 29.5395L0 12.9221Q0 12.6049 0.0155652 12.288Q0.0311304 11.9712 0.0622233 11.6555Q0.0933162 11.3398 0.139862 11.026Q0.186408 10.7122 0.248294 10.4011Q0.31018 10.09 0.387258 9.78227Q0.464336 9.47456 0.55642 9.171Q0.648504 8.86744 0.755372 8.56876Q0.86224 8.27008 0.983634 7.97701Q1.10503 7.68394 1.24066 7.39718Q1.37629 7.11041 1.52582 6.83065Q1.67536 6.55089 1.83844 6.2788Q2.00152 6.00671 2.17776 5.74295Q2.354 5.4792 2.54297 5.2244Q2.73193 4.96961 2.93318 4.7244Q3.13442 4.47918 3.34745 4.24414Q3.56048 4.0091 3.78479 3.78479Q4.0091 3.56048 4.24414 3.34745Q4.47918 3.13442 4.7244 2.93318Q4.96961 2.73193 5.2244 2.54297Q5.4792 2.354 5.74295 2.17776Q6.00671 2.00152 6.2788 1.83844Q6.55089 1.67536 6.83065 1.52582Q7.11041 1.37629 7.39718 1.24066Q7.68394 1.10503 7.97701 0.983634Q8.27008 0.86224 8.56876 0.755372Q8.86744 0.648504 9.171 0.55642Q9.47456 0.464336 9.78227 0.387258Q10.09 0.31018 10.4011 0.248294Q10.7122 0.186408 11.026 0.139862Q11.3398 0.0933162 11.6555 0.0622233Q11.9712 0.0311304 12.288 0.0155652Q12.6049 0 12.9221 0L12.9221 0Z" id="Rectangle-Copy-13" fill="#FFFFFF" fill-rule="evenodd" stroke="none" />
    <g clip-path="url(#mask_1)">
      <g id="집중모드" transform="translate(-13.846191 4.615387)" opacity="0.64" style="mix-blend-mode: luminosity;">
        <g id="Group-12" transform="translate(4.5081787 38.046112)">
          <path d="M0 26.8008L19.4424 35.5167L38.2381 24.4109L39.2855 0" id="Stroke-11" fill="none" fill-rule="evenodd" stroke="#231916" stroke-width="0.99898106" stroke-linecap="round" stroke-linejoin="round" />
        </g>
        <g id="Group-16" transform="translate(16.231201 15.171539)">
          <path d="M12.9963 57.652C18.486 55.4901 32.5186 50.629 33.3128 46.783C35.3557 36.8868 38.4893 11.7642 35.9488 6.94299C34.2303 3.6816 27.5461 1.26491 21.6678 0.596562C15.7896 -0.071303 6.83125 -0.560389 4.579 1.31412C1.96737 3.48821 0 24.061 0 24.061" id="Fill-13" fill="#C30F23" fill-rule="evenodd" stroke="none" />
          <path d="M12.9963 57.652C18.486 55.4901 32.5186 50.629 33.3128 46.783C35.3557 36.8868 38.4893 11.7642 35.9488 6.94299C34.2303 3.6816 27.5461 1.26491 21.6678 0.596562C15.7896 -0.071303 6.83125 -0.560389 4.579 1.31412C1.96737 3.48821 0 24.061 0 24.061" id="Stroke-15" fill="none" fill-rule="evenodd" stroke="#231916" stroke-width="0.99898106" stroke-linejoin="round" />
        </g>
        <path d="M34.8577 53.3229L35.1241 31.9308L31.7299 11.2586L26.6259 10.7354L17.7674 52.468L12.9697 59.3571L23.1825 61.7348L34.8577 53.3229Z" id="Fill-17" fill="#FEFEFE" fill-rule="evenodd" stroke="none" />
        <path d="M26.4775 15.2689L23.095 16.2495L20.1591 31.4623L15.377 44.5497L9.35217 59.0557L14.8949 61.8119L28.4016 52.3868" id="Fill-19" fill="#FEFEFE" fill-rule="evenodd" stroke="none" />
        <path d="M28.4015 9.39163C27.6876 7.31545 27.7957 0.239781 25.5629 0.0054681C24.494 -0.106573 23.5089 1.53216 23.1422 2.26189C20.213 8.09048 22.6216 14.2031 23.1826 14.8958C21.7981 21.251 21.3448 25.8695 19.4996 32.0908" id="Fill-21" fill="#FEFEFE" fill-rule="evenodd" stroke="none" />
        <path d="M27.55 9.59506C29.5028 9.10256 32.3092 8.50971 36.2561 9.55657C40.2031 10.6039 43.3762 12.7093 44.7699 14.1639C47.7429 17.267 46.2907 21.0813 45.7531 22.8632C44.8176 25.9614 42.0842 34.0781 41.3187 37.8797C39.7677 45.5823 36.1217 50.1848 32.8079 57.5211" id="Fill-23" fill="#FEFEFE" fill-rule="evenodd" stroke="none" />
        <path d="M23.1824 14.8958C23.1824 14.8958 23.3315 14.2728 23.4488 13.8914" id="Stroke-25" fill="none" fill-rule="evenodd" stroke="#231916" stroke-width="0.99898106" stroke-linecap="round" stroke-linejoin="round" />
        <path d="M28.4014 9.39163C27.6875 7.31545 27.7956 0.239781 25.5629 0.0054681C24.494 -0.106573 23.5088 1.53216 23.1421 2.26189C20.213 8.09048 22.6216 14.2031 23.1825 14.8958C22.3508 18.7125 21.8556 21.9028 21.1923 25.1905C21.1923 25.1905 20.5587 29.9245 20.1594 31.4624C19.2118 35.1091 15.8551 41.4034 10.4341 43.0358C8.51202 43.615 3.20256 44.7086 4.80567 49.0319C5.56973 51.0925 7.63254 53.0752 11.2678 51.8174" id="Stroke-27" fill="none" fill-rule="evenodd" stroke="#231916" stroke-width="0.99898106" stroke-linecap="round" stroke-linejoin="round" />
        <g id="Group-32" transform="translate(27.550049 8.975891)">
          <path d="M11.9109 39.9438C12.5975 36.1451 13.0801 32.322 13.7687 28.9038C14.5342 25.1022 17.2676 16.9855 18.203 13.8873C18.7407 12.1054 20.1928 8.29109 17.2198 5.18802C15.8261 3.73343 12.653 1.62803 8.70609 0.580681C4.75918 -0.466177 1.95276 0.126669 0 0.619164" id="Fill-29" fill="#FEFEFE" fill-rule="evenodd" stroke="none" />
          <path d="M11.9109 39.9438C12.5975 36.1451 13.0801 32.322 13.7687 28.9038C14.5342 25.1022 17.2676 16.9855 18.203 13.8873C18.7407 12.1054 20.1928 8.29109 17.2198 5.18802C15.8261 3.73343 12.653 1.62803 8.70609 0.580681C4.75918 -0.466177 1.95276 0.126669 0 0.619164" id="Stroke-31" fill="none" fill-rule="evenodd" stroke="#231916" stroke-width="0.99898106" stroke-linecap="round" stroke-linejoin="round" />
        </g>
        <g id="Group-36" transform="translate(44.026367 6.5966187)">
          <path d="M0 7.78971C1.03823 7.10772 2.08765 5.27365 2.3886 4.89222C3.20038 3.86387 6.92816 -2.02318 8.45335 0.723299C10.1714 3.81613 7.81299 9.08988 5.74822 11.0418C5.08691 11.6683 2.87557 13.61 0.15924 13.9496" id="Fill-33" fill="#FEFEFE" fill-rule="evenodd" stroke="none" />
          <path d="M0 7.78971C1.03823 7.10772 2.08765 5.27365 2.3886 4.89222C3.20038 3.86387 6.92816 -2.02318 8.45335 0.723299C10.1714 3.81613 7.81299 9.08988 5.74822 11.0418C5.08691 11.6683 2.87557 13.61 0.15924 13.9496" id="Stroke-35" fill="none" fill-rule="evenodd" stroke="#231916" stroke-width="0.99898106" stroke-linecap="round" stroke-linejoin="round" />
        </g>
        <path d="M46.1978 18.1591C46.6882 18.1742 47.536 17.4869 48.1886 16.9208C49.6183 15.6815 50.8275 14.0652 51.2998 12.1849C51.4498 11.5891 51.5209 10.9427 51.31 10.3781C51.2448 10.2037 51.1396 10.0278 50.9697 9.97327C50.7549 9.90312 50.5285 10.0517 50.3531 10.209C50.0576 10.474 49.8014 10.7853 49.5599 11.1064C48.8372 12.0689 46.7578 16.1964 46.2655 17.2482C46.1418 17.5137 45.9051 18.0953 46.1978 18.1591" id="Fill-37" fill="#FAD8BE" fill-rule="evenodd" stroke="none" />
        <path d="M33.2014 32.5755C31.8793 34.3048 29.2871 35.7132 27.4892 35.2363C25.6874 34.7584 24.4076 32.3227 24.1184 30.1661C23.8023 27.8274 24.4851 24.6069 26.4422 23.1333C27.6825 22.199 29.2214 21.9462 30.8912 22.3895C32.5571 22.8313 34.0439 23.8864 34.6594 25.3133C35.6338 27.5643 34.6331 30.7005 33.2014 32.5755" id="Fill-39" fill="#FAD8BE" fill-rule="evenodd" stroke="none" />
        <path d="M27.9947 20.5632C27.8627 21.1921 27.3212 21.6164 26.7841 21.5112C26.2474 21.406 25.9197 20.8112 26.0517 20.1828C26.1841 19.5519 26.7261 19.1262 27.2633 19.2314C27.8004 19.3366 28.1271 19.9329 27.9947 20.5632" id="Fill-41" fill="#231916" fill-rule="evenodd" stroke="none" />
        <path d="M36.4081 22.6523C36.2771 23.2817 35.7123 23.6996 35.1435 23.5866C34.5757 23.4741 34.2216 22.873 34.3521 22.2436C34.4831 21.6127 35.0495 21.1933 35.6178 21.3058C36.1861 21.4188 36.5391 22.0214 36.4081 22.6523" id="Fill-43" fill="#231916" fill-rule="evenodd" stroke="none" />
        <path d="M26.4598 17.4196L28.901 18.0256" id="Stroke-45" fill="none" fill-rule="evenodd" stroke="#231916" stroke-width="0.82852966" stroke-linecap="round" />
        <path d="M34.745 19.4767L37.3298 20.1188" id="Stroke-47" fill="none" fill-rule="evenodd" stroke="#231916" stroke-width="0.8527415" stroke-linecap="round" />
        <path d="M29.631 25.4258L28.8241 28.3199" id="Stroke-65" fill="none" fill-rule="evenodd" stroke="#231916" stroke-width="0.92005044" stroke-linecap="round" />
        <path d="M31.7817 28.1504C31.7817 28.1504 30.6402 32.9512 27.9877 32.3661C25.51 31.8196 26.7279 26.8751 26.7279 26.8751C26.7279 26.8751 28.5555 28.2654 31.7817 28.1504" id="Fill-67" fill="#E96082" fill-rule="evenodd" stroke="none" />
        <path d="M31.7817 28.1504C31.7817 28.1504 30.6402 32.9512 27.9877 32.3661C25.51 31.8196 26.7279 26.8751 26.7279 26.8751C26.7279 26.8751 28.5555 28.2654 31.7817 28.1504Z" id="Stroke-69" fill="none" fill-rule="evenodd" stroke="#231916" stroke-width="0.92005044" stroke-linecap="round" stroke-linejoin="round" />
        <path d="M53.1665 25.547C53.1665 25.547 51.558 21.1491 49.092 24.0451C47.1626 26.3113 45.036 40.069 44.2018 45.9478C43.9598 47.6537 43.0224 49.1809 41.6136 50.1717L39.8707 51.3964L33.6501 54.3757C31.2898 55.5059 29.7811 57.8841 29.7641 60.502L29.6847 72.8485L36.011 70.4888L42.1225 67.8071L48.2344 64.2675L49.521 62.7662C49.521 62.7662 54.9892 30.2663 53.1665 25.547" id="Fill-75" fill="#83000B" fill-rule="evenodd" stroke="none" />
        <path d="M39.2205 51.7364L41.6748 50.5166C42.846 49.9345 43.6451 48.8004 43.7975 47.5008C44.0707 45.1649 44.3639 42.8316 44.7008 40.504C45.1138 37.6552 45.5818 34.8108 46.1983 31.9986C46.6945 29.7354 47.2287 27.3708 48.2733 25.2863C48.9346 23.9662 50.7271 22.4697 52.6775 23.7972" id="Stroke-101" fill="none" fill-rule="evenodd" stroke="#231916" stroke-width="0.99898106" stroke-linecap="round" stroke-linejoin="round" />
        <path d="M49.5438 61.9545C51.5872 52.0583 54.7203 26.9356 52.1798 22.1144" id="Stroke-107" fill="none" fill-rule="evenodd" stroke="#231916" stroke-width="0.99898106" stroke-linejoin="round" />
        <path d="M33.4106 25.9894C32.7795 25.7868 32.5321 25.4419 32.1104 24.9304L29.9395 23.5761L27.7008 24.4812C27.4126 24.6157 27.0838 24.6376 26.78 24.5431L22.0817 22.8825L22.1221 22.7314L26.4011 23.4553L31.0249 21.6456L32.9548 24.7423" id="Fill-109" fill="#93918D" fill-rule="evenodd" stroke="none" />
        <path d="M27.64 23.6441C27.8402 22.8891 29.044 22.8706 30.2254 23.1838C31.4063 23.497 32.4431 24.1103 32.2429 24.8654C31.977 25.8684 30.3286 26.3843 29.4394 26.1485C28.5507 25.9127 27.3742 24.6472 27.64 23.6441" id="Fill-111" fill="#231916" fill-rule="evenodd" stroke="none" />
        <path d="M22.1777 15.2057L20.7947 22.1167L26.8492 23.81C27.1881 23.9191 27.5578 23.883 27.8772 23.7096L29.6902 22.6175C30.1002 22.3948 30.5984 22.5122 30.8653 22.8937L31.8528 24.8544C32.0394 25.1208 32.3082 25.3118 32.6159 25.3971L39.8256 27.3646L41.885 20.3172L22.1777 15.2057Z" id="Fill-141" fill="#3F3A3A" fill-rule="evenodd" stroke="none" />
        <path d="M22.1777 15.2057L20.7947 22.1167L26.8492 23.81C27.1881 23.9191 27.5578 23.883 27.8772 23.7096L29.6902 22.6175C30.1002 22.3948 30.5984 22.5122 30.8653 22.8937L31.8528 24.8544C32.0394 25.1208 32.3082 25.3118 32.6159 25.3971L39.8256 27.3646L41.885 20.3172L22.1777 15.2057Z" id="Stroke-143" fill="none" fill-rule="evenodd" stroke="#231916" stroke-width="0.79899114" stroke-linecap="round" stroke-linejoin="round" />
        <path d="M23.4244 17.9163L22.9194 20.2916C22.8522 20.636 23.0431 20.9726 23.3631 21.0734L26.5459 21.9605C26.7388 22.0214 26.9496 21.9863 27.1181 21.865L29.7526 19.9657C30.1729 19.6637 30.075 18.9963 29.59 18.8574L24.2596 17.3761C23.888 17.2699 23.5018 17.5193 23.4244 17.9163" id="Fill-145" fill="#C30F23" fill-rule="evenodd" stroke="none" />
        <path d="M23.4244 17.9163L22.9194 20.2916C22.8522 20.636 23.0431 20.9726 23.3631 21.0734L26.5459 21.9605C26.7388 22.0214 26.9496 21.9863 27.1181 21.865L29.7526 19.9657C30.1729 19.6637 30.075 18.9963 29.59 18.8574L24.2596 17.3761C23.888 17.2699 23.5018 17.5193 23.4244 17.9163Z" id="Stroke-147" fill="none" fill-rule="evenodd" stroke="#231916" stroke-width="0.99898106" stroke-linejoin="round" />
        <path d="M32.9703 19.9136L38.9586 21.2513C39.2455 21.3244 39.392 21.6527 39.2625 21.9333L38.4327 24.5672C38.3329 24.784 38.0991 24.9589 37.879 24.8985L33.7933 23.8959C33.6443 23.855 33.4339 23.6787 33.3843 23.5272L32.403 20.5576C32.2822 20.1898 32.6066 19.8215 32.9703 19.9136" id="Fill-149" fill="#0072BB" fill-rule="evenodd" stroke="none" />
        <path d="M32.9703 19.9136L38.9586 21.2513C39.2455 21.3244 39.392 21.6527 39.2625 21.9333L38.4327 24.5672C38.3329 24.784 38.0991 24.9589 37.879 24.8985L33.7933 23.8959C33.6443 23.855 33.4339 23.6787 33.3843 23.5272L32.403 20.5576C32.2822 20.1898 32.6066 19.8215 32.9703 19.9136Z" id="Stroke-151" fill="none" fill-rule="evenodd" stroke="#231916" stroke-width="0.99898106" />
        <path d="M41.9509 20.4387C42.0834 20.8591 45.7064 22.9002 45.7064 22.9002C45.7064 22.9002 45.1898 25.3374 45.0622 25.3783C44.9351 25.4192 40.8523 24.1585 40.8903 24.0299C40.9283 23.9013 41.9509 20.4387 41.9509 20.4387" id="Fill-153" fill="#231916" fill-rule="evenodd" stroke="none" />
        <path d="M41.9509 20.4387C42.0834 20.8591 45.7064 22.9002 45.7064 22.9002C45.7064 22.9002 45.1898 25.3374 45.0622 25.3783C44.9351 25.4192 40.8523 24.1585 40.8903 24.0299C40.9283 23.9013 41.9509 20.4387 41.9509 20.4387Z" id="Stroke-155" fill="none" fill-rule="evenodd" stroke="#231916" stroke-width="0.79899114" stroke-linecap="round" stroke-linejoin="round" />
        <path d="M41.0774 24.5027L40.2179 27.444C40.1668 27.6189 40.0071 27.7329 39.8322 27.7329C39.7977 27.7329 39.7621 27.7285 39.727 27.7188L34.2296 26.2559C36.2505 26.915 39.7636 28.0339 39.7636 28.0339C40.215 28.1762 40.7093 28.0032 40.8393 27.5478L41.4772 25.6523C41.5405 25.4312 41.7334 25.2602 42.0402 25.3006L44.2832 25.8535C44.2851 25.8467 44.2875 25.8394 44.29 25.8326C44.3172 25.7468 44.3426 25.6674 44.3689 25.5836C43.3978 25.3269 41.8444 24.8018 41.0774 24.5027" id="Fill-157" fill="#93918D" fill-rule="evenodd" stroke="none" />
      </g>
    </g>
  </g>
</svg>