<?xml version="1.0" encoding="utf-8"?>
<svg width="20px" height="4px" viewBox="0 0 20 4" version="1.1" xmlns:xlink="http://www.w3.org/1999/xlink" xmlns="http://www.w3.org/2000/svg">
  <g id="Ic--More" transform="translate(-2 -10)">
    <path d="M3.999 10L4.001 10Q4.0992 10 4.19694 10.0096Q4.29467 10.0193 4.39099 10.0384Q4.4873 10.0576 4.58128 10.0861Q4.67526 10.1146 4.76598 10.1522Q4.85671 10.1897 4.94332 10.236Q5.02993 10.2823 5.11158 10.3369Q5.19324 10.3915 5.26915 10.4538Q5.34507 10.5161 5.41451 10.5855Q5.48395 10.6549 5.54625 10.7308Q5.60855 10.8068 5.66311 10.8884Q5.71767 10.9701 5.76396 11.0567Q5.81025 11.1433 5.84783 11.234Q5.88542 11.3247 5.91392 11.4187Q5.94243 11.5127 5.96159 11.609Q5.98075 11.7053 5.99037 11.8031Q6 11.9008 6 11.999L6 12.001Q6 12.0992 5.99037 12.1969Q5.98075 12.2947 5.96159 12.391Q5.94243 12.4873 5.91392 12.5813Q5.88542 12.6753 5.84783 12.766Q5.81025 12.8567 5.76396 12.9433Q5.71767 13.0299 5.66311 13.1116Q5.60855 13.1932 5.54625 13.2692Q5.48395 13.3451 5.41451 13.4145Q5.34507 13.4839 5.26915 13.5462Q5.19324 13.6085 5.11158 13.6631Q5.02993 13.7177 4.94332 13.764Q4.85671 13.8103 4.76598 13.8478Q4.67525 13.8854 4.58128 13.9139Q4.4873 13.9424 4.39099 13.9616Q4.29467 13.9807 4.19694 13.9904Q4.0992 14 4.001 14L3.999 14Q3.9008 14 3.80306 13.9904Q3.70533 13.9807 3.60901 13.9616Q3.5127 13.9424 3.41872 13.9139Q3.32474 13.8854 3.23402 13.8478Q3.14329 13.8103 3.05668 13.764Q2.97007 13.7177 2.88841 13.6631Q2.80676 13.6085 2.73085 13.5462Q2.65493 13.4839 2.58549 13.4145Q2.51605 13.3451 2.45375 13.2692Q2.39145 13.1932 2.33689 13.1116Q2.28233 13.0299 2.23604 12.9433Q2.18975 12.8567 2.15216 12.766Q2.11458 12.6753 2.08608 12.5813Q2.05757 12.4873 2.03841 12.391Q2.01925 12.2947 2.00963 12.1969Q2 12.0992 2 12.001L2 11.999Q2 11.9008 2.00963 11.8031Q2.01925 11.7053 2.03841 11.609Q2.05757 11.5127 2.08608 11.4187Q2.11458 11.3247 2.15216 11.234Q2.18975 11.1433 2.23604 11.0567Q2.28233 10.9701 2.33689 10.8884Q2.39145 10.8068 2.45375 10.7308Q2.51605 10.6549 2.58549 10.5855Q2.65493 10.5161 2.73085 10.4538Q2.80676 10.3915 2.88841 10.3369Q2.97007 10.2823 3.05668 10.236Q3.14329 10.1897 3.23402 10.1522Q3.32474 10.1146 3.41872 10.0861Q3.5127 10.0576 3.60901 10.0384Q3.70533 10.0193 3.80306 10.0096Q3.9008 10 3.999 10L3.999 10Z" id="Rectangle" fill="#000000" fill-rule="evenodd" stroke="none" />
    <path d="M11.999 10L12.001 10Q12.0992 10 12.1969 10.0096Q12.2947 10.0193 12.391 10.0384Q12.4873 10.0576 12.5813 10.0861Q12.6753 10.1146 12.766 10.1522Q12.8567 10.1897 12.9433 10.236Q13.0299 10.2823 13.1116 10.3369Q13.1932 10.3915 13.2692 10.4538Q13.3451 10.5161 13.4145 10.5855Q13.4839 10.6549 13.5462 10.7308Q13.6085 10.8068 13.6631 10.8884Q13.7177 10.9701 13.764 11.0567Q13.8103 11.1433 13.8478 11.234Q13.8854 11.3247 13.9139 11.4187Q13.9424 11.5127 13.9616 11.609Q13.9807 11.7053 13.9904 11.8031Q14 11.9008 14 11.999L14 12.001Q14 12.0992 13.9904 12.1969Q13.9807 12.2947 13.9616 12.391Q13.9424 12.4873 13.9139 12.5813Q13.8854 12.6753 13.8478 12.766Q13.8103 12.8567 13.764 12.9433Q13.7177 13.0299 13.6631 13.1116Q13.6085 13.1932 13.5462 13.2692Q13.4839 13.3451 13.4145 13.4145Q13.3451 13.4839 13.2692 13.5462Q13.1932 13.6085 13.1116 13.6631Q13.0299 13.7177 12.9433 13.764Q12.8567 13.8103 12.766 13.8478Q12.6753 13.8854 12.5813 13.9139Q12.4873 13.9424 12.391 13.9616Q12.2947 13.9807 12.1969 13.9904Q12.0992 14 12.001 14L11.999 14Q11.9008 14 11.8031 13.9904Q11.7053 13.9807 11.609 13.9616Q11.5127 13.9424 11.4187 13.9139Q11.3247 13.8854 11.234 13.8478Q11.1433 13.8103 11.0567 13.764Q10.9701 13.7177 10.8884 13.6631Q10.8068 13.6085 10.7308 13.5462Q10.6549 13.4839 10.5855 13.4145Q10.5161 13.3451 10.4538 13.2692Q10.3915 13.1932 10.3369 13.1116Q10.2823 13.0299 10.236 12.9433Q10.1897 12.8567 10.1522 12.766Q10.1146 12.6753 10.0861 12.5813Q10.0576 12.4873 10.0384 12.391Q10.0193 12.2947 10.0096 12.1969Q10 12.0992 10 12.001L10 11.999Q10 11.9008 10.0096 11.8031Q10.0193 11.7053 10.0384 11.609Q10.0576 11.5127 10.0861 11.4187Q10.1146 11.3247 10.1522 11.234Q10.1897 11.1433 10.236 11.0567Q10.2823 10.9701 10.3369 10.8884Q10.3915 10.8068 10.4538 10.7308Q10.5161 10.6549 10.5855 10.5855Q10.6549 10.5161 10.7308 10.4538Q10.8068 10.3915 10.8884 10.3369Q10.9701 10.2823 11.0567 10.236Q11.1433 10.1897 11.234 10.1522Q11.3247 10.1146 11.4187 10.0861Q11.5127 10.0576 11.609 10.0384Q11.7053 10.0193 11.8031 10.0096Q11.9008 10 11.999 10Z" id="Rectangle-Copy" fill="#000000" fill-rule="evenodd" stroke="none" />
    <path d="M19.999 10L20.001 10Q20.0992 10 20.1969 10.0096Q20.2947 10.0193 20.391 10.0384Q20.4873 10.0576 20.5813 10.0861Q20.6753 10.1146 20.766 10.1522Q20.8567 10.1897 20.9433 10.236Q21.0299 10.2823 21.1116 10.3369Q21.1932 10.3915 21.2691 10.4538Q21.3451 10.5161 21.4145 10.5855Q21.4839 10.6549 21.5462 10.7308Q21.6085 10.8068 21.6631 10.8884Q21.7177 10.9701 21.764 11.0567Q21.8103 11.1433 21.8478 11.234Q21.8854 11.3247 21.9139 11.4187Q21.9424 11.5127 21.9616 11.609Q21.9807 11.7053 21.9904 11.8031Q22 11.9008 22 11.999L22 12.001Q22 12.0992 21.9904 12.1969Q21.9807 12.2947 21.9616 12.391Q21.9424 12.4873 21.9139 12.5813Q21.8854 12.6753 21.8478 12.766Q21.8103 12.8567 21.764 12.9433Q21.7177 13.0299 21.6631 13.1116Q21.6085 13.1932 21.5462 13.2692Q21.4839 13.3451 21.4145 13.4145Q21.3451 13.4839 21.2691 13.5462Q21.1932 13.6085 21.1116 13.6631Q21.0299 13.7177 20.9433 13.764Q20.8567 13.8103 20.766 13.8478Q20.6753 13.8854 20.5813 13.9139Q20.4873 13.9424 20.391 13.9616Q20.2947 13.9807 20.1969 13.9904Q20.0992 14 20.001 14L19.999 14Q19.9008 14 19.8031 13.9904Q19.7053 13.9807 19.609 13.9616Q19.5127 13.9424 19.4187 13.9139Q19.3247 13.8854 19.234 13.8478Q19.1433 13.8103 19.0567 13.764Q18.9701 13.7177 18.8884 13.6631Q18.8068 13.6085 18.7308 13.5462Q18.6549 13.4839 18.5855 13.4145Q18.5161 13.3451 18.4538 13.2692Q18.3915 13.1932 18.3369 13.1116Q18.2823 13.0299 18.236 12.9433Q18.1897 12.8567 18.1522 12.766Q18.1146 12.6753 18.0861 12.5813Q18.0576 12.4873 18.0384 12.391Q18.0192 12.2947 18.0096 12.1969Q18 12.0992 18 12.001L18 11.999Q18 11.9008 18.0096 11.8031Q18.0192 11.7053 18.0384 11.609Q18.0576 11.5127 18.0861 11.4187Q18.1146 11.3247 18.1522 11.234Q18.1897 11.1433 18.236 11.0567Q18.2823 10.9701 18.3369 10.8884Q18.3915 10.8068 18.4538 10.7308Q18.5161 10.6549 18.5855 10.5855Q18.6549 10.5161 18.7308 10.4538Q18.8068 10.3915 18.8884 10.3369Q18.9701 10.2823 19.0567 10.236Q19.1433 10.1897 19.234 10.1522Q19.3247 10.1146 19.4187 10.0861Q19.5127 10.0576 19.609 10.0384Q19.7053 10.0193 19.8031 10.0096Q19.9008 10 19.999 10Z" id="Rectangle-Copy-2" fill="#000000" fill-rule="evenodd" stroke="none" />
  </g>
</svg>