<?xml version="1.0" encoding="utf-8"?>
<svg width="20px" height="20px" viewBox="0 0 20 20" version="1.1" xmlns:xlink="http://www.w3.org/1999/xlink" xmlns="http://www.w3.org/2000/svg">
  <defs>
    <filter id="filter_1">
      <feColorMatrix in="SourceGraphic" type="matrix" values="0 0 0 0 0.5176471 0 0 0 0 0.53333336 0 0 0 0 0.54509807 0 0 0 1 0" color-interpolation-filters="sRGB" />
    </filter>
  </defs>
  <g id="Ic--Download" transform="translate(-2 -2)" filter="url(#filter_1)">
    <g id="Group" transform="translate(10.8 6.8)">
      <path d="M1.249 0L1.251 0Q1.31236 0 1.37342 0.00601428Q1.43449 0.0120286 1.49467 0.0239992Q1.55485 0.0359698 1.61357 0.0537815Q1.67228 0.0715932 1.72897 0.0950744Q1.78566 0.118556 1.83977 0.14748Q1.89389 0.176405 1.94491 0.210494Q1.99593 0.244584 2.04336 0.28351Q2.09079 0.322436 2.13418 0.365824Q2.17756 0.409211 2.21649 0.456643Q2.25542 0.504074 2.28951 0.555093Q2.32359 0.606111 2.35252 0.660225Q2.38144 0.71434 2.40493 0.771028Q2.42841 0.827717 2.44622 0.886434Q2.46403 0.945152 2.476 1.00533Q2.48797 1.06551 2.49399 1.12658Q2.5 1.18764 2.5 1.249L2.5 5.751Q2.5 5.81236 2.49399 5.87342Q2.48797 5.93449 2.476 5.99467Q2.46403 6.05485 2.44622 6.11356Q2.42841 6.17228 2.40493 6.22897Q2.38144 6.28566 2.35252 6.33977Q2.32359 6.39389 2.28951 6.44491Q2.25542 6.49592 2.21649 6.54336Q2.17756 6.59079 2.13418 6.63418Q2.09079 6.67756 2.04336 6.71649Q1.99593 6.75542 1.94491 6.7895Q1.89389 6.82359 1.83977 6.85252Q1.78566 6.88144 1.72897 6.90492Q1.67228 6.92841 1.61357 6.94622Q1.55485 6.96403 1.49467 6.976Q1.43449 6.98797 1.37342 6.99399Q1.31236 7 1.251 7L1.249 7Q1.18764 7 1.12658 6.99399Q1.06551 6.98797 1.00533 6.976Q0.945152 6.96403 0.886434 6.94622Q0.827717 6.92841 0.771028 6.90492Q0.71434 6.88144 0.660225 6.85252Q0.606111 6.82359 0.555093 6.7895Q0.504074 6.75541 0.456643 6.71649Q0.409211 6.67756 0.365824 6.63418Q0.322436 6.59079 0.28351 6.54336Q0.244584 6.49592 0.210494 6.44491Q0.176405 6.39389 0.14748 6.33977Q0.118556 6.28566 0.0950744 6.22897Q0.0715932 6.17228 0.0537815 6.11356Q0.0359698 6.05485 0.0239992 5.99467Q0.0120286 5.93449 0.00601428 5.87342Q0 5.81236 0 5.751L0 1.249Q0 1.18764 0.00601428 1.12658Q0.0120286 1.06551 0.0239992 1.00533Q0.0359698 0.945152 0.0537815 0.886434Q0.0715932 0.827717 0.0950744 0.771028Q0.118556 0.71434 0.14748 0.660225Q0.176405 0.606111 0.210494 0.555093Q0.244584 0.504074 0.28351 0.456643Q0.322436 0.409211 0.365824 0.365824Q0.409211 0.322436 0.456643 0.28351Q0.504074 0.244584 0.555093 0.210494Q0.606111 0.176405 0.660225 0.14748Q0.71434 0.118556 0.771028 0.0950744Q0.827717 0.0715932 0.886434 0.0537815Q0.945152 0.0359698 1.00533 0.0239992Q1.06551 0.0120286 1.12658 0.00601428Q1.18764 0 1.249 0Z" id="Rectangle" fill="#151515" fill-rule="evenodd" stroke="none" />
      <path d="M1.25 10.5C1.94036 10.5 2.5 9.94036 2.5 9.25C2.5 8.55964 1.94036 8 1.25 8C0.559644 8 0 8.55964 0 9.25C0 9.94036 0.559644 10.5 1.25 10.5Z" id="Oval" fill="#151515" fill-rule="evenodd" stroke="none" />
    </g>
    <path d="M12 21L12 21C7.029 21 3 16.971 3 12L3 12C3 7.029 7.029 3 12 3L12 3C16.971 3 21 7.029 21 12L21 12C21 16.971 16.971 21 12 21Z" id="Path" fill="none" fill-rule="evenodd" stroke="#151515" stroke-width="2" stroke-linecap="round" stroke-linejoin="round" />
  </g>
</svg>