<?xml version="1.0" encoding="utf-8"?>
<svg width="69px" height="51px" viewBox="0 0 69 51" version="1.1" xmlns:xlink="http://www.w3.org/1999/xlink" xmlns="http://www.w3.org/2000/svg">
  <defs>
    <filter filterUnits="userSpaceOnUse" color-interpolation-filters="sRGB" id="filter_1">
      <feFlood flood-opacity="0" result="BackgroundImageFix" />
      <feColorMatrix in="SourceAlpha" type="matrix" values="0 0 0 0 0 0 0 0 0 0 0 0 0 0 0 0 0 0 127 0" />
      <feOffset dx="0" dy="4" />
      <feGaussianBlur stdDeviation="4" />
      <feColorMatrix type="matrix" values="0 0 0 0 0 0 0 0 0 0 0 0 0 0 0 0 0 0 0.078431375 0" />
      <feBlend mode="normal" in2="BackgroundImageFix" result="effect0_dropShadow" />
      <feBlend mode="normal" in="SourceGraphic" in2="effect0_dropShadow" result="shape" />
    </filter>
    <filter id="filter_2">
      <feColorMatrix in="SourceGraphic" type="matrix" values="0 0 0 0 0 0 0 0 0 0 0 0 0 0 0 0 0 0 1 0" color-interpolation-filters="sRGB" />
    </filter>
    <filter id="filter_3">
      <feColorMatrix in="SourceGraphic" type="matrix" values="0 0 0 0 1 0 0 0 0 0.7372549 0 0 0 0 0 0 0 0 1 0" color-interpolation-filters="sRGB" />
    </filter>
  </defs>
  <g id="Group" transform="translate(12 8)">
    <g id="Badge-2">
      <g id="Badge">
        <g id="Area" filter="url(#filter_2)">
          <path d="M13.499 0L31.501 0Q31.8324 0 32.1634 0.0162601Q32.4943 0.0325203 32.8241 0.0650014Q33.1539 0.0974825 33.4817 0.146106Q33.8095 0.19473 34.1345 0.259379Q34.4595 0.324029 34.781 0.404548Q35.1024 0.485067 35.4196 0.581262Q35.7367 0.677457 36.0487 0.789096Q36.3607 0.900736 36.6668 1.02755Q36.973 1.15436 37.2726 1.29605Q37.5721 1.43773 37.8644 1.59394Q38.1566 1.75016 38.4409 1.92052Q38.7251 2.09089 39.0006 2.27499Q39.2762 2.4591 39.5423 2.6565Q39.8085 2.85391 40.0647 3.06413Q40.3208 3.27436 40.5664 3.4969Q40.8119 3.71944 41.0462 3.95377Q41.2806 4.18809 41.5031 4.43363Q41.7256 4.67916 41.9359 4.93532Q42.1461 5.19149 42.3435 5.45765Q42.5409 5.72382 42.725 5.99936Q42.9091 6.27489 43.0795 6.55913Q43.2498 6.84336 43.4061 7.13562Q43.5623 7.42787 43.7039 7.72743Q43.8456 8.027 43.9724 8.33316Q44.0993 8.63931 44.2109 8.95132Q44.3225 9.26333 44.4187 9.58045Q44.5149 9.89756 44.5954 10.219Q44.676 10.5405 44.7406 10.8655Q44.8053 11.1905 44.8539 11.5183Q44.9025 11.8461 44.935 12.1759Q44.9675 12.5057 44.9837 12.8366Q45 13.1676 45 13.499L45 13.501Q45 13.8324 44.9837 14.1634Q44.9675 14.4943 44.935 14.8241Q44.9025 15.1539 44.8539 15.4817Q44.8053 15.8095 44.7406 16.1345Q44.676 16.4595 44.5955 16.781Q44.5149 17.1024 44.4187 17.4196Q44.3225 17.7367 44.2109 18.0487Q44.0993 18.3607 43.9725 18.6668Q43.8456 18.973 43.704 19.2726Q43.5623 19.5721 43.4061 19.8644Q43.2498 20.1566 43.0795 20.4409Q42.9091 20.7251 42.725 21.0006Q42.5409 21.2762 42.3435 21.5423Q42.1461 21.8085 41.9359 22.0647Q41.7256 22.3208 41.5031 22.5664Q41.2806 22.8119 41.0462 23.0462Q40.8119 23.2806 40.5664 23.5031Q40.3208 23.7256 40.0647 23.9359Q39.8085 24.1461 39.5423 24.3435Q39.2762 24.5409 39.0006 24.725Q38.7251 24.9091 38.4409 25.0795Q38.1566 25.2498 37.8644 25.4061Q37.5721 25.5623 37.2726 25.7039Q36.973 25.8456 36.6668 25.9724Q36.3607 26.0993 36.0487 26.2109Q35.7367 26.3225 35.4196 26.4187Q35.1024 26.5149 34.781 26.5954Q34.4595 26.676 34.1345 26.7406Q33.8095 26.8053 33.4817 26.8539Q33.1539 26.9025 32.8241 26.935Q32.4943 26.9675 32.1634 26.9837Q31.8324 27 31.501 27L13.499 27Q13.1676 27 12.8366 26.9837Q12.5057 26.9675 12.1759 26.935Q11.8461 26.9025 11.5183 26.8539Q11.1905 26.8053 10.8655 26.7406Q10.5405 26.676 10.219 26.5954Q9.89756 26.5149 9.58045 26.4187Q9.26333 26.3225 8.95132 26.2109Q8.63931 26.0993 8.33316 25.9724Q8.027 25.8456 7.72743 25.7039Q7.42787 25.5623 7.13562 25.4061Q6.84336 25.2498 6.55913 25.0795Q6.27489 24.9091 5.99936 24.725Q5.72382 24.5409 5.45765 24.3435Q5.19149 24.1461 4.93533 23.9359Q4.67916 23.7256 4.43363 23.5031Q4.18809 23.2806 3.95377 23.0462Q3.71944 22.8119 3.4969 22.5664Q3.27436 22.3208 3.06413 22.0647Q2.85391 21.8085 2.6565 21.5423Q2.4591 21.2762 2.27499 21.0006Q2.09089 20.7251 1.92052 20.4409Q1.75016 20.1566 1.59394 19.8644Q1.43773 19.5721 1.29605 19.2726Q1.15436 18.973 1.02755 18.6668Q0.900736 18.3607 0.789096 18.0487Q0.677457 17.7367 0.581262 17.4196Q0.485067 17.1024 0.404548 16.781Q0.324029 16.4595 0.259379 16.1345Q0.19473 15.8095 0.146106 15.4817Q0.0974825 15.1539 0.0650014 14.8241Q0.0325203 14.4943 0.0162601 14.1634Q0 13.8324 0 13.501L0 13.499Q0 13.1676 0.0162601 12.8366Q0.0325203 12.5057 0.0650014 12.1759Q0.0974825 11.8461 0.146106 11.5183Q0.19473 11.1905 0.259379 10.8655Q0.324029 10.5405 0.404548 10.219Q0.485067 9.89756 0.581262 9.58045Q0.677457 9.26333 0.789096 8.95132Q0.900736 8.63931 1.02755 8.33316Q1.15436 8.027 1.29605 7.72743Q1.43773 7.42787 1.59394 7.13562Q1.75016 6.84336 1.92052 6.55913Q2.09089 6.27489 2.27499 5.99936Q2.4591 5.72382 2.6565 5.45765Q2.85391 5.19149 3.06413 4.93533Q3.27436 4.67916 3.4969 4.43363Q3.71944 4.18809 3.95377 3.95377Q4.18809 3.71944 4.43363 3.4969Q4.67916 3.27436 4.93532 3.06413Q5.19149 2.85391 5.45765 2.6565Q5.72382 2.4591 5.99936 2.27499Q6.27489 2.09089 6.55913 1.92052Q6.84336 1.75016 7.13562 1.59394Q7.42787 1.43773 7.72743 1.29605Q8.027 1.15436 8.33316 1.02755Q8.63931 0.900736 8.95132 0.789096Q9.26333 0.677457 9.58045 0.581262Q9.89756 0.485067 10.219 0.404548Q10.5405 0.324029 10.8655 0.259379Q11.1905 0.19473 11.5183 0.146106Q11.8461 0.0974825 12.1759 0.0650014Q12.5057 0.0325203 12.8366 0.0162601Q13.1676 0 13.499 0L13.499 0Z" id="Rectangle" fill="#000000" fill-rule="evenodd" stroke="none" filter="url(#filter_1)" />
        </g>
        <g id="Text" transform="translate(9.574463 6)" filter="url(#filter_3)">
          <g id="NEW" fill="#FFBC00" transform="translate(-0.59574413 0)">
            <path d="M6.312 12.234Q5.928 11.37 5.49 10.488Q5.052 9.606 4.566 8.754Q4.08 7.902 3.57 7.098Q3.06 6.294 2.556 5.586L2.556 12.234L0.852 12.234L0.852 2.97L2.52 2.97Q3.012 3.582 3.564 4.344Q4.116 5.106 4.65 5.934Q5.184 6.762 5.664 7.626Q6.144 8.49 6.504 9.306L6.504 2.97L8.208 2.97L8.208 12.234L6.312 12.234ZM15.636 12.042Q15.216 12.09 14.754 12.126Q14.292 12.162 13.824 12.186Q13.356 12.21 12.9 12.222C12.596 12.23 12.316 12.234 12.06 12.234Q11.028 12.234 10.47 11.844Q9.912 11.454 9.912 10.518L9.912 2.97L15.48 2.97L15.48 4.254L11.688 4.254L11.688 6.75L15.288 6.75L15.288 8.034L11.688 8.034L11.688 10.242Q11.688 10.602 11.898 10.764Q12.108 10.926 12.504 10.926L15.636 10.926L15.636 12.042ZM20.796 12.234L22.296 5.862L23.784 12.234L25.692 12.234Q26.04 11.418 26.394 10.302Q26.748 9.186 27.072 7.938Q27.396 6.69 27.666 5.406Q27.936 4.122 28.104 2.97L26.424 2.97Q26.304 3.822 26.13 4.782Q25.956 5.742 25.74 6.696Q25.524 7.65 25.278 8.538Q25.032 9.426 24.768 10.122L23.196 3.33L21.384 3.33L19.824 10.122Q19.332 8.454 18.924 6.624Q18.516 4.794 18.168 2.97L16.476 2.97Q16.668 4.05 16.932 5.292Q17.196 6.534 17.508 7.776Q17.82 9.018 18.162 10.176Q18.504 11.334 18.84 12.234L20.796 12.234Z" />
          </g>
        </g>
      </g>
    </g>
  </g>
</svg>