<?xml version="1.0" encoding="utf-8"?>
<svg width="32px" height="32px" viewBox="0 0 32 32" version="1.1" xmlns:xlink="http://www.w3.org/1999/xlink" xmlns="http://www.w3.org/2000/svg">
  <defs>
    <filter id="filter_1">
      <feColorMatrix in="SourceGraphic" type="matrix" values="0 0 0 0 1 0 0 0 0 1 0 0 0 0 1 0 0 0 1 0" color-interpolation-filters="sRGB" />
    </filter>
  </defs>
  <g id="Ic--Like-Copy-5" filter="url(#filter_1)">
    <path d="M32 32L0 32L0 0L32 0L32 32Z" id="Path" fill="none" fill-rule="evenodd" stroke="none" />
    <path d="M32 32L0 32L0 0L32 0L32 32Z" id="Path" fill="none" fill-rule="evenodd" stroke="none" />
    <g id="chat-messages-bubble-circle.4" transform="translate(5 5)">
      <g id="Group">
        <path d="M14.6667 14.2703L18.3333 14.2703C20.3586 14.2703 22 12.6732 22 10.7027L22 3.56757C22 1.59708 20.3586 0 18.3333 0L3.66667 0C1.64144 0 0 1.59708 0 3.56757L0 10.7027C0 12.6732 1.64144 14.2703 3.66667 14.2703L7.33333 14.2703" id="Path" fill="none" fill-rule="evenodd" stroke="#151515" stroke-width="2" stroke-linecap="round" stroke-linejoin="round" />
        <path d="M14.4369 14.2703L12.1 17.3027C11.55 18.0162 10.45 18.0162 9.9 17.3027L7.56311 14.2703" id="Path" fill="none" fill-rule="evenodd" stroke="#151515" stroke-width="2" stroke-linecap="round" stroke-linejoin="round" />
      </g>
      <path d="M4.88889 21.4054L17.1111 21.4054" id="Path" fill="none" fill-rule="evenodd" stroke="#151515" stroke-width="2" stroke-linecap="round" stroke-linejoin="round" />
    </g>
  </g>
</svg>