<?xml version="1.0" encoding="utf-8"?>
<svg width="110px" height="48px" viewBox="0 0 110 48" version="1.1" xmlns:xlink="http://www.w3.org/1999/xlink" xmlns="http://www.w3.org/2000/svg">
  <defs>
    <filter id="filter_1">
      <feColorMatrix in="SourceGraphic" type="matrix" values="0 0 0 0 0.32941177 0 0 0 0 0.3137255 0 0 0 0 0.27058825 0 0 0 1 0" />
    </filter>
  </defs>
  <g id="Btn--Ic-Text">
    <path d="M15.999 0L94.001 0Q94.3937 0 94.786 0.0192715Q95.1783 0.038543 95.5692 0.0770395Q95.96 0.115536 96.3485 0.173165Q96.737 0.230794 97.1222 0.307416Q97.5074 0.384039 97.8884 0.47947Q98.2694 0.574901 98.6453 0.688911Q99.0211 0.802922 99.3909 0.935236Q99.7607 1.06755 100.124 1.21785Q100.486 1.36815 100.841 1.53607Q101.196 1.704 101.543 1.88914Q101.889 2.07428 102.226 2.2762Q102.563 2.47812 102.89 2.69632Q103.216 2.91452 103.532 3.14848Q103.847 3.38245 104.151 3.63161Q104.454 3.88077 104.745 4.14452Q105.036 4.40828 105.314 4.686Q105.592 4.96372 105.855 5.25473Q106.119 5.54574 106.368 5.84934Q106.618 6.15294 106.852 6.46841Q107.085 6.78387 107.304 7.11043Q107.522 7.43699 107.724 7.77387Q107.926 8.11075 108.111 8.45712Q108.296 8.8035 108.464 9.15855Q108.632 9.51359 108.782 9.87645Q108.932 10.2393 109.065 10.6091Q109.197 10.9789 109.311 11.3547Q109.425 11.7306 109.521 12.1116Q109.616 12.4925 109.693 12.8777Q109.769 13.263 109.827 13.6515Q109.884 14.04 109.923 14.4308Q109.961 14.8217 109.981 15.214Q110 15.6062 110 15.999L110 32.001Q110 32.3938 109.981 32.786Q109.961 33.1783 109.923 33.5692Q109.884 33.96 109.827 34.3485Q109.769 34.737 109.693 35.1222Q109.616 35.5075 109.521 35.8884Q109.425 36.2694 109.311 36.6453Q109.197 37.0211 109.065 37.3909Q108.932 37.7607 108.782 38.1235Q108.632 38.4864 108.464 38.8415Q108.296 39.1965 108.111 39.5429Q107.926 39.8893 107.724 40.2261Q107.522 40.563 107.304 40.8896Q107.085 41.2161 106.852 41.5316Q106.618 41.8471 106.368 42.1507Q106.119 42.4543 105.855 42.7453Q105.592 43.0363 105.314 43.314Q105.036 43.5917 104.745 43.8555Q104.454 44.1192 104.151 44.3684Q103.847 44.6175 103.532 44.8515Q103.216 45.0855 102.89 45.3037Q102.563 45.5219 102.226 45.7238Q101.889 45.9257 101.543 46.1109Q101.196 46.296 100.841 46.4639Q100.486 46.6318 100.124 46.7821Q99.7607 46.9324 99.3909 47.0648Q99.0211 47.1971 98.6453 47.3111Q98.2694 47.4251 97.8884 47.5205Q97.5074 47.616 97.1222 47.6926Q96.737 47.7692 96.3485 47.8268Q95.96 47.8845 95.5692 47.923Q95.1783 47.9615 94.786 47.9807Q94.3937 48 94.001 48L15.999 48Q15.6062 48 15.214 47.9807Q14.8217 47.9615 14.4308 47.923Q14.04 47.8845 13.6515 47.8268Q13.263 47.7692 12.8777 47.6926Q12.4925 47.616 12.1116 47.5205Q11.7306 47.4251 11.3547 47.3111Q10.9789 47.1971 10.6091 47.0648Q10.2393 46.9324 9.87645 46.7821Q9.51359 46.6318 9.15855 46.4639Q8.8035 46.296 8.45712 46.1109Q8.11075 45.9257 7.77387 45.7238Q7.43699 45.5219 7.11043 45.3037Q6.78387 45.0855 6.46841 44.8515Q6.15294 44.6175 5.84934 44.3684Q5.54574 44.1192 5.25473 43.8555Q4.96372 43.5917 4.686 43.314Q4.40828 43.0363 4.14452 42.7453Q3.88077 42.4543 3.63161 42.1507Q3.38245 41.8471 3.14848 41.5316Q2.91452 41.2161 2.69632 40.8896Q2.47812 40.563 2.2762 40.2261Q2.07428 39.8892 1.88914 39.5429Q1.704 39.1965 1.53607 38.8415Q1.36815 38.4864 1.21785 38.1235Q1.06755 37.7607 0.935236 37.3909Q0.802922 37.0211 0.688911 36.6453Q0.574901 36.2694 0.47947 35.8884Q0.384039 35.5075 0.307416 35.1222Q0.230794 34.737 0.173165 34.3485Q0.115536 33.96 0.0770395 33.5692Q0.038543 33.1783 0.0192715 32.786Q0 32.3938 0 32.001L0 15.999Q0 15.6062 0.0192715 15.214Q0.038543 14.8217 0.0770395 14.4308Q0.115536 14.04 0.173165 13.6515Q0.230794 13.263 0.307416 12.8777Q0.384039 12.4925 0.47947 12.1116Q0.574901 11.7306 0.688911 11.3547Q0.802922 10.9789 0.935236 10.6091Q1.06755 10.2393 1.21785 9.87645Q1.36815 9.51359 1.53607 9.15855Q1.704 8.8035 1.88914 8.45712Q2.07428 8.11075 2.2762 7.77387Q2.47812 7.43699 2.69632 7.11043Q2.91452 6.78387 3.14848 6.46841Q3.38245 6.15294 3.63161 5.84934Q3.88077 5.54574 4.14452 5.25473Q4.40828 4.96372 4.686 4.686Q4.96372 4.40828 5.25473 4.14452Q5.54574 3.88077 5.84934 3.63161Q6.15294 3.38245 6.46841 3.14848Q6.78387 2.91452 7.11043 2.69632Q7.43699 2.47812 7.77387 2.2762Q8.11075 2.07428 8.45712 1.88914Q8.8035 1.704 9.15855 1.53607Q9.51359 1.36815 9.87645 1.21785Q10.2393 1.06755 10.6091 0.935236Q10.9789 0.802922 11.3547 0.688911Q11.7306 0.574901 12.1116 0.47947Q12.4925 0.384039 12.8777 0.307416Q13.263 0.230794 13.6515 0.173165Q14.04 0.115536 14.4308 0.0770395Q14.8217 0.038543 15.214 0.0192715Q15.6062 0 15.999 0Z" id="Area" fill="#F7F4F0" fill-rule="evenodd" stroke="none" />
    <g id="Ic--팔로우" transform="translate(12 9)" filter="url(#filter_1)">
      <path d="M0 0L32 0L32 32L0 32L0 0Z" id="Area" fill="none" fill-rule="evenodd" stroke="none" />
      <path d="M18.3666 8.13781L8.28623 18.2182C7.92938 18.5751 7.69835 19.0371 7.62624 19.5373L7.01001 23.8588C6.91704 24.5109 7.46888 25.0732 8.12256 24.9925L12.3226 24.4738C12.8364 24.411 13.3164 24.1768 13.6849 23.8107L23.8618 13.6338C25.2952 12.2004 25.3826 9.9096 24.0775 8.3724L23.8901 8.16776C22.3447 6.62111 19.8851 6.62111 18.3666 8.13781ZM22.4476 9.55244L22.5798 9.69717C23.1854 10.4118 23.1429 11.5242 22.4476 12.2196L12.2729 22.3942L12.2156 22.4397C12.1742 22.4657 12.127 22.4828 12.0787 22.4887L9.17333 22.8467L9.60599 19.8212C9.61632 19.7495 9.64928 19.6836 9.70044 19.6324L19.7804 9.55244C20.5175 8.81623 21.7113 8.81623 22.4476 9.55244Z" id="Path" fill="#000000" stroke="none" />
    </g>
    <g id="글쓰기" fill="#545045" transform="translate(48 14)">
      <path d="M39.536 17.592L41.376 17.592L41.376 2.968L39.536 2.968L39.536 17.592ZM0.48 9.128L0.48 7.64L9.84 7.64Q9.968 7.064 10.024 6.48Q10.08 5.896 10.08 5.24L10.08 4.68L2.32 4.68L2.32 3.16L11.376 3.16Q11.92 3.16 11.92 3.704L11.92 5.048Q11.92 5.768 11.808 6.4Q11.696 7.032 11.504 7.64L13.92 7.64L13.92 9.128L0.48 9.128ZM21.6 11.224Q20.64 10.536 19.984 9.696Q19.328 8.856 18.992 8.168Q18.656 8.792 17.984 9.616Q17.312 10.44 16.352 11.208L15.28 10.136Q15.856 9.688 16.368 9.152Q16.88 8.616 17.264 8.04Q17.648 7.464 17.872 6.856Q18.096 6.248 18.096 5.64L18.096 3.528L19.872 3.528L19.872 5.64Q19.872 6.12 20.008 6.648Q20.144 7.176 20.384 7.664Q20.624 8.152 20.936 8.592Q21.248 9.032 21.6 9.352Q21.952 9.032 22.264 8.592Q22.576 8.152 22.816 7.664Q23.056 7.176 23.192 6.648Q23.328 6.12 23.328 5.64L23.328 3.528L25.104 3.528L25.104 5.64Q25.104 6.248 25.328 6.856Q25.552 7.464 25.936 8.04Q26.32 8.616 26.832 9.152Q27.344 9.688 27.92 10.136L26.848 11.208Q25.888 10.44 25.216 9.616Q24.544 8.792 24.208 8.168Q23.872 8.856 23.216 9.696Q22.56 10.536 21.6 11.224ZM36.272 8.608Q36.848 7.368 36.848 5.88L36.848 4.344Q36.848 3.8 36.304 3.8L29.872 3.8L29.872 5.384L35.008 5.384L35.008 6.04Q35.008 7.192 34.584 8.16Q34.16 9.128 33.408 9.928Q32.656 10.728 31.64 11.4Q30.624 12.072 29.44 12.648L30.256 13.944Q31.472 13.4 32.648 12.624Q33.824 11.848 34.76 10.848Q35.696 9.848 36.272 8.608ZM3.856 17.912Q2.24 17.912 2.24 16.296L2.24 13.464L10.32 13.464L10.32 12.072L2.24 12.072L2.24 10.552L11.776 10.552Q12.16 10.552 12.16 10.936L12.16 14.952L4.08 14.952L4.08 16.024Q4.08 16.208 4.172 16.3Q4.264 16.392 4.448 16.392L12.48 16.392L12.48 17.912L3.856 17.912ZM28.32 15.192L14.88 15.192L14.88 13.608L28.32 13.608L28.32 15.192Z" />
    </g>
  </g>
</svg>