<?xml version="1.0" encoding="utf-8"?>
<svg width="42px" height="42px" viewBox="0 0 42 42" version="1.1" xmlns:xlink="http://www.w3.org/1999/xlink" xmlns="http://www.w3.org/2000/svg">
  <defs>
    <filter id="filter_1">
      <feColorMatrix in="SourceGraphic" type="matrix" values="0 0 0 0 1 0 0 0 0 1 0 0 0 0 1 0 0 0 1 0" />
    </filter>
    <path d="M11.249 5L28.751 5Q28.9044 5 29.0576 5.00753Q29.2108 5.01505 29.3635 5.03009Q29.5162 5.04513 29.6679 5.06764Q29.8197 5.09014 29.9701 5.12007Q30.1206 5.15 30.2694 5.18727Q30.4182 5.22455 30.565 5.26908Q30.7118 5.31361 30.8562 5.36529Q31.0007 5.41697 31.1424 5.47568Q31.2841 5.53438 31.4228 5.59997Q31.5615 5.66556 31.6968 5.73787Q31.832 5.81019 31.9636 5.88905Q32.0952 5.96792 32.2228 6.05315Q32.3503 6.13837 32.4735 6.22976Q32.5967 6.32114 32.7153 6.41846Q32.8339 6.51578 32.9476 6.6188Q33.0612 6.72182 33.1697 6.83029Q33.2782 6.93876 33.3812 7.05243Q33.4842 7.16609 33.5815 7.28468Q33.6789 7.40326 33.7702 7.52647Q33.8616 7.64969 33.9468 7.77724Q34.0321 7.90479 34.1109 8.03637Q34.1898 8.16795 34.2621 8.30324Q34.3344 8.43853 34.4 8.57721Q34.4656 8.71588 34.5243 8.85761Q34.583 8.99934 34.6347 9.14377Q34.6864 9.28821 34.7309 9.43501Q34.7754 9.58181 34.8127 9.73062Q34.85 9.87942 34.8799 10.0299Q34.9098 10.1803 34.9324 10.3321Q34.9549 10.4838 34.9699 10.6365Q34.9849 10.7892 34.9925 10.9424Q35 11.0956 35 11.249L35 28.751Q35 28.9044 34.9925 29.0576Q34.9849 29.2108 34.9699 29.3635Q34.9549 29.5162 34.9324 29.6679Q34.9098 29.8197 34.8799 29.9701Q34.85 30.1206 34.8127 30.2694Q34.7754 30.4182 34.7309 30.565Q34.6864 30.7118 34.6347 30.8562Q34.583 31.0007 34.5243 31.1424Q34.4656 31.2841 34.4 31.4228Q34.3344 31.5615 34.2621 31.6968Q34.1898 31.832 34.1109 31.9636Q34.0321 32.0952 33.9468 32.2228Q33.8616 32.3503 33.7702 32.4735Q33.6789 32.5967 33.5815 32.7153Q33.4842 32.8339 33.3812 32.9476Q33.2782 33.0612 33.1697 33.1697Q33.0612 33.2782 32.9476 33.3812Q32.8339 33.4842 32.7153 33.5815Q32.5967 33.6789 32.4735 33.7702Q32.3503 33.8616 32.2228 33.9468Q32.0952 34.0321 31.9636 34.1109Q31.832 34.1898 31.6968 34.2621Q31.5615 34.3344 31.4228 34.4Q31.2841 34.4656 31.1424 34.5243Q31.0007 34.583 30.8562 34.6347Q30.7118 34.6864 30.565 34.7309Q30.4182 34.7754 30.2694 34.8127Q30.1206 34.85 29.9701 34.8799Q29.8197 34.9098 29.6679 34.9324Q29.5162 34.9549 29.3635 34.9699Q29.2108 34.9849 29.0576 34.9925Q28.9044 35 28.751 35L11.249 35Q11.0956 35 10.9424 34.9925Q10.7892 34.9849 10.6365 34.9699Q10.4838 34.9549 10.3321 34.9324Q10.1803 34.9098 10.0299 34.8799Q9.87942 34.85 9.73062 34.8127Q9.58181 34.7754 9.43501 34.7309Q9.28821 34.6864 9.14377 34.6347Q8.99934 34.583 8.85761 34.5243Q8.71588 34.4656 8.57721 34.4Q8.43853 34.3344 8.30324 34.2621Q8.16795 34.1898 8.03637 34.1109Q7.90479 34.0321 7.77724 33.9468Q7.64969 33.8616 7.52647 33.7702Q7.40326 33.6789 7.28468 33.5815Q7.16609 33.4842 7.05243 33.3812Q6.93876 33.2782 6.83029 33.1697Q6.72182 33.0612 6.6188 32.9476Q6.51578 32.8339 6.41846 32.7153Q6.32114 32.5967 6.22976 32.4735Q6.13837 32.3503 6.05315 32.2228Q5.96792 32.0952 5.88905 31.9636Q5.81019 31.832 5.73787 31.6968Q5.66556 31.5615 5.59997 31.4228Q5.53438 31.2841 5.47568 31.1424Q5.41697 31.0007 5.36529 30.8562Q5.31361 30.7118 5.26908 30.565Q5.22455 30.4182 5.18727 30.2694Q5.15 30.1206 5.12007 29.9701Q5.09014 29.8197 5.06764 29.6679Q5.04513 29.5162 5.03009 29.3635Q5.01505 29.2108 5.00753 29.0576Q5 28.9044 5 28.751L5 11.249Q5 11.0956 5.00753 10.9424Q5.01505 10.7892 5.03009 10.6365Q5.04513 10.4838 5.06764 10.3321Q5.09014 10.1803 5.12007 10.0299Q5.15 9.87942 5.18727 9.73062Q5.22455 9.58181 5.26908 9.43501Q5.31361 9.28821 5.36529 9.14377Q5.41697 8.99934 5.47568 8.85761Q5.53438 8.71588 5.59997 8.57721Q5.66556 8.43853 5.73787 8.30324Q5.81019 8.16795 5.88905 8.03637Q5.96792 7.90479 6.05315 7.77724Q6.13837 7.64969 6.22976 7.52647Q6.32114 7.40326 6.41846 7.28468Q6.51578 7.16609 6.6188 7.05243Q6.72182 6.93876 6.83029 6.83029Q6.93876 6.72182 7.05243 6.6188Q7.16609 6.51578 7.28468 6.41846Q7.40326 6.32114 7.52647 6.22976Q7.64969 6.13837 7.77724 6.05315Q7.90479 5.96792 8.03637 5.88905Q8.16795 5.81019 8.30324 5.73787Q8.43853 5.66556 8.57721 5.59997Q8.71588 5.53438 8.85761 5.47568Q8.99934 5.41697 9.14377 5.36529Q9.28821 5.31361 9.43501 5.26908Q9.58181 5.22455 9.73062 5.18727Q9.87942 5.15 10.0299 5.12007Q10.1803 5.09014 10.3321 5.06764Q10.4838 5.04513 10.6365 5.03009Q10.7892 5.01505 10.9424 5.00753Q11.0956 5 11.249 5L11.249 5Z" id="path_1" />
    <clipPath id="clip_1">
      <use xlink:href="#path_1" />
    </clipPath>
  </defs>
  <g id="volume-wifi-network-signal-stream.1" transform="translate(1 1)" filter="url(#filter_1)">
    <path d="M0 40L0 0L40 0L40 40" id="Path" fill="none" fill-rule="evenodd" stroke="none" />
    <g id="menu-burger-square.2">
      <path d="M0 0L40 0L40 40L0 40L0 0Z" id="Path" fill="none" fill-rule="evenodd" stroke="none" />
      <path d="M15 23.3333L25 23.3333" id="Path" fill="none" fill-rule="evenodd" stroke="#FFFFFF" stroke-width="2" stroke-linecap="round" stroke-linejoin="round" />
      <path d="M13.3333 16.6667L26.6667 16.6667" id="Path" fill="none" fill-rule="evenodd" stroke="#FFFFFF" stroke-width="2" stroke-linecap="round" stroke-linejoin="round" />
      <g id="Rectangle">
        <g clip-path="url(#clip_1)">
          <use xlink:href="#path_1" fill="none" stroke="#FFFFFF" stroke-width="4" stroke-linecap="round" stroke-linejoin="round" />
        </g>
      </g>
    </g>
  </g>
</svg>