<?xml version="1.0" encoding="utf-8"?>
<svg width="88px" height="88px" viewBox="0 0 88 88" version="1.1" xmlns:xlink="http://www.w3.org/1999/xlink" xmlns="http://www.w3.org/2000/svg">
  <defs>
    <filter filterUnits="userSpaceOnUse" color-interpolation-filters="sRGB" id="filter_1">
      <feFlood flood-opacity="0" result="BackgroundImageFix" />
      <feBlend mode="normal" in="SourceGraphic" in2="BackgroundImageFix" result="shape" />
      <feGaussianBlur stdDeviation="8" result="effect0_gaussianBlur" />
    </filter>
    <path d="M20 40C31.0457 40 40 31.0457 40 20C40 8.9543 31.0457 0 20 0C8.9543 0 0 8.9543 0 20C0 31.0457 8.9543 40 20 40Z" id="path_1" />
    <clipPath id="mask_1">
      <use xlink:href="#path_1" />
    </clipPath>
  </defs>
  <g id="Group" transform="translate(24 24)">
    <g id="Ic--Close">
      <use xlink:href="#Ic / Close" filter="url(#filter_1)" clip-path="url(#mask_1)" />
      <path d="M21.4142 20L25.6576 15.7566Q25.7271 15.6871 25.7818 15.6053Q25.8365 15.5234 25.8741 15.4325Q25.9118 15.3416 25.931 15.2451Q25.9502 15.1486 25.9502 15.0502Q25.9502 14.9518 25.931 14.8553Q25.9118 14.7588 25.8741 14.6679Q25.8365 14.577 25.7818 14.4952Q25.7271 14.4134 25.6576 14.3438L25.6561 14.3424Q25.5866 14.2729 25.5048 14.2182Q25.4229 14.1635 25.332 14.1259Q25.2411 14.0882 25.1446 14.069Q25.0481 14.0498 24.9497 14.0498Q24.8514 14.0498 24.7549 14.069Q24.6583 14.0882 24.5674 14.1259Q24.4765 14.1635 24.3947 14.2182Q24.3129 14.2729 24.2433 14.3424L20 18.5858L15.7567 14.3424Q15.6871 14.2729 15.6053 14.2182Q15.5235 14.1635 15.4326 14.1259Q15.3416 14.0882 15.2451 14.069Q15.1486 14.0498 15.0503 14.0498Q14.9519 14.0498 14.8554 14.069Q14.7589 14.0882 14.668 14.1259Q14.577 14.1635 14.4952 14.2182Q14.4134 14.2729 14.3439 14.3424L14.3424 14.3438Q14.2729 14.4134 14.2182 14.4952Q14.1635 14.577 14.1259 14.6679Q14.0882 14.7588 14.069 14.8553Q14.0498 14.9518 14.0498 15.0502Q14.0498 15.1486 14.069 15.2451Q14.0882 15.3416 14.1259 15.4325Q14.1635 15.5234 14.2182 15.6053Q14.2729 15.6871 14.3424 15.7566L18.5858 20L14.3424 24.2433Q14.2729 24.3129 14.2182 24.3947Q14.1635 24.4765 14.1259 24.5674Q14.0882 24.6583 14.069 24.7548Q14.0498 24.8513 14.0498 24.9497Q14.0498 25.0481 14.069 25.1446Q14.0882 25.2411 14.1259 25.332Q14.1635 25.4229 14.2182 25.5047Q14.2729 25.5866 14.3424 25.6561L14.3439 25.6575Q14.4134 25.7271 14.4952 25.7818Q14.577 25.8365 14.668 25.8741Q14.7589 25.9118 14.8554 25.931Q14.9519 25.9501 15.0503 25.9501Q15.1486 25.9501 15.2451 25.931Q15.3416 25.9118 15.4326 25.8741Q15.5235 25.8365 15.6053 25.7818Q15.6871 25.7271 15.7567 25.6575L20 21.4142L24.2433 25.6575Q24.3129 25.7271 24.3947 25.7818Q24.4765 25.8365 24.5674 25.8741Q24.6583 25.9118 24.7548 25.931Q24.8514 25.9501 24.9497 25.9501Q25.0481 25.9501 25.1446 25.931Q25.2411 25.9118 25.332 25.8741Q25.423 25.8365 25.5048 25.7818Q25.5866 25.7271 25.6561 25.6575L25.6576 25.6561Q25.7271 25.5866 25.7818 25.5047Q25.8365 25.4229 25.8741 25.332Q25.9118 25.2411 25.931 25.1446Q25.9502 25.0481 25.9502 24.9497Q25.9502 24.8513 25.931 24.7548Q25.9118 24.6583 25.8741 24.5674Q25.8365 24.4765 25.7818 24.3947Q25.7271 24.3129 25.6576 24.2433L21.4142 20Z" id="Combined-Shape" fill="#FFFFFF" fill-rule="evenodd" stroke="none" />
      <g id="Ic--Close">
        <g id="Group">
          <use xlink:href="#Group" filter="url(#filter_1)" clip-path="url(#mask_1)" />
          <path d="M21.4142 20L25.6576 15.7567Q25.7271 15.6871 25.7818 15.6053Q25.8365 15.5235 25.8741 15.4326Q25.9118 15.3416 25.931 15.2451Q25.9502 15.1486 25.9502 15.0503Q25.9502 14.9519 25.931 14.8554Q25.9118 14.7589 25.8741 14.668Q25.8365 14.577 25.7818 14.4952Q25.7271 14.4134 25.6576 14.3439L25.6561 14.3424Q25.5866 14.2729 25.5048 14.2182Q25.4229 14.1635 25.332 14.1259Q25.2411 14.0882 25.1446 14.069Q25.0481 14.0498 24.9497 14.0498Q24.8514 14.0498 24.7549 14.069Q24.6583 14.0882 24.5674 14.1259Q24.4765 14.1635 24.3947 14.2182Q24.3129 14.2729 24.2433 14.3424L20 18.5858L15.7567 14.3424Q15.6871 14.2729 15.6053 14.2182Q15.5235 14.1635 15.4326 14.1259Q15.3416 14.0882 15.2451 14.069Q15.1486 14.0498 15.0503 14.0498Q14.9519 14.0498 14.8554 14.069Q14.7589 14.0882 14.668 14.1259Q14.577 14.1635 14.4952 14.2182Q14.4134 14.2729 14.3439 14.3424L14.3424 14.3439Q14.2729 14.4134 14.2182 14.4952Q14.1635 14.577 14.1259 14.668Q14.0882 14.7589 14.069 14.8554Q14.0498 14.9519 14.0498 15.0503Q14.0498 15.1486 14.069 15.2451Q14.0882 15.3416 14.1259 15.4326Q14.1635 15.5235 14.2182 15.6053Q14.2729 15.6871 14.3424 15.7567L18.5858 20L14.3424 24.2433Q14.2729 24.3129 14.2182 24.3947Q14.1635 24.4765 14.1259 24.5674Q14.0882 24.6583 14.069 24.7548Q14.0498 24.8514 14.0498 24.9497Q14.0498 25.0481 14.069 25.1446Q14.0882 25.2411 14.1259 25.332Q14.1635 25.4229 14.2182 25.5048Q14.2729 25.5866 14.3424 25.6561L14.3439 25.6576Q14.4134 25.7271 14.4952 25.7818Q14.577 25.8365 14.668 25.8741Q14.7589 25.9118 14.8554 25.931Q14.9519 25.9502 15.0503 25.9502Q15.1486 25.9502 15.2451 25.931Q15.3416 25.9118 15.4326 25.8741Q15.5235 25.8365 15.6053 25.7818Q15.6871 25.7271 15.7567 25.6576L20 21.4142L24.2433 25.6576Q24.3129 25.7271 24.3947 25.7818Q24.4765 25.8365 24.5674 25.8741Q24.6583 25.9118 24.7548 25.931Q24.8514 25.9502 24.9497 25.9502Q25.0481 25.9502 25.1446 25.931Q25.2411 25.9118 25.332 25.8741Q25.423 25.8365 25.5048 25.7818Q25.5866 25.7271 25.6561 25.6576L25.6576 25.6561Q25.7271 25.5866 25.7818 25.5048Q25.8365 25.4229 25.8741 25.332Q25.9118 25.2411 25.931 25.1446Q25.9502 25.0481 25.9502 24.9497Q25.9502 24.8514 25.931 24.7549Q25.9118 24.6583 25.8741 24.5674Q25.8365 24.4765 25.7818 24.3947Q25.7271 24.3129 25.6576 24.2433L21.4142 20Z" id="Combined-Shape" fill="#FFFFFF" fill-rule="evenodd" stroke="#FFFFFF" stroke-width="1" />
        </g>
      </g>
    </g>
  </g>
</svg>