<?xml version="1.0" encoding="utf-8"?>
<svg width="34px" height="34px" viewBox="0 0 34 34" version="1.1" xmlns:xlink="http://www.w3.org/1999/xlink" xmlns="http://www.w3.org/2000/svg">
  <defs>
    <filter id="filter_1">
      <feColorMatrix in="SourceGraphic" type="matrix" values="0 0 0 0 1 0 0 0 0 1 0 0 0 0 1 0 0 0 1 0" />
    </filter>
  </defs>
  <g id="volume-wifi-network-signal-stream.1-copy" transform="translate(1 1)" filter="url(#filter_1)">
    <path d="M0 32L0 0L32 0L32 32" id="Path" fill="none" fill-rule="evenodd" stroke="none" />
    <g id="Group" transform="translate(4 4)">
      <path d="M22.5213 16.3293C24.492 13.804 24.492 10.1947 22.5213 7.66933" id="Path" fill="none" fill-rule="evenodd" stroke="#FFFFFF" stroke-width="2" stroke-linecap="round" stroke-linejoin="round" />
      <path d="M19.1387 9.476C20.2867 10.948 20.2867 13.0533 19.1387 14.5267" id="Path" fill="none" fill-rule="evenodd" stroke="#FFFFFF" stroke-width="2" stroke-linecap="round" stroke-linejoin="round" />
      <path d="M22.6667 20L22.6667 20C22.6667 22.2093 20.876 24 18.6667 24L4 24C1.79067 24 0 22.2093 0 20L0 4C0 1.79067 1.79067 0 4 0L18.6667 0C20.876 0 22.6667 1.79067 22.6667 4L22.6667 4" id="Path" fill="none" fill-rule="evenodd" stroke="#FFFFFF" stroke-width="2" stroke-linecap="round" stroke-linejoin="round" />
      <path d="M11 14.6827L14.3333 17.3493L14.3333 6.65067L11 9.35067L9 9.35067C8.264 9.35067 7.66667 9.948 7.66667 10.684L7.66667 13.3507C7.66667 14.0867 8.264 14.684 9 14.684L11 14.684L11 14.6827Z" id="Path" fill="none" fill-rule="evenodd" stroke="#FFFFFF" stroke-width="2" stroke-linecap="round" stroke-linejoin="round" />
    </g>
  </g>
</svg>