<?xml version="1.0" encoding="utf-8"?>
<svg width="20px" height="20px" viewBox="0 0 20 20" version="1.1" xmlns:xlink="http://www.w3.org/1999/xlink" xmlns="http://www.w3.org/2000/svg">
  <defs>
    <filter id="filter_1">
      <feColorMatrix in="SourceGraphic" type="matrix" values="0 0 0 0 0.08235294 0 0 0 0 0.08235294 0 0 0 0 0.08235294 0 0 0 1 0" />
    </filter>
  </defs>
  <g id="Ic--Arrow">
    <g id="Ic--Arrow" filter="url(#filter_1)">
      <path d="M0 0L20 0L20 20L0 20L0 0Z" transform="matrix(-1 0 0 1 20 0)" id="Path" fill="none" fill-rule="evenodd" stroke="none" />
      <path d="M0 0L7.5 0L7.5 13.3333L0 13.3333L0 0Z" transform="translate(6.6666665 3.3333333)" id="button-area" fill="#FFFFFF" fill-opacity="0.011764706" fill-rule="evenodd" stroke="none" />
      <path d="M1.81066 5.92593L6.53033 1.26452C6.82322 0.975246 6.82322 0.506235 6.53033 0.216958C6.23744 -0.0723193 5.76256 -0.0723193 5.46967 0.216958L0.21967 5.40214C-0.0732233 5.69142 -0.0732233 6.16043 0.21967 6.44971L5.46967 11.6349C5.76256 11.9242 6.23744 11.9242 6.53033 11.6349C6.82322 11.3456 6.82322 10.8766 6.53033 10.5873L1.81066 5.92593Z" transform="translate(6.6666665 4.074074)" id="Path" fill="#000000" fill-rule="evenodd" stroke="#000000" stroke-width="0.5" />
    </g>
  </g>
</svg>