<?xml version="1.0" encoding="utf-8"?>
<svg width="32px" height="32px" viewBox="0 0 32 32" version="1.1" xmlns:xlink="http://www.w3.org/1999/xlink" xmlns="http://www.w3.org/2000/svg">
  <defs>
    <filter id="filter_1">
      <feColorMatrix in="SourceGraphic" type="matrix" values="0 0 0 0 0.32941177 0 0 0 0 0.3137255 0 0 0 0 0.27058825 0 0 0 1 0" color-interpolation-filters="sRGB" />
    </filter>
  </defs>
  <g id="Ic--팔로우" filter="url(#filter_1)">
    <path d="M0 0L32 0L32 32L0 32L0 0Z" id="Area" fill="none" fill-rule="evenodd" stroke="none" />
    <path d="M18.3669 8.1378L8.28648 18.2182C7.92964 18.5751 7.69861 19.0371 7.62649 19.5373L7.01027 23.8588C6.91729 24.5109 7.46913 25.0732 8.12282 24.9925L12.3228 24.4738C12.8367 24.411 13.3167 24.1768 13.6851 23.8107L23.862 13.6338C25.2954 12.2004 25.3828 9.90959 24.0778 8.37239L23.8904 8.16775C22.3449 6.6211 19.8854 6.6211 18.3669 8.1378ZM22.4474 9.55242L22.5796 9.69715C23.1852 10.4118 23.1428 11.5242 22.4474 12.2195L12.2727 22.3942L12.2154 22.4397C12.174 22.4657 12.1269 22.4828 12.0786 22.4887L9.17318 22.8467L9.60583 19.8211C9.61616 19.7495 9.64913 19.6836 9.70028 19.6324L19.7803 9.55242C20.5174 8.81621 21.7112 8.81621 22.4474 9.55242Z" id="Path" fill="#000000" stroke="none" />
  </g>
</svg>