<?xml version="1.0" encoding="utf-8"?>
<svg width="25px" height="25px" viewBox="0 0 25 25" version="1.1" xmlns:xlink="http://www.w3.org/1999/xlink" xmlns="http://www.w3.org/2000/svg">
  <defs>
    <filter id="filter_1">
      <feColorMatrix in="SourceGraphic" type="matrix" values="0 0 0 0 0.08235294 0 0 0 0 0.08235294 0 0 0 0 0.08235294 0 0 0 1 0" />
    </filter>
  </defs>
  <g id="Ic--Arrow" transform="translate(0.5 0.5)">
    <g id="Ic--Arrow" filter="url(#filter_1)">
      <path d="M24 0L0 0L0 24L24 24L24 0Z" id="Path" fill="none" fill-rule="evenodd" stroke="none" />
      <path d="M8 4L17 4L17 20L8 20L8 4Z" id="button-area" fill="#FFFFFF" fill-opacity="0.011764706" fill-rule="evenodd" stroke="none" />
      <path d="M10.1728 11.9998L15.8364 6.4061C16.1879 6.05897 16.1879 5.49615 15.8364 5.14902C15.4849 4.80189 14.9151 4.80189 14.5636 5.14902L8.2636 11.3712C7.91213 11.7184 7.91213 12.2812 8.2636 12.6283L14.5636 18.8505C14.9151 19.1977 15.4849 19.1977 15.8364 18.8505C16.1879 18.5034 16.1879 17.9406 15.8364 17.5935L10.1728 11.9998Z" id="Path" fill="#000000" fill-rule="evenodd" stroke="#000000" stroke-width="1" />
    </g>
  </g>
</svg>