<?xml version="1.0" encoding="utf-8"?>
<svg width="34px" height="34px" viewBox="0 0 34 34" version="1.1" xmlns:xlink="http://www.w3.org/1999/xlink" xmlns="http://www.w3.org/2000/svg">
  <defs>
    <filter id="filter_1">
      <feColorMatrix in="SourceGraphic" type="matrix" values="0 0 0 0 1 0 0 0 0 1 0 0 0 0 1 0 0 0 1 0" />
    </filter>
  </defs>
  <g id="full-screen-zoom-square" transform="translate(1 1)" filter="url(#filter_1)">
    <path d="M8.999 4L23.001 4Q23.1237 4 23.2463 4.00602Q23.3689 4.01204 23.491 4.02407Q23.6131 4.0361 23.7345 4.05411Q23.8559 4.07211 23.9763 4.09605Q24.0966 4.12 24.2157 4.14981Q24.3347 4.17963 24.4521 4.21526Q24.5696 4.25088 24.6851 4.29222Q24.8007 4.33356 24.914 4.38053Q25.0274 4.42749 25.1383 4.47996Q25.2493 4.53243 25.3575 4.59028Q25.4657 4.64812 25.571 4.71121Q25.6763 4.7743 25.7783 4.84248Q25.8803 4.91066 25.9789 4.98377Q26.0775 5.05687 26.1723 5.13472Q26.2672 5.21257 26.3581 5.29499Q26.449 5.3774 26.5358 5.46417Q26.6226 5.55095 26.705 5.64188Q26.7874 5.73281 26.8653 5.82767Q26.9431 5.92253 27.0162 6.0211Q27.0893 6.11967 27.1575 6.2217Q27.2257 6.32374 27.2888 6.429Q27.3519 6.53426 27.4097 6.64249Q27.4676 6.75072 27.52 6.86165Q27.5725 6.97259 27.6195 7.08597Q27.6664 7.19934 27.7078 7.31489Q27.7491 7.43043 27.7847 7.54787Q27.8204 7.6653 27.8502 7.78434Q27.88 7.90338 27.9039 8.02374Q27.9279 8.1441 27.9459 8.26549Q27.9639 8.38688 27.9759 8.50901Q27.988 8.63114 27.994 8.75371Q28 8.87628 28 8.999L28 23.001Q28 23.1237 27.994 23.2463Q27.988 23.3689 27.9759 23.491Q27.9639 23.6131 27.9459 23.7345Q27.9279 23.8559 27.9039 23.9763Q27.88 24.0966 27.8502 24.2157Q27.8204 24.3347 27.7847 24.4521Q27.7491 24.5696 27.7078 24.6851Q27.6664 24.8007 27.6195 24.914Q27.5725 25.0274 27.52 25.1383Q27.4676 25.2493 27.4097 25.3575Q27.3519 25.4657 27.2888 25.571Q27.2257 25.6763 27.1575 25.7783Q27.0893 25.8803 27.0162 25.9789Q26.9431 26.0775 26.8653 26.1723Q26.7874 26.2672 26.705 26.3581Q26.6226 26.449 26.5358 26.5358Q26.449 26.6226 26.3581 26.705Q26.2672 26.7874 26.1723 26.8653Q26.0775 26.9431 25.9789 27.0162Q25.8803 27.0893 25.7783 27.1575Q25.6763 27.2257 25.571 27.2888Q25.4657 27.3519 25.3575 27.4097Q25.2493 27.4676 25.1383 27.52Q25.0274 27.5725 24.914 27.6195Q24.8007 27.6664 24.6851 27.7078Q24.5696 27.7491 24.4521 27.7847Q24.3347 27.8204 24.2157 27.8502Q24.0966 27.88 23.9763 27.9039Q23.8559 27.9279 23.7345 27.9459Q23.6131 27.9639 23.491 27.9759Q23.3689 27.988 23.2463 27.994Q23.1237 28 23.001 28L8.999 28Q8.87628 28 8.75371 27.994Q8.63114 27.988 8.50901 27.9759Q8.38688 27.9639 8.26549 27.9459Q8.1441 27.9279 8.02374 27.9039Q7.90338 27.88 7.78434 27.8502Q7.6653 27.8204 7.54787 27.7847Q7.43043 27.7491 7.31489 27.7078Q7.19934 27.6664 7.08597 27.6195Q6.97259 27.5725 6.86165 27.52Q6.75072 27.4676 6.64249 27.4097Q6.53426 27.3519 6.429 27.2888Q6.32374 27.2257 6.2217 27.1575Q6.11967 27.0893 6.0211 27.0162Q5.92253 26.9431 5.82767 26.8653Q5.73281 26.7874 5.64188 26.705Q5.55095 26.6226 5.46417 26.5358Q5.3774 26.449 5.29498 26.3581Q5.21257 26.2672 5.13472 26.1723Q5.05687 26.0775 4.98377 25.9789Q4.91066 25.8803 4.84248 25.7783Q4.7743 25.6763 4.71121 25.571Q4.64812 25.4657 4.59028 25.3575Q4.53243 25.2493 4.47996 25.1383Q4.42749 25.0274 4.38053 24.914Q4.33356 24.8007 4.29222 24.6851Q4.25088 24.5696 4.21525 24.4521Q4.17963 24.3347 4.14981 24.2157Q4.12 24.0966 4.09605 23.9763Q4.07211 23.8559 4.05411 23.7345Q4.0361 23.6131 4.02407 23.491Q4.01204 23.3689 4.00602 23.2463Q4 23.1237 4 23.001L4 8.999Q4 8.87628 4.00602 8.75371Q4.01204 8.63114 4.02407 8.50901Q4.0361 8.38688 4.05411 8.26549Q4.07211 8.1441 4.09605 8.02374Q4.12 7.90338 4.14981 7.78434Q4.17963 7.6653 4.21525 7.54787Q4.25088 7.43043 4.29222 7.31489Q4.33356 7.19934 4.38053 7.08597Q4.42749 6.97259 4.47996 6.86165Q4.53243 6.75072 4.59028 6.64249Q4.64812 6.53426 4.71121 6.429Q4.7743 6.32374 4.84248 6.2217Q4.91066 6.11967 4.98377 6.0211Q5.05687 5.92253 5.13472 5.82767Q5.21257 5.73281 5.29499 5.64188Q5.3774 5.55095 5.46417 5.46417Q5.55095 5.3774 5.64188 5.29498Q5.73281 5.21257 5.82767 5.13472Q5.92253 5.05687 6.0211 4.98377Q6.11967 4.91066 6.2217 4.84248Q6.32374 4.7743 6.429 4.71121Q6.53426 4.64812 6.64249 4.59028Q6.75072 4.53243 6.86165 4.47996Q6.97259 4.42749 7.08597 4.38053Q7.19934 4.33356 7.31489 4.29222Q7.43043 4.25088 7.54787 4.21526Q7.6653 4.17963 7.78434 4.14981Q7.90338 4.12 8.02374 4.09605Q8.1441 4.07211 8.26549 4.05411Q8.38688 4.0361 8.50901 4.02407Q8.63114 4.01204 8.75371 4.00602Q8.87628 4 8.999 4Z" id="Rectangle" fill="none" fill-rule="evenodd" stroke="#FFFFFF" stroke-width="2" stroke-linecap="round" stroke-linejoin="round" />
    <path d="M16.6667 11.3333L20.6667 11.3333L20.6667 15.3333" id="Path" fill="none" fill-rule="evenodd" stroke="#FFFFFF" stroke-width="2" stroke-linecap="round" stroke-linejoin="round" />
    <path d="M15.3333 20.6667L11.3333 20.6667L11.3333 16.6667" id="Path" fill="none" fill-rule="evenodd" stroke="#FFFFFF" stroke-width="2" stroke-linecap="round" stroke-linejoin="round" />
    <path d="M0 0L32 0L32 32L0 32L0 0Z" id="Path" fill="none" fill-rule="evenodd" stroke="none" />
  </g>
</svg>