<?xml version="1.0" encoding="utf-8"?>
<svg width="69px" height="69px" viewBox="0 0 69 69" version="1.1" xmlns:xlink="http://www.w3.org/1999/xlink" xmlns="http://www.w3.org/2000/svg">
  <defs>
    <filter filterUnits="userSpaceOnUse" color-interpolation-filters="sRGB" id="filter_1">
      <feFlood flood-opacity="0" result="BackgroundImageFix" />
      <feColorMatrix in="SourceAlpha" type="matrix" values="0 0 0 0 0 0 0 0 0 0 0 0 0 0 0 0 0 0 127 0" />
      <feOffset dx="0" dy="4" />
      <feGaussianBlur stdDeviation="3.5" />
      <feColorMatrix type="matrix" values="0 0 0 0 0 0 0 0 0 0 0 0 0 0 0 0 0 0 0.16078432 0" />
      <feBlend mode="normal" in2="BackgroundImageFix" result="effect0_dropShadow" />
      <feBlend mode="normal" in="SourceGraphic" in2="effect0_dropShadow" result="shape" />
    </filter>
    <path d="M14.7682 0L33.2318 0Q33.5943 0 33.9564 0.017789Q34.3185 0.035578 34.6793 0.0711131Q35.0401 0.106648 35.3987 0.159844Q35.7573 0.213039 36.1129 0.283767Q36.4685 0.354495 36.8201 0.442585Q37.1718 0.530675 37.5188 0.635915Q37.8657 0.741155 38.207 0.863291Q38.5484 0.985427 38.8833 1.12416Q39.2183 1.2629 39.546 1.41791Q39.8737 1.57291 40.1935 1.74381Q40.5132 1.91471 40.8242 2.1011Q41.1351 2.28748 41.4366 2.4889Q41.738 2.69031 42.0292 2.90628Q42.3204 3.12224 42.6006 3.35223Q42.8809 3.58223 43.1495 3.82569Q43.4181 4.06916 43.6745 4.32551Q43.9308 4.58187 44.1743 4.85049Q44.4178 5.11912 44.6478 5.39936Q44.8778 5.67961 45.0937 5.97081Q45.3097 6.262 45.5111 6.56344Q45.7125 6.86488 45.8989 7.17584Q46.0853 7.4868 46.2562 7.80653Q46.4271 8.12627 46.5821 8.454Q46.7371 8.78173 46.8758 9.11667Q47.0146 9.45162 47.1367 9.79296Q47.2588 10.1343 47.3641 10.4812Q47.4693 10.8282 47.5574 11.1798Q47.6455 11.5315 47.7162 11.8871Q47.787 12.2427 47.8402 12.6013Q47.8933 12.9599 47.9289 13.3207Q47.9644 13.6815 47.9822 14.0436Q48 14.4057 48 14.7682L48 33.2318Q48 33.5943 47.9822 33.9564Q47.9644 34.3185 47.9289 34.6793Q47.8933 35.0401 47.8402 35.3987Q47.7869 35.7573 47.7162 36.1129Q47.6455 36.4685 47.5574 36.8201Q47.4693 37.1718 47.3641 37.5188Q47.2588 37.8657 47.1367 38.207Q47.0146 38.5484 46.8758 38.8833Q46.7371 39.2183 46.5821 39.546Q46.4271 39.8737 46.2562 40.1935Q46.0853 40.5132 45.8989 40.8242Q45.7125 41.1351 45.5111 41.4366Q45.3097 41.738 45.0937 42.0292Q44.8778 42.3204 44.6478 42.6006Q44.4178 42.8809 44.1743 43.1495Q43.9308 43.4181 43.6745 43.6745Q43.4181 43.9308 43.1495 44.1743Q42.8809 44.4178 42.6006 44.6478Q42.3204 44.8778 42.0292 45.0937Q41.738 45.3097 41.4366 45.5111Q41.1351 45.7125 40.8241 45.8989Q40.5132 46.0853 40.1935 46.2562Q39.8737 46.4271 39.546 46.5821Q39.2183 46.7371 38.8833 46.8758Q38.5484 47.0146 38.207 47.1367Q37.8657 47.2588 37.5188 47.3641Q37.1718 47.4693 36.8201 47.5574Q36.4685 47.6455 36.1129 47.7162Q35.7573 47.787 35.3987 47.8402Q35.0401 47.8933 34.6793 47.9289Q34.3185 47.9644 33.9564 47.9822Q33.5943 48 33.2318 48L14.7682 48Q14.4057 48 14.0436 47.9822Q13.6815 47.9644 13.3207 47.9289Q12.9599 47.8933 12.6013 47.8402Q12.2427 47.7869 11.8871 47.7162Q11.5315 47.6455 11.1798 47.5574Q10.8282 47.4693 10.4812 47.3641Q10.1343 47.2588 9.79296 47.1367Q9.45162 47.0146 9.11667 46.8758Q8.78173 46.7371 8.454 46.5821Q8.12627 46.4271 7.80653 46.2562Q7.4868 46.0853 7.17584 45.8989Q6.86488 45.7125 6.56344 45.5111Q6.262 45.3097 5.97081 45.0937Q5.67961 44.8778 5.39936 44.6478Q5.11912 44.4178 4.85049 44.1743Q4.58187 43.9308 4.32551 43.6745Q4.06916 43.4181 3.82569 43.1495Q3.58223 42.8809 3.35223 42.6006Q3.12224 42.3204 2.90628 42.0292Q2.69031 41.738 2.4889 41.4366Q2.28748 41.1351 2.1011 40.8241Q1.91471 40.5132 1.74381 40.1935Q1.57291 39.8737 1.41791 39.546Q1.2629 39.2183 1.12416 38.8833Q0.985427 38.5484 0.863291 38.207Q0.741155 37.8657 0.635915 37.5188Q0.530675 37.1718 0.442585 36.8201Q0.354495 36.4685 0.283767 36.1129Q0.213039 35.7573 0.159844 35.3987Q0.106648 35.0401 0.0711131 34.6793Q0.035578 34.3185 0.017789 33.9564Q0 33.5943 0 33.2318L0 14.7682Q0 14.4057 0.017789 14.0436Q0.035578 13.6815 0.0711131 13.3207Q0.106648 12.9599 0.159844 12.6013Q0.213039 12.2427 0.283767 11.8871Q0.354495 11.5315 0.442585 11.1798Q0.530675 10.8282 0.635915 10.4812Q0.741155 10.1343 0.863291 9.79296Q0.985427 9.45162 1.12416 9.11667Q1.2629 8.78173 1.41791 8.454Q1.57291 8.12627 1.74381 7.80653Q1.91471 7.4868 2.1011 7.17584Q2.28748 6.86488 2.4889 6.56344Q2.69031 6.262 2.90628 5.97081Q3.12224 5.67961 3.35223 5.39936Q3.58223 5.11912 3.82569 4.85049Q4.06916 4.58187 4.32551 4.32551Q4.58187 4.06916 4.85049 3.82569Q5.11912 3.58223 5.39936 3.35223Q5.67961 3.12224 5.97081 2.90628Q6.262 2.69031 6.56344 2.4889Q6.86488 2.28748 7.17584 2.1011Q7.4868 1.91471 7.80653 1.74381Q8.12627 1.57291 8.454 1.41791Q8.78173 1.2629 9.11667 1.12416Q9.45162 0.985427 9.79296 0.863291Q10.1343 0.741155 10.4812 0.635915Q10.8282 0.530675 11.1798 0.442585Q11.5315 0.354495 11.8871 0.283767Q12.2427 0.213039 12.6013 0.159844Q12.9599 0.106648 13.3207 0.0711131Q13.6815 0.035578 14.0436 0.017789Q14.4057 0 14.7682 0L14.7682 0Z" id="path_1" />
    <path d="M15.6913 2.76923L32.3087 2.76923Q32.6259 2.76923 32.9428 2.7848Q33.2596 2.80036 33.5753 2.83145Q33.891 2.86255 34.2048 2.90909Q34.5185 2.95564 34.8297 3.01752Q35.1408 3.07941 35.4485 3.15649Q35.7562 3.23357 36.0598 3.32565Q36.3633 3.41773 36.662 3.5246Q36.9607 3.63147 37.2538 3.75286Q37.5468 3.87426 37.8336 4.00989Q38.1203 4.14552 38.4001 4.29505Q38.6799 4.44459 38.952 4.60767Q39.2241 4.77076 39.4878 4.94699Q39.7516 5.12323 40.0064 5.3122Q40.2612 5.50117 40.5064 5.70241Q40.7516 5.90365 40.9866 6.11668Q41.2217 6.32971 41.446 6.55402Q41.6703 6.77833 41.8833 7.01337Q42.0964 7.24841 42.2976 7.49363Q42.4988 7.73884 42.6878 7.99363Q42.8768 8.24843 43.053 8.51218Q43.2292 8.77594 43.3923 9.04803Q43.5554 9.32012 43.7049 9.59988Q43.8545 9.87964 43.9901 10.1664Q44.1257 10.4532 44.2471 10.7462Q44.3685 11.0393 44.4754 11.338Q44.5823 11.6367 44.6744 11.9402Q44.7664 12.2438 44.8435 12.5515Q44.9206 12.8592 44.9825 13.1703Q45.0444 13.4815 45.0909 13.7952Q45.1375 14.109 45.1685 14.4247Q45.1996 14.7404 45.2152 15.0573Q45.2308 15.3741 45.2308 15.6913L45.2308 32.3087Q45.2308 32.6259 45.2152 32.9428Q45.1996 33.2596 45.1685 33.5753Q45.1375 33.891 45.0909 34.2048Q45.0444 34.5185 44.9825 34.8297Q44.9206 35.1408 44.8435 35.4485Q44.7664 35.7562 44.6744 36.0598Q44.5823 36.3633 44.4754 36.662Q44.3685 36.9607 44.2471 37.2538Q44.1257 37.5468 43.9901 37.8336Q43.8545 38.1203 43.7049 38.4001Q43.5554 38.6799 43.3923 38.952Q43.2292 39.2241 43.053 39.4878Q42.8768 39.7516 42.6878 40.0064Q42.4988 40.2612 42.2976 40.5064Q42.0964 40.7516 41.8833 40.9866Q41.6703 41.2217 41.446 41.446Q41.2217 41.6703 40.9866 41.8833Q40.7516 42.0964 40.5064 42.2976Q40.2612 42.4988 40.0064 42.6878Q39.7516 42.8768 39.4878 43.053Q39.2241 43.2292 38.952 43.3923Q38.6799 43.5554 38.4001 43.7049Q38.1203 43.8545 37.8336 43.9901Q37.5468 44.1257 37.2538 44.2471Q36.9607 44.3685 36.662 44.4754Q36.3633 44.5823 36.0598 44.6744Q35.7562 44.7664 35.4485 44.8435Q35.1408 44.9206 34.8297 44.9825Q34.5185 45.0444 34.2048 45.0909Q33.891 45.1375 33.5753 45.1685Q33.2596 45.1996 32.9428 45.2152Q32.6259 45.2308 32.3087 45.2308L15.6913 45.2308Q15.3741 45.2308 15.0573 45.2152Q14.7404 45.1996 14.4247 45.1685Q14.109 45.1375 13.7952 45.0909Q13.4815 45.0444 13.1703 44.9825Q12.8592 44.9206 12.5515 44.8435Q12.2438 44.7664 11.9402 44.6744Q11.6367 44.5823 11.338 44.4754Q11.0393 44.3685 10.7462 44.2471Q10.4532 44.1257 10.1664 43.9901Q9.87964 43.8545 9.59988 43.7049Q9.32012 43.5554 9.04803 43.3923Q8.77594 43.2292 8.51219 43.053Q8.24843 42.8768 7.99363 42.6878Q7.73884 42.4988 7.49363 42.2976Q7.24841 42.0964 7.01337 41.8833Q6.77833 41.6703 6.55402 41.446Q6.32971 41.2217 6.11668 40.9866Q5.90365 40.7516 5.70241 40.5064Q5.50117 40.2612 5.3122 40.0064Q5.12323 39.7516 4.94699 39.4878Q4.77076 39.2241 4.60767 38.952Q4.44459 38.6799 4.29505 38.4001Q4.14552 38.1203 4.00989 37.8336Q3.87426 37.5468 3.75287 37.2538Q3.63147 36.9607 3.5246 36.662Q3.41773 36.3633 3.32565 36.0598Q3.23357 35.7562 3.15649 35.4485Q3.07941 35.1408 3.01752 34.8297Q2.95564 34.5185 2.90909 34.2048Q2.86255 33.891 2.83145 33.5753Q2.80036 33.2596 2.7848 32.9428Q2.76923 32.6259 2.76923 32.3087L2.76923 15.6913Q2.76923 15.3741 2.7848 15.0573Q2.80036 14.7404 2.83145 14.4247Q2.86255 14.109 2.90909 13.7952Q2.95564 13.4815 3.01752 13.1703Q3.07941 12.8592 3.15649 12.5515Q3.23357 12.2438 3.32565 11.9402Q3.41773 11.6367 3.5246 11.338Q3.63147 11.0393 3.75286 10.7462Q3.87426 10.4532 4.00989 10.1664Q4.14552 9.87964 4.29505 9.59988Q4.44459 9.32012 4.60767 9.04803Q4.77076 8.77594 4.94699 8.51219Q5.12323 8.24843 5.3122 7.99363Q5.50117 7.73884 5.70241 7.49363Q5.90365 7.24841 6.11668 7.01337Q6.32971 6.77833 6.55402 6.55402Q6.77833 6.32971 7.01337 6.11668Q7.24841 5.90365 7.49363 5.70241Q7.73884 5.50117 7.99363 5.3122Q8.24843 5.12323 8.51218 4.94699Q8.77594 4.77076 9.04803 4.60767Q9.32012 4.44459 9.59988 4.29505Q9.87964 4.14552 10.1664 4.00989Q10.4532 3.87426 10.7462 3.75287Q11.0393 3.63147 11.338 3.5246Q11.6367 3.41773 11.9402 3.32565Q12.2438 3.23357 12.5515 3.15649Q12.8592 3.07941 13.1703 3.01752Q13.4815 2.95564 13.7952 2.90909Q14.109 2.86255 14.4247 2.83145Q14.7404 2.80036 15.0573 2.7848Q15.3741 2.76923 15.6913 2.76923L15.6913 2.76923Z" id="path_2" />
    <clipPath id="mask_1">
      <use xlink:href="#path_1" />
    </clipPath>
    <clipPath id="mask_2">
      <use xlink:href="#path_2" />
    </clipPath>
  </defs>
  <g id="Ic_back-Copy" transform="translate(10.5 6.5)">
    <path d="M14.7682 0L33.2318 0Q33.5943 0 33.9564 0.017789Q34.3185 0.035578 34.6793 0.0711131Q35.0401 0.106648 35.3987 0.159844Q35.7573 0.213039 36.1129 0.283767Q36.4685 0.354495 36.8201 0.442585Q37.1718 0.530675 37.5188 0.635915Q37.8657 0.741155 38.207 0.863291Q38.5484 0.985427 38.8833 1.12416Q39.2183 1.2629 39.546 1.41791Q39.8737 1.57291 40.1935 1.74381Q40.5132 1.91471 40.8242 2.1011Q41.1351 2.28748 41.4366 2.4889Q41.738 2.69031 42.0292 2.90628Q42.3204 3.12224 42.6006 3.35223Q42.8809 3.58223 43.1495 3.82569Q43.4181 4.06916 43.6745 4.32551Q43.9308 4.58187 44.1743 4.85049Q44.4178 5.11912 44.6478 5.39936Q44.8778 5.67961 45.0937 5.97081Q45.3097 6.262 45.5111 6.56344Q45.7125 6.86488 45.8989 7.17584Q46.0853 7.4868 46.2562 7.80653Q46.4271 8.12627 46.5821 8.454Q46.7371 8.78173 46.8758 9.11667Q47.0146 9.45162 47.1367 9.79296Q47.2588 10.1343 47.3641 10.4812Q47.4693 10.8282 47.5574 11.1798Q47.6455 11.5315 47.7162 11.8871Q47.787 12.2427 47.8402 12.6013Q47.8933 12.9599 47.9289 13.3207Q47.9644 13.6815 47.9822 14.0436Q48 14.4057 48 14.7682L48 33.2318Q48 33.5943 47.9822 33.9564Q47.9644 34.3185 47.9289 34.6793Q47.8933 35.0401 47.8402 35.3987Q47.7869 35.7573 47.7162 36.1129Q47.6455 36.4685 47.5574 36.8201Q47.4693 37.1718 47.3641 37.5188Q47.2588 37.8657 47.1367 38.207Q47.0146 38.5484 46.8758 38.8833Q46.7371 39.2183 46.5821 39.546Q46.4271 39.8737 46.2562 40.1935Q46.0853 40.5132 45.8989 40.8242Q45.7125 41.1351 45.5111 41.4366Q45.3097 41.738 45.0937 42.0292Q44.8778 42.3204 44.6478 42.6006Q44.4178 42.8809 44.1743 43.1495Q43.9308 43.4181 43.6745 43.6745Q43.4181 43.9308 43.1495 44.1743Q42.8809 44.4178 42.6006 44.6478Q42.3204 44.8778 42.0292 45.0937Q41.738 45.3097 41.4366 45.5111Q41.1351 45.7125 40.8241 45.8989Q40.5132 46.0853 40.1935 46.2562Q39.8737 46.4271 39.546 46.5821Q39.2183 46.7371 38.8833 46.8758Q38.5484 47.0146 38.207 47.1367Q37.8657 47.2588 37.5188 47.3641Q37.1718 47.4693 36.8201 47.5574Q36.4685 47.6455 36.1129 47.7162Q35.7573 47.787 35.3987 47.8402Q35.0401 47.8933 34.6793 47.9289Q34.3185 47.9644 33.9564 47.9822Q33.5943 48 33.2318 48L14.7682 48Q14.4057 48 14.0436 47.9822Q13.6815 47.9644 13.3207 47.9289Q12.9599 47.8933 12.6013 47.8402Q12.2427 47.7869 11.8871 47.7162Q11.5315 47.6455 11.1798 47.5574Q10.8282 47.4693 10.4812 47.3641Q10.1343 47.2588 9.79296 47.1367Q9.45162 47.0146 9.11667 46.8758Q8.78173 46.7371 8.454 46.5821Q8.12627 46.4271 7.80653 46.2562Q7.4868 46.0853 7.17584 45.8989Q6.86488 45.7125 6.56344 45.5111Q6.262 45.3097 5.97081 45.0937Q5.67961 44.8778 5.39936 44.6478Q5.11912 44.4178 4.85049 44.1743Q4.58187 43.9308 4.32551 43.6745Q4.06916 43.4181 3.82569 43.1495Q3.58223 42.8809 3.35223 42.6006Q3.12224 42.3204 2.90628 42.0292Q2.69031 41.738 2.4889 41.4366Q2.28748 41.1351 2.1011 40.8241Q1.91471 40.5132 1.74381 40.1935Q1.57291 39.8737 1.41791 39.546Q1.2629 39.2183 1.12416 38.8833Q0.985427 38.5484 0.863291 38.207Q0.741155 37.8657 0.635915 37.5188Q0.530675 37.1718 0.442585 36.8201Q0.354495 36.4685 0.283767 36.1129Q0.213039 35.7573 0.159844 35.3987Q0.106648 35.0401 0.0711131 34.6793Q0.035578 34.3185 0.017789 33.9564Q0 33.5943 0 33.2318L0 14.7682Q0 14.4057 0.017789 14.0436Q0.035578 13.6815 0.0711131 13.3207Q0.106648 12.9599 0.159844 12.6013Q0.213039 12.2427 0.283767 11.8871Q0.354495 11.5315 0.442585 11.1798Q0.530675 10.8282 0.635915 10.4812Q0.741155 10.1343 0.863291 9.79296Q0.985427 9.45162 1.12416 9.11667Q1.2629 8.78173 1.41791 8.454Q1.57291 8.12627 1.74381 7.80653Q1.91471 7.4868 2.1011 7.17584Q2.28748 6.86488 2.4889 6.56344Q2.69031 6.262 2.90628 5.97081Q3.12224 5.67961 3.35223 5.39936Q3.58223 5.11912 3.82569 4.85049Q4.06916 4.58187 4.32551 4.32551Q4.58187 4.06916 4.85049 3.82569Q5.11912 3.58223 5.39936 3.35223Q5.67961 3.12224 5.97081 2.90628Q6.262 2.69031 6.56344 2.4889Q6.86488 2.28748 7.17584 2.1011Q7.4868 1.91471 7.80653 1.74381Q8.12627 1.57291 8.454 1.41791Q8.78173 1.2629 9.11667 1.12416Q9.45162 0.985427 9.79296 0.863291Q10.1343 0.741155 10.4812 0.635915Q10.8282 0.530675 11.1798 0.442585Q11.5315 0.354495 11.8871 0.283767Q12.2427 0.213039 12.6013 0.159844Q12.9599 0.106648 13.3207 0.0711131Q13.6815 0.035578 14.0436 0.017789Q14.4057 0 14.7682 0L14.7682 0Z" id="Rectangle-Copy" fill="#FFFFFF" fill-rule="evenodd" stroke="none" filter="url(#filter_1)" />
    <path d="M15.6913 2.76923L32.3087 2.76923Q32.6259 2.76923 32.9428 2.7848Q33.2596 2.80036 33.5753 2.83145Q33.891 2.86255 34.2048 2.90909Q34.5185 2.95564 34.8297 3.01752Q35.1408 3.07941 35.4485 3.15649Q35.7562 3.23357 36.0598 3.32565Q36.3633 3.41773 36.662 3.5246Q36.9607 3.63147 37.2538 3.75286Q37.5468 3.87426 37.8336 4.00989Q38.1203 4.14552 38.4001 4.29505Q38.6799 4.44459 38.952 4.60767Q39.2241 4.77076 39.4878 4.94699Q39.7516 5.12323 40.0064 5.3122Q40.2612 5.50117 40.5064 5.70241Q40.7516 5.90365 40.9866 6.11668Q41.2217 6.32971 41.446 6.55402Q41.6703 6.77833 41.8833 7.01337Q42.0964 7.24841 42.2976 7.49363Q42.4988 7.73884 42.6878 7.99363Q42.8768 8.24843 43.053 8.51218Q43.2292 8.77594 43.3923 9.04803Q43.5554 9.32012 43.7049 9.59988Q43.8545 9.87964 43.9901 10.1664Q44.1257 10.4532 44.2471 10.7462Q44.3685 11.0393 44.4754 11.338Q44.5823 11.6367 44.6744 11.9402Q44.7664 12.2438 44.8435 12.5515Q44.9206 12.8592 44.9825 13.1703Q45.0444 13.4815 45.0909 13.7952Q45.1375 14.109 45.1685 14.4247Q45.1996 14.7404 45.2152 15.0573Q45.2308 15.3741 45.2308 15.6913L45.2308 32.3087Q45.2308 32.6259 45.2152 32.9428Q45.1996 33.2596 45.1685 33.5753Q45.1375 33.891 45.0909 34.2048Q45.0444 34.5185 44.9825 34.8297Q44.9206 35.1408 44.8435 35.4485Q44.7664 35.7562 44.6744 36.0598Q44.5823 36.3633 44.4754 36.662Q44.3685 36.9607 44.2471 37.2538Q44.1257 37.5468 43.9901 37.8336Q43.8545 38.1203 43.7049 38.4001Q43.5554 38.6799 43.3923 38.952Q43.2292 39.2241 43.053 39.4878Q42.8768 39.7516 42.6878 40.0064Q42.4988 40.2612 42.2976 40.5064Q42.0964 40.7516 41.8833 40.9866Q41.6703 41.2217 41.446 41.446Q41.2217 41.6703 40.9866 41.8833Q40.7516 42.0964 40.5064 42.2976Q40.2612 42.4988 40.0064 42.6878Q39.7516 42.8768 39.4878 43.053Q39.2241 43.2292 38.952 43.3923Q38.6799 43.5554 38.4001 43.7049Q38.1203 43.8545 37.8336 43.9901Q37.5468 44.1257 37.2538 44.2471Q36.9607 44.3685 36.662 44.4754Q36.3633 44.5823 36.0598 44.6744Q35.7562 44.7664 35.4485 44.8435Q35.1408 44.9206 34.8297 44.9825Q34.5185 45.0444 34.2048 45.0909Q33.891 45.1375 33.5753 45.1685Q33.2596 45.1996 32.9428 45.2152Q32.6259 45.2308 32.3087 45.2308L15.6913 45.2308Q15.3741 45.2308 15.0573 45.2152Q14.7404 45.1996 14.4247 45.1685Q14.109 45.1375 13.7952 45.0909Q13.4815 45.0444 13.1703 44.9825Q12.8592 44.9206 12.5515 44.8435Q12.2438 44.7664 11.9402 44.6744Q11.6367 44.5823 11.338 44.4754Q11.0393 44.3685 10.7462 44.2471Q10.4532 44.1257 10.1664 43.9901Q9.87964 43.8545 9.59988 43.7049Q9.32012 43.5554 9.04803 43.3923Q8.77594 43.2292 8.51219 43.053Q8.24843 42.8768 7.99363 42.6878Q7.73884 42.4988 7.49363 42.2976Q7.24841 42.0964 7.01337 41.8833Q6.77833 41.6703 6.55402 41.446Q6.32971 41.2217 6.11668 40.9866Q5.90365 40.7516 5.70241 40.5064Q5.50117 40.2612 5.3122 40.0064Q5.12323 39.7516 4.94699 39.4878Q4.77076 39.2241 4.60767 38.952Q4.44459 38.6799 4.29505 38.4001Q4.14552 38.1203 4.00989 37.8336Q3.87426 37.5468 3.75287 37.2538Q3.63147 36.9607 3.5246 36.662Q3.41773 36.3633 3.32565 36.0598Q3.23357 35.7562 3.15649 35.4485Q3.07941 35.1408 3.01752 34.8297Q2.95564 34.5185 2.90909 34.2048Q2.86255 33.891 2.83145 33.5753Q2.80036 33.2596 2.7848 32.9428Q2.76923 32.6259 2.76923 32.3087L2.76923 15.6913Q2.76923 15.3741 2.7848 15.0573Q2.80036 14.7404 2.83145 14.4247Q2.86255 14.109 2.90909 13.7952Q2.95564 13.4815 3.01752 13.1703Q3.07941 12.8592 3.15649 12.5515Q3.23357 12.2438 3.32565 11.9402Q3.41773 11.6367 3.5246 11.338Q3.63147 11.0393 3.75286 10.7462Q3.87426 10.4532 4.00989 10.1664Q4.14552 9.87964 4.29505 9.59988Q4.44459 9.32012 4.60767 9.04803Q4.77076 8.77594 4.94699 8.51219Q5.12323 8.24843 5.3122 7.99363Q5.50117 7.73884 5.70241 7.49363Q5.90365 7.24841 6.11668 7.01337Q6.32971 6.77833 6.55402 6.55402Q6.77833 6.32971 7.01337 6.11668Q7.24841 5.90365 7.49363 5.70241Q7.73884 5.50117 7.99363 5.3122Q8.24843 5.12323 8.51218 4.94699Q8.77594 4.77076 9.04803 4.60767Q9.32012 4.44459 9.59988 4.29505Q9.87964 4.14552 10.1664 4.00989Q10.4532 3.87426 10.7462 3.75287Q11.0393 3.63147 11.338 3.5246Q11.6367 3.41773 11.9402 3.32565Q12.2438 3.23357 12.5515 3.15649Q12.8592 3.07941 13.1703 3.01752Q13.4815 2.95564 13.7952 2.90909Q14.109 2.86255 14.4247 2.83145Q14.7404 2.80036 15.0573 2.7848Q15.3741 2.76923 15.6913 2.76923L15.6913 2.76923Z" id="Rectangle-Copy-13" fill="#FFFFFF" fill-rule="evenodd" stroke="none" />
    <g clip-path="url(#mask_2)">
      <g id="집중모드" transform="translate(-11.076923 7.3846154)">
        <g id="Group-12" transform="translate(4.508183 38.046104)">
          <path d="M0 26.8008L19.4424 35.5167L38.2381 24.4109L39.2855 0" id="Stroke-11" fill="none" fill-rule="evenodd" stroke="#231916" stroke-width="0.99898106" stroke-linecap="round" stroke-linejoin="round" />
        </g>
        <g id="Group-16" transform="translate(16.231218 15.171544)">
          <path d="M12.9963 57.652C18.486 55.4901 32.5186 50.629 33.3128 46.783C35.3557 36.8868 38.4893 11.7642 35.9488 6.94299C34.2303 3.6816 27.5461 1.26491 21.6678 0.596562C15.7896 -0.071303 6.83125 -0.560389 4.579 1.31412C1.96737 3.48821 0 24.061 0 24.061" id="Fill-13" fill="#C30F23" fill-rule="evenodd" stroke="none" />
          <path d="M12.9963 57.652C18.486 55.4901 32.5186 50.629 33.3128 46.783C35.3557 36.8868 38.4893 11.7642 35.9488 6.94299C34.2303 3.6816 27.5461 1.26491 21.6678 0.596562C15.7896 -0.071303 6.83125 -0.560389 4.579 1.31412C1.96737 3.48821 0 24.061 0 24.061" id="Stroke-15" fill="none" fill-rule="evenodd" stroke="#231916" stroke-width="0.99898106" stroke-linejoin="round" />
        </g>
        <path d="M34.8577 53.3229L35.1241 31.9308L31.7299 11.2586L26.6259 10.7354L17.7674 52.468L12.9698 59.3571L23.1826 61.7348L34.8577 53.3229Z" id="Fill-17" fill="#FEFEFE" fill-rule="evenodd" stroke="none" />
        <path d="M26.4776 15.2689L23.095 16.2495L20.1591 31.4623L15.377 44.5497L9.3522 59.0557L14.8949 61.8119L28.4016 52.3868" id="Fill-19" fill="#FEFEFE" fill-rule="evenodd" stroke="none" />
        <path d="M28.4014 9.39163C27.6875 7.31545 27.7956 0.239781 25.5629 0.0054681C24.494 -0.106573 23.5088 1.53216 23.1421 2.26189C20.213 8.09048 22.6216 14.2031 23.1826 14.8958C21.7981 21.251 21.3447 25.8695 19.4996 32.0908" id="Fill-21" fill="#FEFEFE" fill-rule="evenodd" stroke="none" />
        <path d="M27.5501 9.59506C29.5028 9.10256 32.3092 8.50971 36.2562 9.55657C40.2031 10.6039 43.3762 12.7093 44.7699 14.1639C47.7429 17.267 46.2907 21.0813 45.7531 22.8632C44.8176 25.9614 42.0842 34.0781 41.3187 37.8797C39.7677 45.5823 36.1218 50.1848 32.8079 57.5211" id="Fill-23" fill="#FEFEFE" fill-rule="evenodd" stroke="none" />
        <path d="M23.1824 14.8958C23.1824 14.8958 23.3314 14.2728 23.4488 13.8914" id="Stroke-25" fill="none" fill-rule="evenodd" stroke="#231916" stroke-width="0.99898106" stroke-linecap="round" stroke-linejoin="round" />
        <path d="M28.4014 9.39163C27.6875 7.31545 27.7956 0.239781 25.5629 0.0054681C24.494 -0.106573 23.5088 1.53216 23.1421 2.26189C20.213 8.09048 22.6216 14.2031 23.1826 14.8958C22.3508 18.7125 21.8556 21.9028 21.1923 25.1905C21.1923 25.1905 20.5587 29.9245 20.1594 31.4624C19.2118 35.1091 15.8551 41.4034 10.4341 43.0358C8.51202 43.615 3.20256 44.7086 4.80567 49.0319C5.56973 51.0925 7.63255 53.0752 11.2678 51.8174" id="Stroke-27" fill="none" fill-rule="evenodd" stroke="#231916" stroke-width="0.99898106" stroke-linecap="round" stroke-linejoin="round" />
        <g id="Group-32" transform="translate(27.550016 8.975891)">
          <path d="M11.9109 39.9438C12.5975 36.1451 13.0801 32.322 13.7687 28.9038C14.5342 25.1022 17.2676 16.9855 18.203 13.8873C18.7407 12.1054 20.1928 8.29109 17.2198 5.18802C15.8261 3.73343 12.653 1.62803 8.70609 0.580681C4.75918 -0.466177 1.95276 0.126669 0 0.619164" id="Fill-29" fill="#FEFEFE" fill-rule="evenodd" stroke="none" />
          <path d="M11.9109 39.9438C12.5975 36.1451 13.0801 32.322 13.7687 28.9038C14.5342 25.1022 17.2676 16.9855 18.203 13.8873C18.7407 12.1054 20.1928 8.29109 17.2198 5.18802C15.8261 3.73343 12.653 1.62803 8.70609 0.580681C4.75918 -0.466177 1.95276 0.126669 0 0.619164" id="Stroke-31" fill="none" fill-rule="evenodd" stroke="#231916" stroke-width="0.99898106" stroke-linecap="round" stroke-linejoin="round" />
        </g>
        <g id="Group-36" transform="translate(44.02634 6.5966306)">
          <path d="M0 7.78971C1.03823 7.10772 2.08765 5.27365 2.3886 4.89222C3.20038 3.86387 6.92816 -2.02318 8.45335 0.723299C10.1714 3.81613 7.81299 9.08988 5.74822 11.0418C5.08691 11.6683 2.87557 13.61 0.15924 13.9496" id="Fill-33" fill="#FEFEFE" fill-rule="evenodd" stroke="none" />
          <path d="M0 7.78971C1.03823 7.10772 2.08765 5.27365 2.3886 4.89222C3.20038 3.86387 6.92816 -2.02318 8.45335 0.723299C10.1714 3.81613 7.81299 9.08988 5.74822 11.0418C5.08691 11.6683 2.87557 13.61 0.15924 13.9496" id="Stroke-35" fill="none" fill-rule="evenodd" stroke="#231916" stroke-width="0.99898106" stroke-linecap="round" stroke-linejoin="round" />
        </g>
        <path d="M46.1978 18.1591C46.6881 18.1742 47.5359 17.4869 48.1885 16.9208C49.6182 15.6815 50.8274 14.0652 51.2998 12.1849C51.4497 11.5891 51.5208 10.9427 51.31 10.3781C51.2447 10.2037 51.1395 10.0278 50.9696 9.97327C50.7548 9.90312 50.5284 10.0517 50.3531 10.209C50.0575 10.474 49.8013 10.7853 49.5598 11.1063C48.8371 12.0689 46.7578 16.1964 46.2654 17.2482C46.1418 17.5137 45.9051 18.0953 46.1978 18.1591" id="Fill-37" fill="#FAD8BE" fill-rule="evenodd" stroke="none" />
        <path d="M33.2014 32.5755C31.8792 34.3048 29.2871 35.7132 27.4892 35.2363C25.6874 34.7584 24.4076 32.3227 24.1184 30.1661C23.8023 27.8274 24.4851 24.6069 26.4422 23.1333C27.6825 22.199 29.2214 21.9462 30.8912 22.3895C32.5571 22.8313 34.0438 23.8864 34.6594 25.3133C35.6338 27.5643 34.6331 30.7005 33.2014 32.5755" id="Fill-39" fill="#FAD8BE" fill-rule="evenodd" stroke="none" />
        <path d="M27.9946 20.5632C27.8627 21.1921 27.3211 21.6164 26.784 21.5112C26.2474 21.406 25.9196 20.8112 26.0516 20.1828C26.1841 19.5519 26.7261 19.1262 27.2632 19.2314C27.8003 19.3366 28.1271 19.9329 27.9946 20.5632" id="Fill-41" fill="#231916" fill-rule="evenodd" stroke="none" />
        <path d="M36.4081 22.6523C36.2771 23.2817 35.7123 23.6996 35.1435 23.5866C34.5757 23.4741 34.2216 22.873 34.3521 22.2436C34.4831 21.6127 35.0495 21.1933 35.6178 21.3058C36.1861 21.4188 36.5391 22.0214 36.4081 22.6523" id="Fill-43" fill="#231916" fill-rule="evenodd" stroke="none" />
        <path d="M26.4598 17.4195L28.901 18.0255" id="Stroke-45" fill="none" fill-rule="evenodd" stroke="#231916" stroke-width="0.82852966" stroke-linecap="round" />
        <path d="M34.745 19.4767L37.3298 20.1188" id="Stroke-47" fill="none" fill-rule="evenodd" stroke="#231916" stroke-width="0.8527415" stroke-linecap="round" />
        <path d="M29.631 25.4258L28.8241 28.3199" id="Stroke-65" fill="none" fill-rule="evenodd" stroke="#231916" stroke-width="0.92005044" stroke-linecap="round" />
        <path d="M31.7817 28.1505C31.7817 28.1505 30.6402 32.9512 27.9877 32.3661C25.5099 31.8196 26.7279 26.8751 26.7279 26.8751C26.7279 26.8751 28.5555 28.2654 31.7817 28.1505" id="Fill-67" fill="#E96082" fill-rule="evenodd" stroke="none" />
        <path d="M31.7817 28.1505C31.7817 28.1505 30.6402 32.9512 27.9877 32.3661C25.5099 31.8196 26.7279 26.8751 26.7279 26.8751C26.7279 26.8751 28.5555 28.2654 31.7817 28.1505Z" id="Stroke-69" fill="none" fill-rule="evenodd" stroke="#231916" stroke-width="0.92005044" stroke-linecap="round" stroke-linejoin="round" />
        <path d="M53.1665 25.5469C53.1665 25.5469 51.558 21.1491 49.092 24.0451C47.1626 26.3113 45.036 40.069 44.2018 45.9478C43.9598 47.6537 43.0224 49.1809 41.6135 50.1717L39.8707 51.3964L33.6501 54.3757C31.2897 55.5059 29.7811 57.8841 29.764 60.502L29.6847 72.8484L36.0109 70.4888L42.1224 67.8071L48.2344 64.2675L49.521 62.7662C49.521 62.7662 54.9892 30.2663 53.1665 25.5469" id="Fill-75" fill="#83000B" fill-rule="evenodd" stroke="none" />
        <path d="M39.2204 51.7364L41.6748 50.5166C42.8459 49.9345 43.645 48.8004 43.7975 47.5008C44.0707 45.1649 44.3638 42.8315 44.7008 40.504C45.1138 37.6552 45.5817 34.8108 46.1982 31.9986C46.6945 29.7354 47.2287 27.3708 48.2732 25.2863C48.9345 23.9662 50.7271 22.4697 52.6774 23.7971" id="Stroke-101" fill="none" fill-rule="evenodd" stroke="#231916" stroke-width="0.99898106" stroke-linecap="round" stroke-linejoin="round" />
        <path d="M49.5438 61.9545C51.5872 52.0583 54.7204 26.9356 52.1798 22.1144" id="Stroke-107" fill="none" fill-rule="evenodd" stroke="#231916" stroke-width="0.99898106" stroke-linejoin="round" />
        <path d="M33.4106 25.9894C32.7795 25.7868 32.5321 25.4419 32.1104 24.9304L29.9395 23.5761L27.7009 24.4812C27.4126 24.6157 27.0839 24.6376 26.78 24.5431L22.0817 22.8825L22.1221 22.7314L26.4012 23.4553L31.025 21.6456L32.9548 24.7423" id="Fill-109" fill="#93918D" fill-rule="evenodd" stroke="none" />
        <path d="M27.6401 23.6441C27.8402 22.8891 29.044 22.8706 30.2254 23.1838C31.4063 23.497 32.4431 24.1103 32.2429 24.8654C31.977 25.8684 30.3286 26.3843 29.4394 26.1485C28.5507 25.9127 27.3742 24.6472 27.6401 23.6441" id="Fill-111" fill="#231916" fill-rule="evenodd" stroke="none" />
        <path d="M22.1777 15.2057L20.7947 22.1167L26.8493 23.81C27.1882 23.9191 27.5578 23.883 27.8773 23.7096L29.6903 22.6175C30.1003 22.3948 30.5985 22.5122 30.8653 22.8937L31.8529 24.8544C32.0394 25.1208 32.3082 25.3118 32.616 25.3971L39.8256 27.3646L41.885 20.3172L22.1777 15.2057Z" id="Fill-141" fill="#3F3A3A" fill-rule="evenodd" stroke="none" />
        <path d="M22.1777 15.2057L20.7947 22.1167L26.8493 23.81C27.1882 23.9191 27.5578 23.883 27.8773 23.7096L29.6903 22.6175C30.1003 22.3948 30.5985 22.5122 30.8653 22.8937L31.8529 24.8544C32.0394 25.1208 32.3082 25.3118 32.616 25.3971L39.8256 27.3646L41.885 20.3172L22.1777 15.2057Z" id="Stroke-143" fill="none" fill-rule="evenodd" stroke="#231916" stroke-width="0.79899114" stroke-linecap="round" stroke-linejoin="round" />
        <path d="M23.4244 17.9163L22.9194 20.2916C22.8522 20.636 23.0431 20.9726 23.363 21.0734L26.5459 21.9605C26.7387 22.0214 26.9496 21.9863 27.1181 21.865L29.7526 19.9657C30.1728 19.6636 30.075 18.9963 29.5899 18.8574L24.2595 17.376C23.888 17.2699 23.5018 17.5193 23.4244 17.9163" id="Fill-145" fill="#C30F23" fill-rule="evenodd" stroke="none" />
        <path d="M23.4244 17.9163L22.9194 20.2916C22.8522 20.636 23.0431 20.9726 23.363 21.0734L26.5459 21.9605C26.7387 22.0214 26.9496 21.9863 27.1181 21.865L29.7526 19.9657C30.1728 19.6636 30.075 18.9963 29.5899 18.8574L24.2595 17.376C23.888 17.2699 23.5018 17.5193 23.4244 17.9163Z" id="Stroke-147" fill="none" fill-rule="evenodd" stroke="#231916" stroke-width="0.99898106" stroke-linejoin="round" />
        <path d="M32.9703 19.9136L38.9586 21.2513C39.2454 21.3243 39.392 21.6527 39.2625 21.9333L38.4327 24.5672C38.3329 24.784 38.0991 24.9589 37.879 24.8985L33.7933 23.8959C33.6443 23.855 33.4339 23.6787 33.3842 23.5272L32.403 20.5576C32.2822 20.1898 32.6065 19.8215 32.9703 19.9136" id="Fill-149" fill="#0072BB" fill-rule="evenodd" stroke="none" />
        <path d="M32.9703 19.9136L38.9586 21.2513C39.2454 21.3243 39.392 21.6527 39.2625 21.9333L38.4327 24.5672C38.3329 24.784 38.0991 24.9589 37.879 24.8985L33.7933 23.8959C33.6443 23.855 33.4339 23.6787 33.3842 23.5272L32.403 20.5576C32.2822 20.1898 32.6065 19.8215 32.9703 19.9136Z" id="Stroke-151" fill="none" fill-rule="evenodd" stroke="#231916" stroke-width="0.99898106" />
        <path d="M41.951 20.4387C42.0834 20.8591 45.7065 22.9002 45.7065 22.9002C45.7065 22.9002 45.1898 25.3374 45.0622 25.3783C44.9351 25.4192 40.8524 24.1585 40.8903 24.0299C40.9283 23.9013 41.951 20.4387 41.951 20.4387" id="Fill-153" fill="#231916" fill-rule="evenodd" stroke="none" />
        <path d="M41.951 20.4387C42.0834 20.8591 45.7065 22.9002 45.7065 22.9002C45.7065 22.9002 45.1898 25.3374 45.0622 25.3783C44.9351 25.4192 40.8524 24.1585 40.8903 24.0299C40.9283 23.9013 41.951 20.4387 41.951 20.4387Z" id="Stroke-155" fill="none" fill-rule="evenodd" stroke="#231916" stroke-width="0.79899114" stroke-linecap="round" stroke-linejoin="round" />
        <path d="M41.0775 24.5027L40.218 27.444C40.1668 27.6189 40.0071 27.7329 39.8323 27.7329C39.7977 27.7329 39.7622 27.7285 39.7271 27.7188L34.2297 26.2559C36.2506 26.915 39.7636 28.0339 39.7636 28.0339C40.215 28.1762 40.7093 28.0032 40.8393 27.5478L41.4773 25.6523C41.5406 25.4312 41.7334 25.2602 42.0402 25.3006L44.2832 25.8535C44.2852 25.8467 44.2876 25.8394 44.29 25.8326C44.3173 25.7468 44.3426 25.6674 44.3689 25.5836C43.3979 25.3269 41.8445 24.8018 41.0775 24.5027" id="Fill-157" fill="#93918D" fill-rule="evenodd" stroke="none" />
      </g>
    </g>
  </g>
</svg>