<?xml version="1.0" encoding="utf-8"?>
<svg width="32px" height="32px" viewBox="0 0 32 32" version="1.1" xmlns:xlink="http://www.w3.org/1999/xlink" xmlns="http://www.w3.org/2000/svg">
  <defs>
    <filter id="filter_1">
      <feColorMatrix in="SourceGraphic" type="matrix" values="0 0 0 0 1 0 0 0 0 1 0 0 0 0 1 0 0 0 1 0" color-interpolation-filters="sRGB" />
    </filter>
  </defs>
  <g id="Group-4" filter="url(#filter_1)">
    <g id="Ic--Like-Copy-3">
      <g id="Ic--Link">
        <path d="M0 0L32 0L32 32L0 32L0 0Z" id="Path" fill="none" fill-rule="evenodd" stroke="none" />
        <path d="M11.999 4L20.001 4Q20.1974 4 20.3935 4.00963Q20.5896 4.01927 20.785 4.03852Q20.9805 4.05776 21.1747 4.08658Q21.3689 4.11539 21.5615 4.1537Q21.7541 4.19201 21.9446 4.23972Q22.1351 4.28743 22.323 4.34443Q22.5109 4.40144 22.6958 4.46759Q22.8807 4.53374 23.0621 4.60889Q23.2435 4.68403 23.421 4.76799Q23.5985 4.85195 23.7717 4.94451Q23.9449 5.03708 24.1133 5.13803Q24.2817 5.23898 24.445 5.34807Q24.6083 5.45717 24.766 5.57414Q24.9237 5.69112 25.0755 5.81569Q25.2273 5.94026 25.3728 6.07213Q25.5183 6.204 25.6571 6.34285Q25.796 6.4817 25.9279 6.6272Q26.0597 6.7727 26.1843 6.92449Q26.3089 7.07628 26.4259 7.234Q26.5428 7.39172 26.6519 7.55499Q26.761 7.71826 26.862 7.88669Q26.9629 8.05512 27.0555 8.2283Q27.1481 8.40147 27.232 8.57899Q27.316 8.7565 27.3911 8.93791Q27.4663 9.11933 27.5324 9.30422Q27.5986 9.4891 27.6556 9.67701Q27.7126 9.86492 27.7603 10.0554Q27.808 10.2459 27.8463 10.4385Q27.8846 10.6311 27.9134 10.8253Q27.9422 11.0195 27.9615 11.215Q27.9807 11.4104 27.9904 11.6065Q28 11.8026 28 11.999L28 20.001Q28 20.1974 27.9904 20.3935Q27.9807 20.5896 27.9615 20.785Q27.9422 20.9805 27.9134 21.1747Q27.8846 21.3689 27.8463 21.5615Q27.808 21.7541 27.7603 21.9446Q27.7126 22.1351 27.6556 22.323Q27.5986 22.5109 27.5324 22.6958Q27.4663 22.8807 27.3911 23.0621Q27.316 23.2435 27.232 23.421Q27.1481 23.5985 27.0555 23.7717Q26.9629 23.9449 26.862 24.1133Q26.761 24.2817 26.6519 24.445Q26.5428 24.6083 26.4259 24.766Q26.3089 24.9237 26.1843 25.0755Q26.0597 25.2273 25.9279 25.3728Q25.796 25.5183 25.6571 25.6571Q25.5183 25.796 25.3728 25.9279Q25.2273 26.0597 25.0755 26.1843Q24.9237 26.3089 24.766 26.4259Q24.6083 26.5428 24.445 26.6519Q24.2817 26.761 24.1133 26.862Q23.9449 26.9629 23.7717 27.0555Q23.5985 27.1481 23.421 27.232Q23.2435 27.316 23.0621 27.3911Q22.8807 27.4663 22.6958 27.5324Q22.5109 27.5986 22.323 27.6556Q22.1351 27.7126 21.9446 27.7603Q21.7541 27.808 21.5615 27.8463Q21.3689 27.8846 21.1747 27.9134Q20.9805 27.9422 20.785 27.9615Q20.5896 27.9807 20.3935 27.9904Q20.1974 28 20.001 28L11.999 28Q11.8026 28 11.6065 27.9904Q11.4104 27.9807 11.215 27.9615Q11.0195 27.9422 10.8253 27.9134Q10.6311 27.8846 10.4385 27.8463Q10.2459 27.808 10.0554 27.7603Q9.86492 27.7126 9.67701 27.6556Q9.4891 27.5986 9.30422 27.5324Q9.11933 27.4663 8.93791 27.3911Q8.7565 27.316 8.57899 27.232Q8.40147 27.1481 8.2283 27.0555Q8.05512 26.9629 7.88669 26.862Q7.71826 26.761 7.55499 26.6519Q7.39172 26.5428 7.234 26.4259Q7.07628 26.3089 6.92449 26.1843Q6.7727 26.0597 6.6272 25.9279Q6.4817 25.796 6.34285 25.6571Q6.204 25.5183 6.07213 25.3728Q5.94026 25.2273 5.81569 25.0755Q5.69112 24.9237 5.57414 24.766Q5.45717 24.6083 5.34807 24.445Q5.23898 24.2817 5.13803 24.1133Q5.03708 23.9449 4.94451 23.7717Q4.85195 23.5985 4.76799 23.421Q4.68403 23.2435 4.60889 23.0621Q4.53374 22.8807 4.46759 22.6958Q4.40144 22.5109 4.34443 22.323Q4.28743 22.1351 4.23972 21.9446Q4.19201 21.7541 4.1537 21.5615Q4.11539 21.3689 4.08658 21.1747Q4.05776 20.9805 4.03852 20.785Q4.01927 20.5896 4.00963 20.3935Q4 20.1974 4 20.001L4 11.999Q4 11.8026 4.00963 11.6065Q4.01927 11.4104 4.03852 11.215Q4.05776 11.0195 4.08658 10.8253Q4.11539 10.6311 4.1537 10.4385Q4.19201 10.2459 4.23972 10.0554Q4.28743 9.86492 4.34443 9.67701Q4.40144 9.4891 4.46759 9.30422Q4.53374 9.11933 4.60889 8.93791Q4.68403 8.7565 4.76799 8.57899Q4.85195 8.40147 4.94451 8.2283Q5.03708 8.05512 5.13803 7.88669Q5.23898 7.71826 5.34807 7.55499Q5.45717 7.39172 5.57414 7.234Q5.69112 7.07628 5.81569 6.92449Q5.94026 6.7727 6.07213 6.6272Q6.204 6.4817 6.34285 6.34285Q6.4817 6.204 6.6272 6.07213Q6.7727 5.94026 6.92449 5.81569Q7.07628 5.69112 7.234 5.57414Q7.39172 5.45717 7.55499 5.34807Q7.71826 5.23898 7.88669 5.13803Q8.05512 5.03708 8.2283 4.94451Q8.40147 4.85195 8.57899 4.76799Q8.7565 4.68403 8.93791 4.60889Q9.11933 4.53374 9.30422 4.46759Q9.4891 4.40144 9.67701 4.34443Q9.86492 4.28743 10.0554 4.23972Q10.2459 4.19201 10.4385 4.1537Q10.6311 4.11539 10.8253 4.08658Q11.0195 4.05776 11.215 4.03852Q11.4104 4.01927 11.6065 4.00963Q11.8026 4 11.999 4Z" id="Rectangle" fill="none" fill-rule="evenodd" stroke="#151515" stroke-width="2" />
        <g id="쓸" transform="translate(10.12 9.118)">
          <path d="M9.646 7.532C9.96333 7.532 10.122 7.69533 10.122 8.022L10.122 10.57C10.122 10.6633 10.087 10.738 10.017 10.794C9.947 10.85 9.856 10.878 9.744 10.878L3.598 10.878L3.598 11.284C3.598 11.4613 3.67267 11.55 3.822 11.55L10.318 11.55L10.318 12.908L2.562 12.908C2.226 12.908 1.981 12.8357 1.827 12.691C1.673 12.5463 1.596 12.3153 1.596 11.998L1.596 9.534L8.12 9.534L8.12 8.89L1.638 8.89L1.638 7.532L9.646 7.532ZM0 6.776L0 5.348L11.746 5.348L11.746 6.776L0 6.776ZM8.708 0.84C8.708 0.98 8.69867 1.11533 8.68 1.246C8.66133 1.37667 8.638 1.498 8.61 1.61C9.02067 1.946 9.40567 2.30067 9.765 2.674C10.1243 3.04733 10.43 3.402 10.682 3.738C10.794 3.88733 10.7753 4.02267 10.626 4.144L9.814 4.858C9.51533 4.50333 9.20967 4.16967 8.897 3.857C8.58433 3.54433 8.25533 3.23867 7.91 2.94C7.66733 3.23867 7.413 3.528 7.147 3.808C6.881 4.088 6.59867 4.34467 6.3 4.578C6.16933 4.68067 6.062 4.739 5.978 4.753C5.894 4.767 5.78667 4.70867 5.656 4.578C5.38533 4.31667 5.15667 4.09267 4.97 3.906C4.78333 3.71933 4.62233 3.56067 4.487 3.43C4.35167 3.29933 4.23033 3.18733 4.123 3.094C4.01567 3.00067 3.91533 2.912 3.822 2.828C3.50467 3.22933 3.164 3.60267 2.8 3.948C2.436 4.29333 2.06733 4.61067 1.694 4.9L0.658 3.822C0.891333 3.61667 1.13167 3.39267 1.379 3.15C1.62633 2.90733 1.88533 2.63667 2.156 2.338C2.37067 2.09533 2.51767 1.869 2.597 1.659C2.67633 1.449 2.716 1.18533 2.716 0.868L2.716 0L4.62 0L4.62 0.84C4.62 1.064 4.592 1.274 4.536 1.47C4.76933 1.68467 5.00033 1.90633 5.229 2.135C5.45767 2.36367 5.69333 2.60867 5.936 2.87C5.98267 2.814 6.03167 2.758 6.083 2.702C6.13433 2.646 6.188 2.58067 6.244 2.506C6.412 2.30067 6.54733 2.06967 6.65 1.813C6.75267 1.55633 6.804 1.24133 6.804 0.868L6.804 0L8.708 0L8.708 0.84Z" id="Shape" fill="#151515" stroke="none" />
        </g>
      </g>
    </g>
  </g>
</svg>