<?xml version="1.0" encoding="UTF-8"?>
<svg width="20px" height="20px" viewBox="0 0 20 20" version="1.1" xmlns="http://www.w3.org/2000/svg" xmlns:xlink="http://www.w3.org/1999/xlink">
    <title>infornation-info-circle copy 2</title>
    <g id="-----TalentBoard" stroke="none" stroke-width="1" fill="none" fill-rule="evenodd">
        <g id="O_01_0---Talent-Board-Copy" transform="translate(-258.000000, -196.000000)">
            <g id="infornation-info-circle-copy-2" transform="translate(258.000000, 196.000000)">
                <polygon id="Path" points="0 0 20 0 20 20 0 20"></polygon>
                <path d="M10,18.5 L10,18.5 C5.30516667,18.5 1.5,14.6948333 1.5,10 L1.5,10 C1.5,5.30516667 5.30516667,1.5 10,1.5 L10,1.5 C14.6948333,1.5 18.5,5.30516667 18.5,10 L18.5,10 C18.5,14.6948333 14.6948333,18.5 10,18.5 Z" id="Path" fill="#F7F4F0"></path>
                <path d="M9.99900332,6.75 C9.86100332,6.75 9.74900332,6.862 9.75000332,7 C9.75000332,7.138 9.86200332,7.25 10,7.25 C10.1380033,7.25 10.2500033,7.138 10.2500033,7 C10.2500033,6.862 10.1380033,6.75 9.99900332,6.75" id="Path" stroke-opacity="0.8" stroke="#545045" stroke-width="1.5" stroke-linecap="round" stroke-linejoin="round"></path>
                <line x1="10" y1="10" x2="10" y2="13.5" id="Path" stroke-opacity="0.8" stroke="#545045" stroke-width="1.5" stroke-linecap="round" stroke-linejoin="round"></line>
            </g>
        </g>
    </g>
</svg>