<?xml version="1.0" encoding="utf-8"?>
<svg width="20px" height="20px" viewBox="0 0 20 20" version="1.1" xmlns:xlink="http://www.w3.org/1999/xlink" xmlns="http://www.w3.org/2000/svg">
  <defs>
    <filter id="filter_1">
      <feColorMatrix in="SourceGraphic" type="matrix" values="0 0 0 0 1 0 0 0 0 0.20784314 0 0 0 0 0 0 0 0 1 0" color-interpolation-filters="sRGB" />
    </filter>
  </defs>
  <g id="pen-draw" transform="matrix(-1 0 0 1 20 0)" filter="url(#filter_1)">
    <path d="M0 0L20 0L20 20L0 20L0 0Z" id="Path" fill="none" fill-rule="evenodd" stroke="none" />
    <path d="M8.14545 10L3.50838 5.36293Q3.46286 5.31741 3.42202 5.26765Q3.38119 5.21789 3.34542 5.16436Q3.30966 5.11084 3.27931 5.05406Q3.24897 4.99729 3.22433 4.93782Q3.1997 4.87834 3.18101 4.81674Q3.16232 4.75514 3.14976 4.692Q3.13721 4.62886 3.1309 4.5648Q3.12459 4.50074 3.12459 4.43636Q3.12459 4.37199 3.1309 4.30792Q3.13721 4.24386 3.14976 4.18072Q3.16232 4.11759 3.18101 4.05598Q3.1997 3.99438 3.22433 3.93491Q3.24897 3.87543 3.27931 3.81866Q3.30966 3.76189 3.34542 3.70836Q3.38119 3.65484 3.42202 3.60508Q3.46286 3.55532 3.50838 3.5098L3.5098 3.50838Q3.55532 3.46286 3.60508 3.42202Q3.65484 3.38119 3.70836 3.34542Q3.76189 3.30966 3.81866 3.27931Q3.87543 3.24897 3.93491 3.22433Q3.99438 3.1997 4.05598 3.18101Q4.11759 3.16232 4.18072 3.14976Q4.24386 3.13721 4.30792 3.1309Q4.37199 3.12459 4.43636 3.12459Q4.50074 3.12459 4.5648 3.1309Q4.62886 3.13721 4.692 3.14976Q4.75514 3.16232 4.81674 3.18101Q4.87834 3.1997 4.93782 3.22433Q4.99729 3.24897 5.05406 3.27931Q5.11084 3.30966 5.16436 3.34542Q5.21789 3.38119 5.26765 3.42202Q5.31741 3.46286 5.36293 3.50838L10 8.14545L14.6371 3.50838Q14.6826 3.46286 14.7324 3.42202Q14.7821 3.38119 14.8356 3.34542Q14.8892 3.30966 14.9459 3.27931Q15.0027 3.24897 15.0622 3.22433Q15.1217 3.1997 15.1833 3.18101Q15.2449 3.16232 15.308 3.14976Q15.3711 3.13721 15.4352 3.1309Q15.4993 3.12459 15.5636 3.12459Q15.628 3.12459 15.6921 3.1309Q15.7561 3.13721 15.8193 3.14976Q15.8824 3.16232 15.944 3.18101Q16.0056 3.1997 16.0651 3.22433Q16.1246 3.24897 16.1813 3.27931Q16.2381 3.30966 16.2916 3.34542Q16.3452 3.38119 16.3949 3.42202Q16.4447 3.46286 16.4902 3.50838L16.4916 3.5098Q16.5371 3.55532 16.578 3.60508Q16.6188 3.65484 16.6546 3.70836Q16.6903 3.76189 16.7207 3.81866Q16.751 3.87543 16.7757 3.93491Q16.8003 3.99438 16.819 4.05598Q16.8377 4.11759 16.8502 4.18072Q16.8628 4.24386 16.8691 4.30792Q16.8754 4.37199 16.8754 4.43636Q16.8754 4.50074 16.8691 4.5648Q16.8628 4.62886 16.8502 4.692Q16.8377 4.75514 16.819 4.81674Q16.8003 4.87834 16.7757 4.93781Q16.751 4.99729 16.7207 5.05406Q16.6903 5.11084 16.6546 5.16436Q16.6188 5.21789 16.578 5.26765Q16.5371 5.31741 16.4916 5.36293L11.8545 10L16.4916 14.6371Q16.5371 14.6826 16.578 14.7324Q16.6188 14.7821 16.6546 14.8356Q16.6903 14.8892 16.7207 14.9459Q16.751 15.0027 16.7757 15.0622Q16.8003 15.1217 16.819 15.1833Q16.8377 15.2449 16.8502 15.308Q16.8628 15.3711 16.8691 15.4352Q16.8754 15.4993 16.8754 15.5636Q16.8754 15.628 16.8691 15.6921Q16.8628 15.7561 16.8502 15.8193Q16.8377 15.8824 16.819 15.944Q16.8003 16.0056 16.7757 16.0651Q16.751 16.1246 16.7207 16.1813Q16.6903 16.2381 16.6546 16.2916Q16.6188 16.3452 16.578 16.3949Q16.5371 16.4447 16.4916 16.4902L16.4902 16.4916Q16.4447 16.5371 16.3949 16.578Q16.3452 16.6188 16.2916 16.6546Q16.2381 16.6903 16.1813 16.7207Q16.1246 16.751 16.0651 16.7757Q16.0056 16.8003 15.944 16.819Q15.8824 16.8377 15.8193 16.8502Q15.7561 16.8628 15.6921 16.8691Q15.628 16.8754 15.5636 16.8754Q15.4993 16.8754 15.4352 16.8691Q15.3711 16.8628 15.308 16.8502Q15.2449 16.8377 15.1833 16.819Q15.1217 16.8003 15.0622 16.7757Q15.0027 16.751 14.9459 16.7207Q14.8892 16.6903 14.8356 16.6546Q14.7821 16.6188 14.7324 16.578Q14.6826 16.5371 14.6371 16.4916L10 11.8545L5.36293 16.4916Q5.27167 16.5829 5.16436 16.6546Q5.05705 16.7263 4.93782 16.7757Q4.81858 16.8251 4.692 16.8502Q4.56542 16.8754 4.43636 16.8754Q4.3073 16.8754 4.18072 16.8502Q4.05414 16.8251 3.93491 16.7757Q3.81567 16.7263 3.70836 16.6546Q3.60105 16.5829 3.5098 16.4916L3.50838 16.4902Q3.41712 16.3989 3.34542 16.2916Q3.27372 16.1843 3.22433 16.0651Q3.17494 15.9459 3.14976 15.8193Q3.12459 15.6927 3.12459 15.5636Q3.12459 15.4346 3.14976 15.308Q3.17494 15.1814 3.22433 15.0622Q3.27372 14.9429 3.34542 14.8356Q3.41712 14.7283 3.50838 14.6371L8.14545 10Z" id="Combined-Shape" fill="#FF3500" fill-rule="evenodd" stroke="none" />
  </g>
</svg>