<svg width="24" height="24" viewBox="0 0 24 24" fill="none" xmlns="http://www.w3.org/2000/svg">
<g filter="url(#filter0_b_4_1784)">
<circle cx="12" cy="12" r="12" fill="black" fill-opacity="0.15"/>
</g>
<path fill-rule="evenodd" clip-rule="evenodd" d="M15.396 9.45356C15.6304 9.21925 15.6304 8.83935 15.396 8.60503C15.1617 8.37072 14.7818 8.37072 14.5475 8.60503L12.0016 11.151L9.45551 8.60493C9.2212 8.37061 8.8413 8.37061 8.60699 8.60493C8.37267 8.83924 8.37267 9.21914 8.60699 9.45346L11.153 11.9995L8.60782 14.5447C8.37351 14.779 8.37351 15.1589 8.60782 15.3933C8.84214 15.6276 9.22204 15.6276 9.45635 15.3933L12.0016 12.848L14.5467 15.3932C14.781 15.6275 15.1609 15.6275 15.3952 15.3932C15.6295 15.1588 15.6295 14.7789 15.3952 14.5446L12.8501 11.9995L15.396 9.45356Z" fill="white"/>
<g filter="url(#filter1_b_4_1784)">
<circle cx="12" cy="12" r="12" fill="black" fill-opacity="0.15"/>
</g>
<path fill-rule="evenodd" clip-rule="evenodd" d="M15.3941 9.45442C15.6284 9.2201 15.6284 8.8402 15.3941 8.60589C15.1598 8.37157 14.7799 8.37157 14.5456 8.60589L12 11.1515L9.45442 8.60589C9.2201 8.37158 8.8402 8.37157 8.60589 8.60589C8.37157 8.8402 8.37157 9.2201 8.60589 9.45442L11.1515 12L8.60589 14.5456C8.37157 14.7799 8.37157 15.1598 8.60589 15.3941C8.8402 15.6284 9.2201 15.6284 9.45442 15.3941L12 12.8485L14.5456 15.3941C14.7799 15.6284 15.1598 15.6284 15.3941 15.3941C15.6284 15.1598 15.6284 14.7799 15.3941 14.5456L12.8485 12L15.3941 9.45442Z" fill="white"/>
<path d="M12 11.1515L11.6464 11.505L12 11.8586L12.3536 11.505L12 11.1515ZM11.1515 12L11.505 12.3536L11.8586 12L11.505 11.6464L11.1515 12ZM12 12.8485L12.3536 12.495L12 12.1414L11.6464 12.495L12 12.8485ZM12.8485 12L12.495 11.6464L12.1414 12L12.495 12.3536L12.8485 12ZM15.0406 8.95944C15.0796 8.9985 15.0796 9.06181 15.0406 9.10086L15.7477 9.80797C16.1772 9.37839 16.1772 8.68191 15.7477 8.25234L15.0406 8.95944ZM14.8991 8.95944C14.9382 8.92039 15.0015 8.92039 15.0406 8.95944L15.7477 8.25234C15.3181 7.82276 14.6216 7.82276 14.192 8.25234L14.8991 8.95944ZM12.3536 11.505L14.8991 8.95944L14.192 8.25234L11.6464 10.7979L12.3536 11.505ZM9.10086 8.95944L11.6464 11.505L12.3536 10.7979L9.80797 8.25234L9.10086 8.95944ZM8.95944 8.95944C8.99849 8.92039 9.06181 8.92039 9.10086 8.95944L9.80797 8.25234C9.37839 7.82276 8.68191 7.82276 8.25233 8.25234L8.95944 8.95944ZM8.95944 9.10086C8.92039 9.06181 8.92039 8.9985 8.95944 8.95944L8.25233 8.25234C7.82276 8.68191 7.82276 9.37839 8.25233 9.80797L8.95944 9.10086ZM11.505 11.6464L8.95944 9.10086L8.25233 9.80797L10.7979 12.3536L11.505 11.6464ZM8.95944 14.8991L11.505 12.3536L10.7979 11.6464L8.25233 14.192L8.95944 14.8991ZM8.95944 15.0406C8.92039 15.0015 8.92039 14.9382 8.95944 14.8991L8.25233 14.192C7.82276 14.6216 7.82276 15.3181 8.25233 15.7477L8.95944 15.0406ZM9.10086 15.0406C9.06181 15.0796 8.99849 15.0796 8.95944 15.0406L8.25233 15.7477C8.68191 16.1772 9.37839 16.1772 9.80797 15.7477L9.10086 15.0406ZM11.6464 12.495L9.10086 15.0406L9.80797 15.7477L12.3536 13.2021L11.6464 12.495ZM14.8991 15.0406L12.3536 12.495L11.6464 13.2021L14.192 15.7477L14.8991 15.0406ZM15.0406 15.0406C15.0015 15.0796 14.9382 15.0796 14.8991 15.0406L14.192 15.7477C14.6216 16.1772 15.3181 16.1772 15.7477 15.7477L15.0406 15.0406ZM15.0406 14.8991C15.0796 14.9382 15.0796 15.0015 15.0406 15.0406L15.7477 15.7477C16.1772 15.3181 16.1772 14.6216 15.7477 14.192L15.0406 14.8991ZM12.495 12.3536L15.0406 14.8991L15.7477 14.192L13.2021 11.6464L12.495 12.3536ZM15.0406 9.10086L12.495 11.6464L13.2021 12.3536L15.7477 9.80797L15.0406 9.10086Z" fill="white"/>
<defs>
<filter id="filter0_b_4_1784" x="-43.4925" y="-43.4925" width="110.985" height="110.985" filterUnits="userSpaceOnUse" color-interpolation-filters="sRGB">
<feFlood flood-opacity="0" result="BackgroundImageFix"/>
<feGaussianBlur in="BackgroundImageFix" stdDeviation="21.7463"/>
<feComposite in2="SourceAlpha" operator="in" result="effect1_backgroundBlur_4_1784"/>
<feBlend mode="normal" in="SourceGraphic" in2="effect1_backgroundBlur_4_1784" result="shape"/>
</filter>
<filter id="filter1_b_4_1784" x="-43.4925" y="-43.4925" width="110.985" height="110.985" filterUnits="userSpaceOnUse" color-interpolation-filters="sRGB">
<feFlood flood-opacity="0" result="BackgroundImageFix"/>
<feGaussianBlur in="BackgroundImageFix" stdDeviation="21.7463"/>
<feComposite in2="SourceAlpha" operator="in" result="effect1_backgroundBlur_4_1784"/>
<feBlend mode="normal" in="SourceGraphic" in2="effect1_backgroundBlur_4_1784" result="shape"/>
</filter>
</defs>
</svg>
