<?xml version="1.0" encoding="utf-8"?>
<svg width="24px" height="24px" viewBox="0 0 24 24" version="1.1" xmlns:xlink="http://www.w3.org/1999/xlink" xmlns="http://www.w3.org/2000/svg">
  <g id="X-Copy">
    <path d="M0 0L24 0L24 24L0 24L0 0Z" id="Rectangle" fill="none" fill-rule="evenodd" stroke="none" />
    <path d="M13.0208 12.3137L17.9713 7.36325Q18.006 7.3285 18.0333 7.28764Q18.0606 7.24677 18.0794 7.20137Q18.0982 7.15596 18.1078 7.10776Q18.1174 7.05955 18.1174 7.01041Q18.1174 6.96126 18.1078 6.91306Q18.0982 6.86485 18.0794 6.81945Q18.0606 6.77404 18.0333 6.73318Q18.006 6.69231 17.9713 6.65756L17.9699 6.65615Q17.9351 6.62139 17.8942 6.59409Q17.8534 6.56678 17.808 6.54798Q17.7626 6.52917 17.7144 6.51958Q17.6662 6.50999 17.617 6.50999Q17.5679 6.50999 17.5197 6.51958Q17.4715 6.52917 17.426 6.54798Q17.3806 6.56678 17.3398 6.59409Q17.2989 6.62139 17.2642 6.65615L12.3137 11.6066L7.36325 6.65615Q7.3285 6.62139 7.28764 6.59409Q7.24677 6.56678 7.20137 6.54798Q7.15596 6.52917 7.10776 6.51958Q7.05955 6.50999 7.01041 6.50999Q6.96126 6.50999 6.91306 6.51958Q6.86485 6.52917 6.81945 6.54798Q6.77404 6.56678 6.73318 6.59409Q6.69231 6.62139 6.65756 6.65615L6.65615 6.65756Q6.62139 6.69231 6.59409 6.73318Q6.56678 6.77404 6.54798 6.81945Q6.52917 6.86485 6.51958 6.91306Q6.50999 6.96126 6.50999 7.01041Q6.50999 7.05955 6.51958 7.10776Q6.52917 7.15596 6.54798 7.20137Q6.56678 7.24677 6.59409 7.28764Q6.62139 7.3285 6.65615 7.36325L11.6066 12.3137L6.65615 17.2642Q6.62139 17.2989 6.59409 17.3398Q6.56678 17.3806 6.54798 17.426Q6.52917 17.4715 6.51958 17.5197Q6.50999 17.5679 6.50999 17.617Q6.50999 17.6662 6.51958 17.7144Q6.52917 17.7626 6.54798 17.808Q6.56678 17.8534 6.59409 17.8942Q6.62139 17.9351 6.65615 17.9699L6.65756 17.9713Q6.69231 18.006 6.73318 18.0333Q6.77404 18.0606 6.81945 18.0794Q6.86485 18.0982 6.91306 18.1078Q6.96126 18.1174 7.01041 18.1174Q7.05955 18.1174 7.10776 18.1078Q7.15596 18.0982 7.20136 18.0794Q7.24677 18.0606 7.28764 18.0333Q7.3285 18.006 7.36325 17.9713L12.3137 13.0208L17.2642 17.9713Q17.2989 18.006 17.3398 18.0333Q17.3806 18.0606 17.426 18.0794Q17.4715 18.0982 17.5197 18.1078Q17.5679 18.1174 17.617 18.1174Q17.6662 18.1174 17.7144 18.1078Q17.7626 18.0982 17.808 18.0794Q17.8534 18.0606 17.8942 18.0333Q17.9351 18.006 17.9699 17.9713L17.9713 17.9699Q18.006 17.9351 18.0333 17.8942Q18.0606 17.8534 18.0794 17.808Q18.0982 17.7626 18.1078 17.7144Q18.1174 17.6662 18.1174 17.617Q18.1174 17.5679 18.1078 17.5197Q18.0982 17.4715 18.0794 17.426Q18.0606 17.3806 18.0333 17.3398Q18.006 17.2989 17.9713 17.2642L13.0208 12.3137Z" id="Combined-Shape" fill="#151515" fill-rule="evenodd" stroke="none" />
  </g>
</svg>