<?xml version="1.0" encoding="utf-8"?>
<svg width="80px" height="32px" viewBox="0 0 80 32" version="1.1" xmlns:xlink="http://www.w3.org/1999/xlink" xmlns="http://www.w3.org/2000/svg">
  <defs>
    <linearGradient gradientUnits="userSpaceOnUse" x1="17.228582" y1="3.8966174" x2="-2.9297152" y2="3.5098844" id="gradient_1">
      <stop offset="0%" stop-color="#F3A90B" />
      <stop offset="100%" stop-color="#FCB117" />
    </linearGradient>
    <linearGradient gradientUnits="userSpaceOnUse" x1="4.612519" y1="1.358544" x2="15.985972" y2="5.3215785" id="gradient_2">
      <stop offset="0%" stop-color="#FFBC31" />
      <stop offset="100%" stop-color="#FDB913" />
    </linearGradient>
    <linearGradient gradientUnits="userSpaceOnUse" x1="19.811426" y1="0.4702138" x2="17.359114" y2="8.09701" id="gradient_3">
      <stop offset="0%" stop-color="#FAB838" />
      <stop offset="100%" stop-color="#FFDF00" />
    </linearGradient>
  </defs>
  <g id="Logo--Light">
    <g id="Group-3">
      <g id="스타런" fill="#545045" transform="translate(34 6)">
        <path d="M23.171 9.9915L18.309 9.9915L18.309 11.8785Q18.309 12.4055 18.5555 12.6775Q18.802 12.9495 19.465 12.9495Q20.077 12.9495 20.8165 12.89Q21.556 12.8305 22.355 12.72Q23.154 12.6095 23.987 12.4565Q24.82 12.3035 25.653 12.1335L25.653 2.7155L27.999 2.7155L27.999 8.0365L30.226 8.0365L30.226 9.8725L27.999 9.8725L27.999 17.7775L25.653 17.7775L25.653 13.6805Q24.922 13.9015 24.0125 14.097Q23.103 14.2925 22.202 14.437Q21.301 14.5815 20.485 14.6665Q19.669 14.7515 19.125 14.7515Q18.224 14.7515 17.612 14.573Q17 14.3945 16.626 14.0375Q16.252 13.6805 16.0905 13.1705Q15.929 12.6605 15.929 11.9975L15.929 3.8035L23.341 3.8035L23.341 5.6055L18.309 5.6055L18.309 8.2065L23.171 8.2065L23.171 9.9915ZM41.82 6.2175L39.1 6.2175L39.1 8.0195L41.82 8.0195L41.82 13.8845L44.149 13.8845L44.149 2.7155L41.82 2.7155L41.82 6.2175ZM38.573 4.09516Q38.573 3.3105 37.791 3.3105L31.637 3.3105L31.637 5.0615L36.227 5.0615L36.227 6.6425L31.569 6.6425L31.569 9.2435Q31.569 9.9405 31.739 10.425Q31.909 10.9095 32.2745 11.2155Q32.64 11.5215 33.2265 11.666Q33.813 11.8105 34.646 11.8105Q35.173 11.8105 35.904 11.7418Q36.635 11.6732 37.4255 11.553Q38.216 11.4328 38.9895 11.2783Q39.763 11.1239 40.409 10.9523L40.205 9.4985Q39.508 9.6345 38.7855 9.7365Q38.063 9.8385 37.3745 9.915Q36.686 9.9915 36.074 10.0255Q35.462 10.0595 34.986 10.0595Q34.425 10.0595 34.17 9.87622Q33.915 9.69294 33.915 9.17656L33.915 8.3935L38.148 8.3935Q38.3775 8.3935 38.483 8.27914Q38.573 8.18168 38.573 8.00117L38.573 4.09516ZM2.55 12.0825L1.513 10.5015Q2.38 9.9235 3.2895 9.32Q4.199 8.7165 4.862 8.1215Q5.491 7.5775 5.831 7.0165Q6.171 6.4555 6.171 5.6395L6.171 3.4635L8.585 3.4635L8.585 5.7075Q8.585 6.1325 8.534 6.4895Q9.86 7.3905 11.0925 8.351Q12.325 9.3115 13.192 10.1785Q13.328 10.3145 13.3365 10.4845Q13.345 10.6545 13.192 10.8415L12.274 11.8445Q11.883 11.5215 11.356 11.0795Q10.829 10.6375 10.2255 10.1615Q9.622 9.6855 8.9845 9.218Q8.347 8.7505 7.735 8.3935Q7.463 8.7335 7.1145 9.065Q6.766 9.3965 6.324 9.7365Q5.967 10.0255 5.525 10.3315Q5.083 10.6375 4.59 10.9435Q4.097 11.2495 3.5785 11.5385Q3.06 11.8275 2.55 12.0825ZM36.227 18.2195L44.489 18.2195L44.489 16.4685L36.992 16.4685Q36.567 16.4685 36.448 16.2976Q36.329 16.1266 36.329 15.7508L36.329 13.1195L33.898 13.1195L33.898 16.1795Q33.898 17.2675 34.5015 17.7435Q35.105 18.2195 36.227 18.2195ZM14.773 13.9865L14.773 15.8055L0.51 15.8055L0.51 13.9865L14.773 13.9865Z" />
      </g>
      <g id="Group-2">
        <path d="M0 0L32 0L32 32L0 32L0 0Z" id="Rectangle" fill="none" fill-rule="evenodd" stroke="none" />
        <g id="Group" transform="translate(1.4928073 0.01705462)">
          <path d="M16.0942 3.10599L4.27503 11.6931C1.914 13.4085 1.40043 16.7267 3.12795 19.1044C4.85546 21.4821 8.16989 22.019 10.5309 20.3036L22.3501 11.7165C24.7112 10.0011 25.2247 6.68297 23.4972 4.30525C21.7697 1.92752 18.4553 1.3906 16.0942 3.10599Z" id="Rectangle-Copy-5" fill="url(#gradient_1)" fill-rule="evenodd" stroke="none" />
          <path d="M21.9642 10.6614L7.35487 10.6614C4.43647 10.6614 2.07064 13.0439 2.07064 15.9829C2.07064 18.922 4.43647 21.3045 7.35487 21.3045L21.9642 21.3045C24.8826 21.3045 27.2484 18.922 27.2484 15.9829C27.2484 13.0439 24.8826 10.6614 21.9642 10.6614Z" id="Rectangle-Copy-7" fill="url(#gradient_2)" fill-rule="evenodd" stroke="none" />
          <path d="M18.8918 11.6623L7.07256 20.2494C4.71153 21.9648 4.19796 25.2829 5.92548 27.6606C7.65299 30.0384 10.9674 30.5753 13.3285 28.8599L25.1477 20.2728C27.5087 18.5574 28.0223 15.2392 26.2947 12.8615C24.5672 10.4838 21.2528 9.94686 18.8918 11.6623Z" id="Rectangle-Copy-6" fill="url(#gradient_3)" fill-rule="evenodd" stroke="none" />
        </g>
      </g>
    </g>
  </g>
</svg>