<?xml version="1.0" encoding="utf-8"?>
<svg width="70.81641px" height="85.816px" viewBox="0 0 70.81641 85.816" version="1.1" xmlns:xlink="http://www.w3.org/1999/xlink" xmlns="http://www.w3.org/2000/svg">
  <g id="Group-9" transform="translate(1.4082031 1.4080048)">
    <g id="Group-2">
      <path d="M14.6682 75.7113C14.1439 75.7113 13.7195 75.1979 13.7195 74.5634C13.7195 73.929 14.1439 73.4155 14.6682 73.4155L22.2041 73.4155C22.7285 73.4155 23.1528 73.929 23.1528 74.5634C23.1528 75.1979 22.7285 75.7113 22.2041 75.7113L14.6682 75.7113Z" id="Fill-1" fill="#84888B" fill-opacity="0.5019608" fill-rule="evenodd" stroke="none" />
      <path d="M53.878 69.5288C53.3536 69.5288 52.9293 69.0154 52.9293 68.381C52.9293 67.7465 53.3536 67.2331 53.878 67.2331L58.5193 67.2331C59.0437 67.2331 59.468 67.7465 59.468 68.381C59.468 69.0154 59.0437 69.5288 58.5193 69.5288L53.878 69.5288Z" id="Fill-29" fill="#84888B" fill-opacity="0.5019608" fill-rule="evenodd" stroke="none" />
      <path d="M53.7362 65.5074C53.2129 65.5074 52.7874 64.994 52.7874 64.3596C52.7874 63.7251 53.2129 63.2117 53.7362 63.2117L64.147 63.2117C64.6713 63.2117 65.0957 63.7251 65.0957 64.3596C65.0957 64.994 64.6713 65.5074 64.147 65.5074L53.7362 65.5074Z" id="Fill-31" fill="#84888B" fill-opacity="0.5019608" fill-rule="evenodd" stroke="none" />
      <path d="M67.9782 47.1578C67.615 52.7833 62.8065 57.0401 57.2496 56.673C55.6512 56.5672 54.1614 56.0903 52.8627 55.3327C51.4141 57.2882 49.041 58.4851 46.4487 58.3142C44.8915 58.2105 43.5043 57.5485 42.3484 56.6394C41.4461 56.7055 40.5367 56.8814 39.5951 56.9109C34.5694 57.0838 29.8927 55.5727 26.0751 52.8657C22.1398 55.3296 16.9269 54.9269 13.4 51.5834C10.9083 49.216 9.82384 45.908 10.1558 42.718C3.80219 39.8687 -0.442944 33.2324 0.0368974 25.808C0.652543 16.2796 8.7857 9.07382 18.1944 9.69515C18.7406 9.73176 19.2768 9.79176 19.812 9.87718C23.539 3.56628 30.5526 -0.468782 38.3115 0.0437364C48.2001 0.696587 55.9389 8.49622 56.9207 18.1283C63.386 19.371 68.0677 25.3046 67.6281 32.1107C67.4541 34.7984 66.5054 37.2491 65.0126 39.2524C67.0125 41.2506 68.1763 44.0858 67.9782 47.1578" id="Fill-1" fill="#289E7E" fill-rule="evenodd" stroke="none" />
      <path d="M67.9782 47.1578C67.615 52.7833 62.8065 57.0401 57.2496 56.673C55.6512 56.5672 54.1614 56.0903 52.8627 55.3327C51.4141 57.2882 49.041 58.4851 46.4487 58.3142C44.8915 58.2105 43.5043 57.5485 42.3484 56.6394C41.4461 56.7055 40.5367 56.8814 39.5951 56.9109C34.5694 57.0838 29.8927 55.5727 26.0751 52.8657C22.1398 55.3296 16.9269 54.9269 13.4 51.5834C10.9083 49.216 9.82384 45.908 10.1558 42.718C3.80219 39.8687 -0.442944 33.2324 0.0368974 25.808C0.652543 16.2796 8.7857 9.07382 18.1944 9.69515C18.7406 9.73176 19.2768 9.79176 19.812 9.87718C23.539 3.56628 30.5526 -0.468782 38.3115 0.0437364C48.2001 0.696587 55.9389 8.49622 56.9207 18.1283C63.386 19.371 68.0677 25.3046 67.6281 32.1107C67.4541 34.7984 66.5054 37.2491 65.0126 39.2524C67.0125 41.2506 68.1763 44.0858 67.9782 47.1578Z" id="Stroke-3" fill="none" fill-rule="evenodd" stroke="#221E1F" stroke-width="2.816" stroke-linejoin="round" />
      <g id="Group-8" transform="translate(12.972319 52.706078)">
        <path d="M8.94231 1.35751C6.34192 1.36463 2.21247 -1.45218 0.526485 1.00872C-1.47939 3.93434 2.39052 7.43045 9.68169 7.8484" id="Fill-5" fill="#BBD670" fill-rule="evenodd" stroke="none" />
        <path d="M8.94231 1.35751C6.34192 1.36463 2.21247 -1.45218 0.526485 1.00872C-1.47939 3.93434 2.39052 7.43045 9.68169 7.8484" id="Stroke-7" fill="none" fill-rule="evenodd" stroke="#221E1F" stroke-width="2.816" stroke-linecap="round" />
      </g>
      <path d="M42.8736 53.5516C42.4592 51.0886 42.8062 47.8824 42.8062 47.8824C31.7558 46.9763 26.2914 40.2556 26.2914 40.2556C24.9837 41.6142 22.8943 41.8898 22.8943 41.8898C22.8943 41.8898 21.5514 45.8831 21.3623 51.9367L21.3613 51.9195L21.663 58.7174L21.663 58.7124C21.7817 59.6906 21.9367 60.6943 22.1348 61.7183C22.1348 61.7183 22.7776 66.089 24.355 70.6355C24.355 70.6355 25.4283 72.408 22.8471 74.6513C20.2658 76.8956 20.0264 80.0063 20.9015 81.3638C21.7787 82.7224 25.1145 83.9814 30.3716 81.6191C32.6119 80.6134 34.5926 79.6839 36.1337 78.9477L35.2988 79.6321L40.8678 81.5215C40.8678 81.5215 45.6189 82.8211 47.2938 78.7657C48.9687 74.7103 44.3292 72.226 44.3292 72.226L44.3111 72.2392C44.6361 71.3484 44.794 70.3508 44.6451 69.2383C43.944 64.0023 43.5939 61.8759 43.5939 61.8759" id="Fill-9" fill="#BBD670" fill-rule="evenodd" stroke="none" />
      <path d="M43.3084 47.8108C42.9603 51.8784 43.6887 60.1488 43.6887 60.1488C43.7329 61.7271 44.4431 64.6263 44.4431 64.6263C44.4431 64.6263 45.774 69.5135 44.6986 72.4493C43.6233 75.3861 39.4848 77.3091 39.4848 77.3091C39.4848 77.3091 35.6219 79.2401 30.3718 81.6197C28.8377 82.3153 23.0535 84.4782 20.9017 81.3645C18.7198 78.206 22.9227 74.9427 22.9227 74.9427L24.2817 73.6685C24.2817 73.6685 25.1026 72.8428 24.5282 71.1314L23.8059 68.9461C22.6269 65.0635 22.135 61.7189 22.135 61.7189C19.9732 50.5574 22.8945 41.8863 22.8945 41.8863" id="Stroke-11" fill="none" fill-rule="evenodd" stroke="#221E1F" stroke-width="2.816" stroke-linecap="round" stroke-linejoin="round" />
      <path d="M44.8395 73.3693C46.0527 74.2367 48.8442 76.3051 48.1239 79.1798C47.1089 83.2332 41.214 81.7709 41.214 81.7709L35.645 79.8815L34.797 79.5724" id="Stroke-13" fill="none" fill-rule="evenodd" stroke="#221E1F" stroke-width="2.816" stroke-linecap="round" stroke-linejoin="round" />
      <path d="M26.2899 47.656C26.2728 48.5865 25.7849 49.3603 25.1985 49.3847C24.613 49.4071 24.1513 48.6719 24.1674 47.7404C24.1845 46.8099 24.6734 46.0361 25.2588 46.0127C25.8463 45.9893 26.307 46.7255 26.2899 47.656" id="Fill-15" fill="#221E1F" fill-rule="evenodd" stroke="none" />
      <path d="M21.7262 51.414C21.7262 51.414 22.9967 51.5319 24.2381 51.2523" id="Stroke-17" fill="none" fill-rule="evenodd" stroke="#221E1F" stroke-width="2.816" stroke-linecap="round" stroke-linejoin="round" />
      <path d="M44.3856 47.4881C40.8235 47.5267 37.2 46.7122 33.812 44.9499C30.949 43.4591 28.5337 41.4375 26.6224 39.0641" id="Stroke-19" fill="none" fill-rule="evenodd" stroke="#221E1F" stroke-width="2.816" stroke-linecap="round" stroke-linejoin="round" />
      <path d="M26.9618 40.2194C26.0152 40.735 24.9992 41.1529 23.9198 41.457C23.2599 41.641 22.598 41.7783 21.9381 41.8688" id="Stroke-21" fill="none" fill-rule="evenodd" stroke="#221E1F" stroke-width="2.816" stroke-linecap="round" stroke-linejoin="round" />
      <g id="Group-26" transform="translate(34.51333 53.592533)">
        <path d="M0 2.1039C6.85861 -1.59254 18.7299 -0.325479 16.8759 5.17596C15.9303 7.98464 12.831 6.49285 10.3342 6.45929C8.91076 6.44099 7.85551 6.43793 6.41901 6.74911C6.41901 6.74911 3.66369 7.27688 2.56016 7.89109" id="Fill-23" fill="#BBD670" fill-rule="evenodd" stroke="none" />
        <path d="M0 2.1039C6.85861 -1.59254 18.7299 -0.325479 16.8759 5.17596C15.9303 7.98464 12.831 6.49285 10.3342 6.45929C8.91076 6.44099 7.85551 6.43793 6.41901 6.74911C6.41901 6.74911 3.66369 7.27688 2.56016 7.89109" id="Stroke-25" fill="none" fill-rule="evenodd" stroke="#221E1F" stroke-width="2.816" stroke-linecap="round" />
      </g>
    </g>
  </g>
</svg>