<?xml version="1.0" encoding="UTF-8"?>
<svg width="112px" height="138px" viewBox="0 0 112 138" version="1.1" xmlns="http://www.w3.org/2000/svg" xmlns:xlink="http://www.w3.org/1999/xlink">
    <title>Group 61</title>
    <g id="í•™ìŠµì°½-ðŸ€" stroke="none" stroke-width="1" fill="none" fill-rule="evenodd">
        <g id="D_02_7--ë‚´-ê°•ì˜ì‹¤---ì§„í–‰ì¤‘-ì—°ìˆ˜---í•™ìŠµëª©ì°¨---ì˜¤ëŠ˜í•™ìŠµ---í•™ìŠµì°½(MP3ê°ì²´)" transform="translate(-904.000000, -405.000000)">
            <g id="Group-61" transform="translate(906.000000, 407.000000)">
                <path d="M23.8014831,123.289222 C23.8014831,123.289222 27.8669053,131.415445 54.0015483,131.415445 C80.1331954,131.415445 84.1986176,123.289222 84.1986176,123.289222 L81.6221525,95.7058666 L36.8425905,99.9403637 L23.8014831,123.289222 Z" id="Fill-1" fill="#FEFEFE"></path>
                <g id="Group-6">
                    <path d="M84.1472381,108.37538 C87.3273749,100.011163 89.4050243,61.4321854 88.3969075,44.4552797 C90.8041048,43.2862652 95.1511406,41.8538107 97.3561154,40.2192858 C99.5565963,38.5862578 101.481455,36.5475922 103.043812,34.2230344 C107.916626,26.9754434 108.966686,17.2371478 107.193119,8.60200685 C106.688311,6.14423229 105.919866,3.27932333 104.173262,1.46368354 C97.4789468,-5.49651848 90.9748705,14.4291179 89.2357566,18.0618943 C88.5916403,19.4090302 85.1957994,28.8734081 83.3862821,27.9019735 C77.8723473,24.942765 66.7291359,21.0555296 53.9996009,21.1513259 C41.2715639,21.0555296 30.1283525,24.942765 24.6144177,27.9019735 C22.8049004,28.8734081 19.4090595,19.4090302 18.7649433,18.0618943 C17.0243314,14.4291179 10.521753,-5.49651848 3.82743767,1.46368354 C2.08083403,3.27932333 1.3108904,6.14423229 0.80758095,8.60200685 C-0.967483643,17.2371478 0.0840736095,26.9754434 4.95539011,34.2230344 C6.51774654,36.5475922 8.44260562,38.5862578 10.6445845,40.2192858 C12.8495592,41.8538107 17.1950971,43.2862652 19.6022944,44.4552797 C18.5956755,61.4321854 20.671827,100.011163 23.8519638,108.37538" id="Fill-3" fill="#FEFEFE"></path>
                    <path d="M84.1472381,108.37538 C87.3273749,100.011163 89.4050243,61.4321854 88.3969075,44.4552797 C90.8041048,43.2862652 95.1511406,41.8538107 97.3561154,40.2192858 C99.5565963,38.5862578 101.481455,36.5475922 103.043812,34.2230344 C107.916626,26.9754434 108.966686,17.2371478 107.193119,8.60200685 C106.688311,6.14423229 105.919866,3.27932333 104.173262,1.46368354 C97.4789468,-5.49651848 90.9748705,14.4291179 89.2357566,18.0618943 C88.5916403,19.4090302 85.1957994,28.8734081 83.3862821,27.9019735 C77.8723473,24.942765 66.7291359,21.0555296 53.9996009,21.1513259 C41.2715639,21.0555296 30.1283525,24.942765 24.6144177,27.9019735 C22.8049004,28.8734081 19.4090595,19.4090302 18.7649433,18.0618943 C17.0243314,14.4291179 10.521753,-5.49651848 3.82743767,1.46368354 C2.08083403,3.27932333 1.3108904,6.14423229 0.80758095,8.60200685 C-0.967483643,17.2371478 0.0840736095,26.9754434 4.95539011,34.2230344 C6.51774654,36.5475922 8.44260562,38.5862578 10.6445845,40.2192858 C12.8495592,41.8538107 17.1950971,43.2862652 19.6022944,44.4552797 C18.5956755,61.4321854 20.671827,100.011163 23.8519638,108.37538" id="Stroke-5" stroke="#231F20" stroke-width="3.0945" stroke-linecap="round" stroke-linejoin="round"></path>
                </g>
                <path d="M16.6775572,38.9413238 C13.8584251,38.571589 11.6174996,35.8563618 9.95777679,33.6066449 C6.32825653,28.6776244 3.65891888,22.7157997 3.50762646,16.4486243 C3.45819428,14.4593536 3.69486956,12.3697962 4.76290421,10.7397618 C5.09245206,10.2353343 5.55232112,9.75635262 6.12603398,9.703964 C6.8555331,9.63810402 7.46519663,10.2667674 7.90709035,10.8879467 C8.65156892,11.9342223 9.23726533,13.0987464 9.77203163,14.284226 C11.3703387,17.8361742 12.4982912,21.6006706 13.7610586,25.3037974 C14.9699001,28.8437711 16.3075648,32.349318 17.1134591,36.0180181 C17.3156817,36.9445482 17.6467275,38.948787 16.6775572,38.9413238" id="Fill-7" fill="#FCD1B8"></path>
                <path d="M91.047371,39.507549 C93.870997,39.179746 96.1538649,36.5004424 97.8450445,34.2761714 C101.552458,29.4025332 104.310174,23.4841162 104.558833,17.2169408 C104.638224,15.2306638 104.433006,13.1381127 103.390436,11.4901165 C103.06688,10.9811985 102.615999,10.4947328 102.042286,10.4348601 C101.315783,10.3570255 100.697131,10.976708 100.244752,11.5919001 C99.4837962,12.6262011 98.8786265,13.7817443 98.3288807,14.9597398 C96.6766476,18.4862421 95.4902753,22.2327767 94.1720839,25.9149481 C92.9078185,29.43696 91.5162277,32.9215514 90.6564074,36.5782769 C90.4392054,37.5003166 90.0767028,39.5000649 91.047371,39.507549" id="Fill-9" fill="#FCD1B8"></path>
                <path d="M22.8444461,26.7884908 C23.744711,28.198493 25.4358907,29.5291639 25.4358907,29.5291639" id="Stroke-11" stroke="#231F20" stroke-width="3.0945" stroke-linecap="round" stroke-linejoin="round"></path>
                <path d="M85.0946882,26.7884908 C84.1944233,28.198493 82.5032436,29.5291639 82.5032436,29.5291639" id="Stroke-13" stroke="#231F20" stroke-width="3.0945" stroke-linecap="round" stroke-linejoin="round"></path>
                <path d="M23.7749695,105.398509 C28.37366,108.022431 31.685616,108.363705 34.4732912,107.878736 C34.4687974,115.648716 34.4628056,123.418697 34.4583118,131.190174 C26.1626935,130.332497 20.5933347,125.683382 18.9201303,122.022166 C15.999138,115.624767 17.5854615,108.486444 19.9027821,105.747268 C20.6757217,104.834209 21.9729419,104.370195 23.7749695,105.398509" id="Fill-15" fill="#FFCA05"></path>
                <path d="M23.7749695,105.398509 C28.37366,108.022431 31.685616,108.363705 34.4732912,107.878736 C34.4687974,115.648716 34.4628056,123.418697 34.4583118,131.190174 C26.1626935,130.332497 20.5933347,125.683382 18.9201303,122.022166 C15.999138,115.624767 17.5854615,108.486444 19.9027821,105.747268 C20.6757217,104.834209 21.9729419,104.370195 23.7749695,105.398509 Z" id="Stroke-17" stroke="#231F20" stroke-width="3.0945" stroke-linejoin="round"></path>
                <path d="M38.5261307,105.996039 C35.0583885,105.996039 30.0447672,108.637922 30.0447672,119.998768 C30.0447672,131.361111 35.0583885,134 38.5261307,134 C41.9938729,134 47.0089921,131.361111 47.0089921,119.998768 C47.0089921,108.637922 41.9938729,105.996039 38.5261307,105.996039" id="Fill-19" fill="#6C5839"></path>
                <path d="M31.8366088,105.996039 C28.6175254,105.996039 23.960415,108.637922 23.960415,119.998768 C23.960415,131.361111 28.6175254,134 31.8366088,134 C35.0556922,134 39.7128026,131.361111 39.7128026,119.998768 C39.7128026,108.637922 35.0556922,105.996039 31.8366088,105.996039" id="Fill-21" fill="#FFCA05"></path>
                <path d="M31.8366088,105.996039 C28.6175254,105.996039 23.960415,108.637922 23.960415,119.998768 C23.960415,131.361111 28.6175254,134 31.8366088,134 C35.0556922,134 39.7128026,131.361111 39.7128026,119.998768 C39.7128026,108.637922 35.0556922,105.996039 31.8366088,105.996039 Z" id="Stroke-23" stroke="#231F20" stroke-width="2.784"></path>
                <path d="M38.5261307,105.996039 L32.4429769,105.996039 C28.9752346,105.996039 23.9616134,108.637922 23.9616134,119.998768 C23.9616134,131.361111 28.9752346,134 32.4429769,134 L38.5261307,134 C41.9938729,134 47.0089921,131.361111 47.0089921,119.998768 C47.0089921,108.637922 41.9938729,105.996039 38.5261307,105.996039 Z" id="Stroke-25" stroke="#231F20" stroke-width="3.0945" stroke-linejoin="round"></path>
                <path d="M86.1270717,105.398509 C81.5283812,108.022431 78.2179232,108.363705 75.4287499,107.878736 C75.4347417,115.648716 75.4392355,123.418697 75.4452273,131.190174 C83.7393477,130.332497 89.3087065,125.683382 90.9819108,122.022166 C93.9029032,115.624767 92.3165796,108.486444 89.999259,105.747268 C89.2263195,104.834209 87.9290993,104.370195 86.1270717,105.398509" id="Fill-27" fill="#FFCA05"></path>
                <path d="M86.1270717,105.398509 C81.5283812,108.022431 78.2179232,108.363705 75.4287499,107.878736 C75.4347417,115.648716 75.4392355,123.418697 75.4452273,131.190174 C83.7393477,130.332497 89.3087065,125.683382 90.9819108,122.022166 C93.9029032,115.624767 92.3165796,108.486444 89.999259,105.747268 C89.2263195,104.834209 87.9290993,104.370195 86.1270717,105.398509 Z" id="Stroke-29" stroke="#231F20" stroke-width="3.0945" stroke-linejoin="round"></path>
                <path d="M71.3757607,105.996039 C74.8450008,105.996039 79.8586221,108.637922 79.8586221,119.998768 C79.8586221,131.361111 74.8450008,134 71.3757607,134 C67.9080184,134 62.8943972,131.361111 62.8943972,119.998768 C62.8943972,108.637922 67.9080184,105.996039 71.3757607,105.996039" id="Fill-31" fill="#6C5839"></path>
                <path d="M78.0660315,105.996039 C81.2851149,105.996039 85.9422253,108.637922 85.9422253,119.998768 C85.9422253,131.361111 81.2851149,134 78.0660315,134 C74.8469482,134 70.1898378,131.361111 70.1898378,119.998768 C70.1898378,108.637922 74.8469482,105.996039 78.0660315,105.996039" id="Fill-33" fill="#FFCA05"></path>
                <path d="M78.0660315,105.996039 C81.2851149,105.996039 85.9422253,108.637922 85.9422253,119.998768 C85.9422253,131.361111 81.2851149,134 78.0660315,134 C74.8469482,134 70.1898378,131.361111 70.1898378,119.998768 C70.1898378,108.637922 74.8469482,105.996039 78.0660315,105.996039 Z" id="Stroke-35" stroke="#231F20" stroke-width="2.784"></path>
                <path d="M71.3757607,105.996039 L77.4589145,105.996039 C80.9266567,105.996039 85.940278,108.637922 85.940278,119.998768 C85.940278,131.361111 80.9266567,134 77.4589145,134 L71.3757607,134 C67.9080184,134 62.8943972,131.361111 62.8943972,119.998768 C62.8943972,108.637922 67.9080184,105.996039 71.3757607,105.996039 Z" id="Stroke-37" stroke="#231F20" stroke-width="3.0945" stroke-linejoin="round"></path>
                <path d="M67.5308359,68.2501897 C64.5693991,64.6847701 59.2756621,62.8571558 53.9205095,62.773334 C48.5653568,62.8122512 43.2551425,64.594961 40.2652446,68.1334379 C35.533237,73.7315359 36.0080855,81.684128 38.7852752,88.0590743 C41.3482587,93.9340836 46.7663251,101.024509 53.7572335,101.027827 C60.7481419,101.082885 66.226126,94.0403576 68.8385418,88.1878007 C71.6726533,81.8368034 72.2149093,73.8887018 67.5308359,68.2501897" id="Fill-39" fill="#FCD1B8"></path>
                <g id="Group-44" transform="translate(48.228169, 80.881385)">
                    <path d="M11.5866031,0 C11.8307681,5.56816161 9.36515092,13.2079188 6.16554081,13.3486197 C2.96593071,13.4893206 0.244165003,6.07707961 0,0.510414814" id="Fill-41" fill="#F06687"></path>
                    <path d="M11.5866031,0 C11.8307681,5.56816161 9.36515092,13.2079188 6.16554081,13.3486197 C2.96593071,13.4893206 0.244165003,6.07707961 0,0.510414814" id="Stroke-43" stroke="#231F20" stroke-width="2.475" stroke-linecap="round" stroke-linejoin="round"></path>
                </g>
                <g id="Group-48" transform="translate(45.722857, 76.527891)">
                    <path d="M16.799451,0.399650309 C15.307498,4.75389282 11.2690388,6.41386358 8.16529713,6.3390227 C5.06155549,6.26567863 1.15641339,4.41860567 0,0" id="Fill-45" fill="#FCD1B8"></path>
                    <path d="M16.799451,0.399650309 C15.307498,4.75389282 11.2690388,6.41386358 8.16529713,6.3390227 C5.06155549,6.26567863 1.15641339,4.41860567 0,0" id="Stroke-47" stroke="#231F20" stroke-width="2.784" stroke-linecap="round"></path>
                </g>
                <path d="M43.961723,59.6416921 C44.0366203,61.6144978 42.4982309,63.2729717 40.5194459,63.3493094 C38.5421587,63.4256471 36.87944,61.8884154 36.8045427,59.9141129 C36.7266496,57.9368168 38.2680348,56.2723556 40.245322,56.1960179 C42.225605,56.121177 43.8853278,57.6628992 43.961723,59.6416921" id="Fill-49" fill="#231F20"></path>
                <path d="M71.0626902,59.7575458 C71.1375874,61.7303515 69.5991981,63.3888254 67.620413,63.4651631 C65.6431259,63.5415008 63.9804072,62.0042691 63.9055099,60.0299666 C63.8276168,58.0526705 65.369002,56.3882093 67.3477871,56.3118716 C69.3265722,56.2370307 70.987793,57.7787529 71.0626902,59.7575458" id="Fill-51" fill="#231F20"></path>
                <path d="M35.8675783,51.3702779 C35.8675783,51.3702779 39.6978231,46.4682001 44.9705888,51.4091951" id="Stroke-53" stroke="#231F20" stroke-width="2.784" stroke-linecap="round"></path>
                <path d="M62.9677965,51.4861315 C68.1237225,42.4722957 72.0708071,51.5250488 72.0708071,51.5250488" id="Stroke-55" stroke="#231F20" stroke-width="2.784" stroke-linecap="round"></path>
                <line x1="53.877818" y1="72.8099453" x2="54.0006495" y2="82.1650555" id="Stroke-57" stroke="#231F20" stroke-width="2.784" stroke-linecap="round"></line>
                <path d="M46.5696146,69.0553279 C46.5801305,66.6559293 50.1482351,65.6665328 53.9080765,65.6829978 C57.66642,65.6994628 61.2285328,66.7187956 61.2195621,69.1181943 C61.2045657,72.304919 56.6972497,75.120433 53.867632,75.1070098 C51.0395122,75.0949871 46.5561634,72.2435495 46.5696146,69.0553279" id="Fill-59" fill="#231F20"></path>
            </g>
        </g>
    </g>
</svg>