<?xml version="1.0" encoding="utf-8"?>
<svg width="56px" height="56px" viewBox="0 0 56 56" version="1.1" xmlns:xlink="http://www.w3.org/1999/xlink" xmlns="http://www.w3.org/2000/svg">
  <defs>
    <filter id="filter_1">
      <feColorMatrix in="SourceGraphic" type="matrix" values="0 0 0 0 0.57254905 0 0 0 0 0.6862745 0 0 0 0 0.7647059 0 0 0 1 0" />
    </filter>
  </defs>
  <g id="Group-11-Copy-30">
    <path d="M15.999 0L40.001 0Q40.3938 0 40.786 0.0192715Q41.1783 0.038543 41.5692 0.0770395Q41.96 0.115536 42.3485 0.173165Q42.737 0.230794 43.1222 0.307416Q43.5075 0.384039 43.8884 0.47947Q44.2694 0.574901 44.6453 0.688911Q45.0211 0.802922 45.3909 0.935236Q45.7607 1.06755 46.1236 1.21785Q46.4864 1.36815 46.8414 1.53607Q47.1965 1.704 47.5429 1.88914Q47.8893 2.07428 48.2261 2.2762Q48.563 2.47812 48.8896 2.69632Q49.2161 2.91452 49.5316 3.14848Q49.8471 3.38245 50.1507 3.63161Q50.4543 3.88077 50.7453 4.14452Q51.0363 4.40828 51.314 4.686Q51.5917 4.96372 51.8555 5.25473Q52.1192 5.54574 52.3684 5.84934Q52.6176 6.15294 52.8515 6.46841Q53.0855 6.78387 53.3037 7.11043Q53.5219 7.43699 53.7238 7.77387Q53.9257 8.11075 54.1109 8.45712Q54.296 8.8035 54.4639 9.15855Q54.6318 9.51359 54.7821 9.87645Q54.9324 10.2393 55.0648 10.6091Q55.1971 10.9789 55.3111 11.3547Q55.4251 11.7306 55.5205 12.1116Q55.616 12.4925 55.6926 12.8777Q55.7692 13.263 55.8268 13.6515Q55.8845 14.04 55.923 14.4308Q55.9615 14.8217 55.9807 15.214Q56 15.6062 56 15.999L56 40.001Q56 40.3938 55.9807 40.786Q55.9615 41.1783 55.923 41.5692Q55.8845 41.96 55.8268 42.3485Q55.7692 42.737 55.6926 43.1222Q55.616 43.5075 55.5205 43.8884Q55.4251 44.2694 55.3111 44.6453Q55.1971 45.0211 55.0648 45.3909Q54.9324 45.7607 54.7821 46.1236Q54.6318 46.4864 54.4639 46.8414Q54.296 47.1965 54.1109 47.5429Q53.9257 47.8893 53.7238 48.2261Q53.5219 48.563 53.3037 48.8896Q53.0855 49.2161 52.8515 49.5316Q52.6176 49.8471 52.3684 50.1507Q52.1192 50.4543 51.8555 50.7453Q51.5917 51.0363 51.314 51.314Q51.0363 51.5917 50.7453 51.8555Q50.4543 52.1192 50.1507 52.3684Q49.8471 52.6176 49.5316 52.8515Q49.2161 53.0855 48.8896 53.3037Q48.563 53.5219 48.2261 53.7238Q47.8893 53.9257 47.5429 54.1109Q47.1965 54.296 46.8415 54.4639Q46.4864 54.6318 46.1236 54.7821Q45.7607 54.9324 45.3909 55.0648Q45.0211 55.1971 44.6453 55.3111Q44.2694 55.4251 43.8884 55.5205Q43.5075 55.616 43.1223 55.6926Q42.737 55.7692 42.3485 55.8268Q41.96 55.8845 41.5692 55.923Q41.1783 55.9615 40.786 55.9807Q40.3938 56 40.001 56L15.999 56Q15.6062 56 15.214 55.9807Q14.8217 55.9615 14.4308 55.923Q14.04 55.8845 13.6515 55.8268Q13.263 55.7692 12.8777 55.6926Q12.4925 55.616 12.1116 55.5205Q11.7306 55.4251 11.3547 55.3111Q10.9789 55.1971 10.6091 55.0648Q10.2393 54.9324 9.87645 54.7821Q9.51359 54.6318 9.15855 54.4639Q8.8035 54.296 8.45712 54.1109Q8.11075 53.9257 7.77387 53.7238Q7.43699 53.5219 7.11043 53.3037Q6.78387 53.0855 6.46841 52.8515Q6.15294 52.6176 5.84934 52.3684Q5.54574 52.1192 5.25473 51.8555Q4.96372 51.5917 4.686 51.314Q4.40828 51.0363 4.14452 50.7453Q3.88077 50.4543 3.63161 50.1507Q3.38245 49.8471 3.14848 49.5316Q2.91452 49.2161 2.69632 48.8896Q2.47812 48.563 2.2762 48.2261Q2.07428 47.8893 1.88914 47.5429Q1.704 47.1965 1.53607 46.8415Q1.36815 46.4864 1.21785 46.1236Q1.06755 45.7607 0.935236 45.3909Q0.802922 45.0211 0.688911 44.6453Q0.574901 44.2694 0.47947 43.8884Q0.384039 43.5075 0.307416 43.1223Q0.230794 42.737 0.173165 42.3485Q0.115536 41.96 0.0770395 41.5692Q0.038543 41.1783 0.0192715 40.786Q0 40.3938 0 40.001L0 15.999Q0 15.6062 0.0192715 15.214Q0.038543 14.8217 0.0770395 14.4308Q0.115536 14.04 0.173165 13.6515Q0.230794 13.263 0.307416 12.8777Q0.384039 12.4925 0.47947 12.1116Q0.574901 11.7306 0.688911 11.3547Q0.802922 10.9789 0.935236 10.6091Q1.06755 10.2393 1.21785 9.87645Q1.36815 9.51359 1.53607 9.15855Q1.704 8.8035 1.88914 8.45712Q2.07428 8.11075 2.2762 7.77387Q2.47812 7.43699 2.69632 7.11043Q2.91452 6.78387 3.14848 6.46841Q3.38245 6.15294 3.63161 5.84934Q3.88077 5.54574 4.14452 5.25473Q4.40828 4.96372 4.686 4.686Q4.96372 4.40828 5.25473 4.14452Q5.54574 3.88077 5.84934 3.63161Q6.15294 3.38245 6.46841 3.14848Q6.78387 2.91452 7.11043 2.69632Q7.43699 2.47812 7.77387 2.2762Q8.11075 2.07428 8.45712 1.88914Q8.8035 1.704 9.15855 1.53607Q9.51359 1.36815 9.87645 1.21785Q10.2393 1.06755 10.6091 0.935236Q10.9789 0.802922 11.3547 0.688911Q11.7306 0.574901 12.1116 0.47947Q12.4925 0.384039 12.8777 0.307416Q13.263 0.230794 13.6515 0.173165Q14.04 0.115536 14.4308 0.0770395Q14.8217 0.038543 15.214 0.0192715Q15.6062 0 15.999 0Z" id="Rectangle" fill="#E8F2F2" fill-rule="evenodd" stroke="none" />
    <g id="ic집합" transform="translate(12 12)" filter="url(#filter_1)">
      <path d="M0 0L32 0L32 32L0 32L0 0Z" id="Path" fill="none" fill-rule="evenodd" stroke="none" />
      <g id="Group" transform="translate(5.3333335 6.6666665)">
        <path d="M10.6667 15.5665C11.0343 15.5665 11.334 15.8602 11.334 16.2207C11.334 16.5812 11.0343 16.8749 10.6667 16.8749C10.2991 16.8749 9.99932 16.5812 9.99932 16.2207C9.99932 15.8602 10.2991 15.5665 10.6667 15.5665" id="Path" fill="none" fill-rule="evenodd" stroke="#000000" stroke-width="2" stroke-linecap="round" stroke-linejoin="round" />
        <path d="M21.3333 3.70344C15.1128 -1.23448 6.22058 -1.23448 0 3.70344" id="Path" fill="none" fill-rule="evenodd" stroke="#000000" stroke-width="2" stroke-linecap="round" stroke-linejoin="round" />
        <path d="M4.44609 10.021C8.07385 7.14373 13.2595 7.14373 16.8894 10.021" id="Path" fill="none" fill-rule="evenodd" stroke="#000000" stroke-width="2" stroke-linecap="round" stroke-linejoin="round" />
      </g>
    </g>
  </g>
</svg>