<?xml version="1.0" encoding="UTF-8"?>
<svg width="56px" height="56px" viewBox="0 0 56 56" version="1.1" xmlns="http://www.w3.org/2000/svg" xmlns:xlink="http://www.w3.org/1999/xlink">
    <title>Group 16</title>
    <g id="SSL-메인" stroke="none" stroke-width="1" fill="none" fill-rule="evenodd">
        <g id="A_01---메인" transform="translate(-828.000000, -735.000000)">
            <g id="Activity-(전체)" transform="translate(160.000000, 622.000000)">
                <g id="Group-16" transform="translate(668.000000, 113.000000)">
                    <rect id="Rectangle" fill="#FAF5DF" x="0" y="0" width="56" height="56" rx="16"></rect>
                    <g id="chat-messages-bubble-circle.4" transform="translate(12.000000, 12.000000)">
                        <g id="Group" stroke-linecap="round" stroke-linejoin="round" transform="translate(4.000000, 4.000000)" stroke="#AFAA95" stroke-width="2">
                            <path d="M16,16 L20,16 C22.2093333,16 24,14.2093333 24,12 L24,4 C24,1.79066667 22.2093333,0 20,0 L4,0 C1.79066667,0 0,1.79066667 0,4 L0,12 C0,14.2093333 1.79066667,16 4,16 L8,16" id="Path"></path>
                            <path d="M15.7493333,16 L13.2,19.4 C12.6,20.2 11.4,20.2 10.8,19.4 L8.25066667,16" id="Path"></path>
                        </g>
                        <polygon id="Path" points="32 32 0 32 0 0 32 0"></polygon>
                        <line x1="9.33333333" y1="28" x2="22.6666667" y2="28" id="Path" stroke="#AFAA95" stroke-width="2" stroke-linecap="round" stroke-linejoin="round"></line>
                    </g>
                </g>
            </g>
        </g>
    </g>
</svg>