<?xml version="1.0" encoding="UTF-8"?>
<svg width="56px" height="56px" viewBox="0 0 56 56" version="1.1" xmlns="http://www.w3.org/2000/svg" xmlns:xlink="http://www.w3.org/1999/xlink">
    <title>Group 11</title>
    <g id="SSL-메인" stroke="none" stroke-width="1" fill="none" fill-rule="evenodd">
        <g id="A_01---메인" transform="translate(-616.000000, -735.000000)">
            <g id="Activity-(전체)" transform="translate(160.000000, 622.000000)">
                <g id="Group-11" transform="translate(456.000000, 113.000000)">
                    <rect id="Rectangle" fill="#E8F2F2" x="0" y="0" width="56" height="56" rx="16"></rect>
                    <g id="checklist-pen-checkmark" transform="translate(12.000000, 12.000000)">
                        <rect id="Rectangle" x="0" y="0" width="32" height="32"></rect>
                        <g id="Group-31" transform="translate(16.666667, 16.000000) rotate(30.000000) translate(-16.666667, -16.000000) translate(13.333333, 4.000000)" stroke="#92AFC3" stroke-linecap="round" stroke-linejoin="round" stroke-width="2">
                            <path d="M0,18.8888933 C0,19.898621 0.327496735,20.8811112 0.933333333,21.6888933 L2.26666667,23.4666667 C2.51847251,23.8024078 2.91365693,24 3.33333333,24 C3.75300974,24 4.14819416,23.8024078 4.4,23.4666667 L5.77777333,21.6296267 C6.35476244,20.8603111 6.66666667,19.924606 6.66666667,18.96296 L6.66666667,3.33333333 C6.66666667,1.49238417 5.1742825,0 3.33333333,0 L3.33333333,0 C1.49238417,0 0,1.49238417 0,3.33333333 L0,18.8888933 Z" id="Path"></path>
                            <line x1="0" y1="6.66666667" x2="6.66666667" y2="6.66666667" id="Path"></line>
                        </g>
                    </g>
                </g>
            </g>
        </g>
    </g>
</svg>