<?xml version="1.0" encoding="UTF-8"?>
<svg width="56px" height="56px" viewBox="0 0 56 56" version="1.1" xmlns="http://www.w3.org/2000/svg" xmlns:xlink="http://www.w3.org/1999/xlink">
    <title>Group 3</title>
    <g id="SSL-메인" stroke="none" stroke-width="1" fill="none" fill-rule="evenodd">
        <g id="A_01---메인" transform="translate(-192.000000, -735.000000)">
            <g id="Activity-(전체)" transform="translate(160.000000, 622.000000)">
                <g id="Group-3" transform="translate(32.000000, 113.000000)">
                    <rect id="Rectangle" fill="#E7F4E6" x="0" y="0" width="56" height="56" rx="16"></rect>
                    <g id="sneakers-sport-run" transform="translate(12.000000, 12.000000)">
                        <line x1="2.66666667" y1="20.6665333" x2="29.27744" y2="20.6666667" id="Path" stroke="#A6BAA5" stroke-width="2" stroke-linecap="round" stroke-linejoin="round"></line>
                        <path d="M2.66666667,14.4614 L2.66666667,21.3333333 C2.66666667,22.8060927 3.860574,24 5.33333333,24 L22.3585867,24 C23.4487463,24 24.5347915,23.8663029 25.5924,23.6018933 L26.8084,23.2978933 C28.2923125,22.9269406 29.3333333,21.5936558 29.3333333,20.06408 L29.3333333,19.8607467 C29.3333333,18.2718106 28.2118,16.9037624 26.65372,16.5921467 L23.70124,16.00164 C23.0181409,15.8650258 22.3684243,15.5959039 21.7888,15.20948 L15.31048,10.8906667 C14.9123604,10.6252558 14.402549,10.5935198 13.9745867,10.8075067 L12.39752,11.59604 C12.1394814,11.7250515 11.9302515,11.9342814 11.80124,12.19232 L11.0351867,13.7244133 C10.8093335,14.1761241 10.3476537,14.4614621 9.84262667,14.4614667 L6.66666667,14.4614667 L5.88561333,13.6804133 C5.53199418,13.3267877 5.0523776,13.1281257 4.55228,13.1281333 L4,13.1281333 C3.26364637,13.1281333 2.66666667,13.7250464 2.66666667,14.4614 Z" id="Path" stroke="#A6BAA5" stroke-width="2" stroke-linecap="round" stroke-linejoin="round"></path>
                        <rect id="Rectangle" transform="translate(16.000000, 16.000000) rotate(-180.000000) translate(-16.000000, -16.000000) " x="0" y="0" width="32" height="32"></rect>
                    </g>
                </g>
            </g>
        </g>
    </g>
</svg>