<?xml version="1.0" encoding="UTF-8"?>
<svg width="56px" height="56px" viewBox="0 0 56 56" version="1.1" xmlns="http://www.w3.org/2000/svg" xmlns:xlink="http://www.w3.org/1999/xlink">
    <title>Group 21</title>
    <g id="SSL-메인" stroke="none" stroke-width="1" fill="none" fill-rule="evenodd">
        <g id="A_01---메인" transform="translate(-1464.000000, -735.000000)">
            <g id="Activity-(전체)" transform="translate(160.000000, 622.000000)">
                <g id="Group-21" transform="translate(1304.000000, 113.000000)">
                    <rect id="Rectangle" fill="#ECEBDF" x="0" y="0" width="56" height="56" rx="16"></rect>
                    <g id="thumbs-up-like" transform="translate(12.000000, 12.000000)">
                        <polygon id="Path" points="0 0 32 0 32 32 0 32"></polygon>
                        <path d="M18.6666667,26.6666667 L25.3333333,26.6666667 C26.8066667,26.6666667 28,25.4733333 28,24 L28,8 C28,6.52666667 26.8066667,5.33333333 25.3333333,5.33333333 L6.66666667,5.33333333 C5.19333333,5.33333333 4,6.52666667 4,8 L4,24 C4,25.4733333 5.19333333,26.6666667 6.66666667,26.6666667 L13.3333333,26.6666667 L16,29.3333333 L18.6666667,26.6666667 Z" id="Path" stroke="#BDBBA4" stroke-width="2" stroke-linecap="round" stroke-linejoin="round"></path>
                        <path d="M12.1106667,21.3226667 L10.268,21.3226667 C9.856,21.3226667 9.52266667,20.9893333 9.52266667,20.5773333 L9.52266667,14.7346667 C9.52266667,14.3226667 9.856,13.9893333 10.268,13.9893333 L12.1106667,13.9893333 C12.5226667,13.9893333 12.856,14.3226667 12.856,14.7906667 L12.856,20.6333333 C12.856,20.9893333 12.5226667,21.3226667 12.1106667,21.3226667 L12.1106667,21.3226667 Z" id="Path" stroke="#BDBBA4" stroke-width="2" stroke-linecap="round" stroke-linejoin="round"></path>
                        <path d="M12.856,15.5693333 L15.3173333,11.5413333 C16.2653333,9.99066667 18.6533333,10.6613333 18.6533333,12.48 L18.6533333,14.6066667 L19.84,14.6066667 L20.6666667,14.6066667 C21.2706667,14.6066667 21.8346667,14.9093333 22.1706667,15.4146667 C22.468,15.8613333 22.5546667,16.4173333 22.4066667,16.9333333 L21.4306667,20.3493333 C21.2653333,20.9253333 20.7386667,21.3226667 20.14,21.3226667 L15.3626667,21.3226667 C14.9746667,21.3226667 14.5973333,21.1866667 14.2986667,20.9386667 L12.856,19.7426667" id="Path" stroke="#BDBBA4" stroke-width="2" stroke-linecap="round" stroke-linejoin="round"></path>
                        <polygon id="Path" points="0 0 32 0 32 32 0 32"></polygon>
                    </g>
                </g>
            </g>
        </g>
    </g>
</svg>