<?xml version="1.0" encoding="UTF-8"?>
<svg width="56px" height="56px" viewBox="0 0 56 56" version="1.1" xmlns="http://www.w3.org/2000/svg" xmlns:xlink="http://www.w3.org/1999/xlink">
    <title>Group 2</title>
    <g id="SSL-메인" stroke="none" stroke-width="1" fill="none" fill-rule="evenodd">
        <g id="메인" transform="translate(-1456.000000, -659.000000)">
            <g id="Activity-(전체)" transform="translate(160.000000, 622.000000)">
                <g id="Group-2" transform="translate(1296.000000, 37.000000)">
                    <rect id="Rectangle" fill="#F7F7F0" x="0" y="0" width="56" height="56" rx="16"></rect>
                    <g id="notes-edit.1" transform="translate(12.000000, 12.000000)">
                        <g id="Group" stroke-linecap="round" stroke-linejoin="round" transform="translate(4.002500, 4.000000)" stroke="#C3C3AD" stroke-width="2">
                            <path d="M21.3466667,9.33333333 L21.3466667,2.66666667 C21.3466667,1.19333333 20.1525875,0 18.6783333,0 L2.66833333,0 C1.19407917,0 0,1.19333333 0,2.66666667 L0,21.3333333 C0,22.8066667 1.19407917,24 2.66833333,24 L9.33916667,24" id="Path"></path>
                            <line x1="6.67083333" y1="5.33333333" x2="14.6758333" y2="5.33333333" id="Path"></line>
                            <path d="M20.7611009,18.2531071 C21.5427892,19.0342847 21.5427892,20.3014485 20.7611009,21.0826262 C19.9794127,21.8638039 18.7114207,21.8638039 17.9297324,21.0826262 C17.1480442,20.3014485 17.1480442,19.0342847 17.9297324,18.2531071 C18.7114207,17.4707294 19.9794127,17.4707294 20.7611009,18.2531071" id="Path"></path>
                            <path d="M13.3416667,19.6666667 C13.3416667,19.2274792 13.4425297,18.7930916 13.6394527,18.3923031 L13.6394527,18.3923031 C14.6492834,16.3271621 16.8826784,15 19.3454167,15 C21.8081549,15 24.0415499,16.3271621 25.0513807,18.3923031 L25.0513807,18.3923031 C25.2483037,18.7930916 25.3491667,19.2274792 25.3491667,19.6666667 C25.3491667,20.1058541 25.2483037,20.5402417 25.0513807,20.9410303 L25.0513807,20.9410303 C24.0403492,23.0049713 21.8069542,24.3333333 19.3454167,24.3333333 C16.8826784,24.3333333 14.6492834,23.0061713 13.6394527,20.9410303 L13.6394527,20.9410303 C13.4425297,20.5402417 13.3416667,20.1058541 13.3416667,19.6666667 Z" id="Path"></path>
                        </g>
                        <polygon id="Path" points="0 0 32.02 0 32.02 32 0 32"></polygon>
                    </g>
                </g>
            </g>
        </g>
    </g>
</svg>